<svg width="385" height="380" viewBox="0 0 385 380" fill="none" xmlns="http://www.w3.org/2000/svg">
<path d="M177.848 349.214L130.971 322.001C129.898 321.38 129.906 319.83 130.975 319.211L211.514 272.761C212.018 272.478 212.629 272.474 213.133 272.765L260.006 299.978C261.08 300.599 261.072 302.149 260.002 302.768L179.467 349.218C178.946 349.51 178.35 349.503 177.848 349.214ZM135.001 320.612L178.664 345.96L255.977 301.367L212.318 276.019L135.001 320.612Z" fill="#DBE6FA"/>
<path d="M131.782 295.694L131.814 306.967L178.69 334.179L178.658 322.907L131.782 295.694Z" fill="#CBDBF4"/>
<path d="M178.658 322.907L178.69 334.179L259.229 287.729L259.197 276.457L178.658 322.907Z" fill="#DBE6FA"/>
<path d="M131.782 295.694L178.658 322.907L259.197 276.456L212.321 249.244L131.782 295.694Z" fill="#EBF2FF"/>
<path d="M161.61 235.467L161.64 291.547L188.271 307.007L188.241 250.927L161.61 235.467Z" fill="#CBDBF4"/>
<path d="M188.241 250.927L188.272 307.007L222.696 287.154L222.665 231.073L188.241 250.927Z" fill="#DBE6FA"/>
<path d="M161.61 235.467L188.241 250.927L222.665 231.073L196.034 215.613L161.61 235.467Z" fill="#B72AAA"/>
<path d="M138.316 203.945C138.356 217.281 143.066 226.672 150.663 231.078L160.546 236.824C152.948 232.419 148.238 223.028 148.198 209.692C148.118 182.859 167.02 150.159 190.393 136.683C202.16 129.895 212.824 129.254 220.522 133.739L210.639 127.992C202.942 123.527 192.278 124.148 180.511 130.936C157.138 144.433 138.235 177.112 138.316 203.945Z" fill="#CBDBF4"/>
<path d="M220.435 202.638C236.997 174.171 237.042 143.325 220.536 133.742C204.03 124.159 177.222 139.467 160.66 167.934C144.098 196.401 144.052 227.247 160.559 236.831C177.065 246.414 203.872 231.105 220.435 202.638Z" fill="#EBF2FF"/>
<path d="M43.4943 283.438L28.7446 274.876L28.7736 281.65L43.5233 290.213L43.4943 283.438Z" fill="#CBDBF4"/>
<path d="M321.107 123.327L306.358 114.764L28.7446 274.876L43.4943 283.438L321.107 123.327Z" fill="#DBE6FA"/>
<path d="M43.4944 283.438L43.5234 290.213L85.6833 276.119L279.034 164.605L321.136 130.102L321.107 123.327L43.4944 283.438Z" fill="#BBCFEF"/>
<path d="M157.698 215.197C157.738 228.533 162.448 237.924 170.046 242.33L179.928 248.076C172.331 243.671 167.62 234.28 167.58 220.944C167.5 194.111 186.403 161.411 209.776 147.935C221.542 141.147 232.206 140.506 239.904 144.991L230.021 139.244C222.324 134.779 211.66 135.4 199.893 142.188C176.52 155.685 157.618 188.364 157.698 215.197Z" fill="#CBDBF4"/>
<path d="M239.818 213.891C256.38 185.424 256.425 154.578 239.919 144.995C223.413 135.411 196.605 150.72 180.043 179.187C163.481 207.654 163.435 238.5 179.942 248.083C196.448 257.666 223.255 242.358 239.818 213.891Z" fill="#DBE6FA"/>
<path d="M108.736 257.956C108.736 270.14 88.5133 280.022 63.5769 280.022C38.6262 280.022 18.4038 270.14 18.4038 257.956C18.4038 245.773 38.6262 235.891 63.5769 235.891C88.5133 235.891 108.736 245.773 108.736 257.956Z" fill="#CBDBF4"/>
<path d="M108.362 261.943C83.6937 276.268 43.5616 276.268 18.7197 261.943C5.54292 254.339 -0.677425 244.236 0.0583726 234.281C0.727288 225.474 6.85398 216.801 18.4255 210.08C43.0933 195.754 83.2388 195.741 108.081 210.066C119.839 216.841 126.046 225.621 126.729 234.508C127.478 244.383 121.364 254.392 108.362 261.943Z" fill="#BBCFEF"/>
<path d="M126.729 234.508C126.06 243.314 119.946 252.014 108.362 258.735C83.6938 273.061 43.5616 273.048 18.7197 258.722C6.96095 251.947 0.740605 243.154 0.0583496 234.281C0.727265 225.474 6.85396 216.801 18.4254 210.08C43.0933 195.754 83.2388 195.741 108.081 210.066C119.839 216.841 126.046 225.621 126.729 234.508Z" fill="#EBF2FF"/>
<path d="M111.314 251.447C111.314 251.464 111.314 251.464 111.297 251.464C107.737 254.865 102.949 257.767 101.283 258.528L101.266 258.545C94.6458 262.052 86.788 264.54 78.2282 265.843C72.0838 266.856 63.4942 267.214 58.9519 266.845C58.9519 266.862 58.9519 266.862 58.9351 266.845C46.449 266.341 32.1475 262.974 21.6031 256.073C21.5864 256.073 21.5696 256.057 21.5696 256.057C6.72161 246.966 3.06268 231.73 16.3033 219.816C16.3033 219.799 16.3033 219.799 16.32 219.799C29.9103 207.566 54.2859 203.349 74.2491 205.67C74.2658 205.67 74.2826 205.67 74.2826 205.67C74.9347 205.754 75.5697 205.821 76.2052 205.921C82.9261 206.823 89.2622 208.442 94.9464 210.714C94.9632 210.714 94.9799 210.714 94.9966 210.73C95.1303 210.764 95.2472 210.831 95.3811 210.88H95.3979C111.738 217.448 115.692 226.411 116.095 226.813C116.112 226.83 116.128 226.847 116.128 226.864C121.12 235.674 118.5 244.259 111.314 251.447Z" fill="#DBE6FA"/>
<path d="M116.589 244.49C105.011 267.306 53.7007 274.684 23.9369 257.506C17.3554 253.724 12.6867 249.181 10.1985 244.276C12.6599 239.452 17.235 234.976 23.6695 231.247C34.1843 225.153 48.2171 221.799 63.2264 221.799C78.209 221.799 92.282 225.153 102.863 231.247C109.432 235.042 114.114 239.586 116.589 244.49Z" fill="#CBDBF4"/>
<path d="M366.946 109.035C366.946 121.219 346.723 131.101 321.787 131.101C296.836 131.101 276.614 121.219 276.614 109.035C276.614 96.8518 296.836 86.9698 321.787 86.9698C346.723 86.9698 366.946 96.8518 366.946 109.035Z" fill="#CBDBF4"/>
<path d="M366.572 113.022C341.904 127.347 301.772 127.347 276.93 113.022C263.753 105.418 257.533 95.3154 258.269 85.3597C258.937 76.5533 265.064 67.8805 276.636 61.1588C301.303 46.8332 341.449 46.82 366.291 61.1454C391.055 75.4138 391.323 98.6496 366.572 113.022Z" fill="#BBCFEF"/>
<path d="M384.939 85.5867C384.27 94.3931 378.157 103.093 366.572 109.814C341.904 124.14 301.772 124.127 276.93 109.801C265.171 103.026 258.951 94.2328 258.269 85.3595C258.937 76.5531 265.064 67.8803 276.636 61.1585C301.303 46.833 341.449 46.8197 366.291 61.1451C378.05 67.9204 384.257 76.7001 384.939 85.5867Z" fill="#EBF2FF"/>
<path d="M369.524 102.526C369.524 102.543 369.524 102.543 369.507 102.543C365.933 105.958 361.101 108.873 359.493 109.607L359.476 109.624C347.132 116.163 329.874 118.956 317.162 117.924C317.162 117.94 317.162 117.94 317.145 117.924C309.237 117.605 300.315 116.091 292.319 113.231C269.535 105.452 257.017 86.6382 274.514 70.8945C274.514 70.8782 274.514 70.8782 274.53 70.8782C276.704 68.9214 279.307 67.0797 281.301 65.9512C281.301 65.9512 281.301 65.9341 281.318 65.9341C302.008 53.9073 332.261 53.4414 353.157 61.7932C353.174 61.7932 353.19 61.7932 353.207 61.8094C353.341 61.8429 353.458 61.9097 353.592 61.9595H353.608C370.074 68.5775 373.935 77.584 374.339 77.9427C378.612 85.4842 377.908 94.1408 369.524 102.526Z" fill="#DBE6FA"/>
<path d="M374.799 95.5692C363.221 118.385 311.911 125.763 282.147 108.585C275.565 104.803 270.897 100.26 268.409 95.3554C270.87 90.5312 275.445 86.0546 281.88 82.3262C311.736 65.0232 363.286 72.7522 374.799 95.5692Z" fill="#CBDBF4"/>
<path d="M233.646 210.308C246.788 187.719 246.824 163.243 233.727 155.638C220.629 148.034 199.357 160.181 186.215 182.77C173.072 205.359 173.036 229.835 186.134 237.44C199.232 245.044 220.504 232.897 233.646 210.308Z" fill="white"/>
<path d="M175.52 215.907C175.457 194.384 190.662 168.08 209.411 157.271C228.481 146.264 244.256 155.178 244.322 177.15C244.385 198.673 229.18 224.977 210.431 235.786C191.225 246.878 175.586 237.738 175.52 215.907ZM224.883 154.155C220.401 154.155 215.41 155.67 210.215 158.664C191.914 169.217 177.072 194.895 177.135 215.899C177.192 236.525 191.526 244.818 209.628 234.393C227.928 223.84 242.77 198.161 242.707 177.158C242.672 164.604 236.969 154.155 224.883 154.155Z" fill="url(#paint0_linear_2050_21465)"/>
<path d="M213.567 194.614C217.404 192.401 220.556 194.166 220.569 198.6C220.581 203.005 217.449 208.423 213.613 210.636C209.749 212.864 206.623 211.055 206.61 206.651C206.598 202.217 209.704 196.842 213.567 194.614Z" fill="#044DE5"/>
<path d="M204.145 218.87L200.734 216.89C198.338 215.499 196.85 212.542 196.838 208.339C196.824 203.331 198.908 197.664 202.135 192.995C204.074 190.19 206.425 187.748 208.981 186.024C209.177 185.892 209.346 185.782 209.515 185.677L212.927 187.657C212.757 187.763 212.589 187.873 212.392 188.004C209.836 189.728 207.485 192.171 205.547 194.975C202.319 199.644 200.235 205.311 200.25 210.319C200.262 214.522 201.75 217.479 204.145 218.87Z" fill="#CBDBF4"/>
<path d="M226.929 194.932C226.953 203.386 220.998 213.69 213.607 217.952C206.268 222.185 200.274 218.773 200.25 210.319C200.236 205.311 202.32 199.644 205.547 194.975C207.485 192.171 209.836 189.728 212.392 188.004C212.589 187.873 212.758 187.763 212.927 187.657C212.955 187.639 212.985 187.621 213.013 187.603C213.182 187.499 213.351 187.396 213.52 187.298C213.689 187.201 213.857 187.109 214.024 187.02C214.06 187 214.097 186.981 214.133 186.961C214.291 186.879 214.449 186.799 214.606 186.723C214.647 186.703 214.686 186.685 214.726 186.665C214.857 186.604 214.988 186.543 215.118 186.487C215.262 186.424 215.318 186.396 215.648 186.266C215.827 186.196 215.98 186.136 216.219 186.055C216.291 186.031 216.502 185.962 216.68 185.909C216.861 185.855 217.062 185.8 217.248 185.755C217.615 185.665 217.981 185.595 218.36 185.545C219.534 185.394 226.913 189.112 226.929 194.932ZM213.612 210.636C217.449 208.423 220.581 203.005 220.569 198.6C220.556 194.166 217.404 192.402 213.567 194.614C209.704 196.842 206.598 202.217 206.61 206.651C206.623 211.055 209.749 212.864 213.612 210.636Z" fill="#EBF2FF"/>
<path d="M213.503 172.001L221.591 185.756C219.447 185.128 217.148 185.594 215.118 186.487C214.989 186.543 214.857 186.604 214.726 186.666C214.687 186.684 214.646 186.703 214.606 186.723C214.449 186.799 214.291 186.879 214.133 186.961C214.097 186.981 214.06 187 214.024 187.02C213.857 187.109 213.689 187.201 213.521 187.298C213.351 187.396 213.182 187.499 213.013 187.603C212.985 187.621 212.955 187.639 212.927 187.657C212.758 187.763 212.589 187.873 212.421 187.985C209.836 189.728 207.485 192.171 205.547 194.976L213.503 172.001Z" fill="#044DE5"/>
<path d="M205.547 194.976L202.135 192.995L210.092 170.021L213.503 172.001L205.547 194.976Z" fill="#4F88FF"/>
<path d="M371.722 71.0724L371.723 83.6772C371.722 88.943 369.246 94.2105 364.289 98.7604C346.551 115.041 308.909 116.876 286.722 104.162C278.803 99.624 271.836 92.7124 271.838 83.682L271.836 71.0772C271.835 80.1179 278.817 87.0277 286.721 91.5572C308.908 104.271 346.55 102.437 364.287 86.1556C369.245 81.6057 371.721 76.3383 371.722 71.0724Z" fill="#FFCA6C"/>
<path d="M364.287 86.1557C347.233 101.81 311.784 104.101 289.357 92.9534L289.397 105.577C311.825 116.703 347.244 114.406 364.289 98.7605C369.246 94.2105 371.722 88.9431 371.723 83.6773L371.722 71.0724C371.721 76.3382 369.245 81.6057 364.287 86.1557Z" fill="#FFB63C"/>
<path d="M356.829 50.5933C374.641 60.7995 375.64 75.7374 364.287 86.1557C346.55 102.437 308.908 104.271 286.721 91.5573C268.966 81.383 267.889 66.4528 279.262 55.9975C296.997 39.7186 334.638 37.878 356.829 50.5933Z" fill="#FFDE9B"/>
<path d="M353.289 84.144C337.93 96.366 306.68 96.8126 290.484 84.3237C280.691 76.6998 280.531 65.7577 290.266 58.0212C305.924 45.561 337.422 45.571 353.071 57.8415C362.767 65.3825 363.112 76.3038 353.289 84.144Z" fill="#FFB63C"/>
<path d="M360.364 72.9519C359.815 76.9293 357.441 80.8298 353.289 84.144C331.831 101.22 286.157 93.3196 283.201 73.0412C286.018 52.6172 331.599 44.8247 353.081 61.6695C357.35 64.9924 359.778 68.9285 360.364 72.9519Z" fill="#FFCA6C"/>
<path d="M371.722 49.946L371.723 62.5508C371.722 67.8167 369.246 73.0841 364.289 77.6341C346.551 93.9151 308.909 95.7494 286.722 83.0357C278.803 78.4977 271.836 71.5861 271.838 62.5557L271.836 49.9509C271.835 58.9916 278.817 65.9015 286.721 70.4308C308.908 83.1446 346.55 81.3103 364.287 65.0293C369.245 60.4794 371.721 55.212 371.722 49.946Z" fill="#FFCA6C"/>
<path d="M364.287 65.0291C347.233 80.6834 311.784 82.9742 289.357 71.8268L289.397 84.4499C311.825 95.576 347.244 93.2794 364.289 77.6339C369.246 73.084 371.722 67.8165 371.723 62.5507L371.722 49.9458C371.721 55.2117 369.245 60.4792 364.287 65.0291Z" fill="#FFB63C"/>
<path d="M356.829 29.4668C374.641 39.673 375.64 54.6109 364.287 65.0292C346.55 81.3102 308.908 83.1445 286.721 70.4308C268.966 60.2565 267.889 45.3262 279.262 34.871C296.997 18.5922 334.638 16.7516 356.829 29.4668Z" fill="#FFDE9B"/>
<path d="M360.364 51.8254C357.766 70.6603 317.945 79.3101 294.504 65.8801C280.367 57.8178 279.746 45.2557 290.265 36.8946C304.625 25.4681 332.415 24.4851 349.034 34.0157C355.899 37.9316 361.474 44.0868 360.364 51.8254Z" fill="#FFB63C"/>
<path d="M360.364 51.8253C359.815 55.8028 357.441 59.7033 353.289 63.0174C331.982 79.9725 286.174 72.3113 283.201 51.9147C285.787 33.1717 325.57 24.3818 349.045 37.8436C354.522 40.9675 359.462 45.6392 360.364 51.8253Z" fill="#FFCA6C"/>
<path d="M371.722 28.8196L371.723 41.4244C371.722 46.6902 369.246 51.9576 364.289 56.5076C346.551 72.7887 308.909 74.6229 286.722 61.9092C278.803 57.3712 271.836 50.4596 271.838 41.4292L271.836 28.8244C271.835 37.8651 278.817 44.775 286.721 49.3044C308.908 62.0181 346.55 60.1839 364.287 43.9028C369.245 39.3528 371.721 34.0854 371.722 28.8196Z" fill="#FFCA6C"/>
<path d="M364.287 43.9029C347.233 59.5572 311.784 61.848 289.357 50.7006L289.397 63.3237C311.825 74.4498 347.244 72.1532 364.289 56.5077C369.246 51.9577 371.722 46.6903 371.723 41.4245L371.722 28.8196C371.721 34.0855 369.245 39.3529 364.287 43.9029Z" fill="#FFB63C"/>
<path d="M356.829 8.34038C374.641 18.5466 375.64 33.4845 364.288 43.9028C344.485 62.0796 299.708 62.2887 279.515 44.1457C269.371 35.0178 269.27 22.9301 279.262 13.7446C296.998 -2.53428 334.639 -4.37488 356.829 8.34038Z" fill="#FFDE9B"/>
<path d="M353.289 41.8912C337.93 54.1132 306.68 54.5599 290.484 42.0709C280.691 34.4471 280.531 23.505 290.265 15.7684C304.625 4.34191 332.415 3.35887 349.034 12.8895C363.216 20.9787 363.785 33.5128 353.289 41.8912Z" fill="#FFB63C"/>
<path d="M360.364 30.6991C359.815 34.6766 357.441 38.577 353.289 41.8912C331.831 58.9669 286.157 51.0668 283.201 30.7885C285.787 12.0454 325.57 3.25555 349.045 16.7174C354.522 19.8413 359.462 24.5129 360.364 30.6991Z" fill="#FFCA6C"/>
<path d="M324.536 24.252L324.532 25.9127L320.466 29.8259L320.47 28.1652L324.536 24.252Z" fill="#FFB63C"/>
<path d="M309.722 33.0696L309.717 34.7303L297.191 23.6559L297.196 21.9951L309.722 33.0696Z" fill="#FFA20D"/>
<path d="M312.612 35.6013L312.607 37.2621L309.66 40.0615L309.664 38.4006L312.612 35.6013Z" fill="#FFB63C"/>
<path d="M309.664 38.4007L309.66 40.0615L306.236 38.0868L306.24 36.426L309.664 38.4007Z" fill="#FFA20D"/>
<path d="M322.561 44.2959L322.557 45.9567L312.607 37.2621L312.612 35.6013L322.561 44.2959Z" fill="#FFA20D"/>
<path d="M346.373 30.4727L346.368 32.1335L322.557 45.9568L322.561 44.2961L346.373 30.4727Z" fill="#FFB63C"/>
<path d="M341.197 25.8577L346.374 30.4726L322.562 44.2961L312.612 35.6014L309.665 38.4007L306.241 36.4261L309.722 33.0696L297.196 21.9951L306.965 16.324L317.581 25.6335L321.1 22.27L324.537 24.252L320.471 28.1652L327.067 34.0605L341.197 25.8577Z" fill="#FFDE9B"/>
<path d="M109.31 218.453C109.927 222.377 110.544 226.3 111.161 230.224C92.3106 244.213 70.9322 256.389 47.3584 266.04C47.5726 262.074 47.7865 258.108 48.0001 254.142C70.7422 244.447 91.2851 232.312 109.31 218.453Z" fill="#EBF2FF"/>
<path d="M105.329 221.455C93.0524 230.537 79.6654 238.826 65.2588 246.112C65.2666 250.081 65.2744 254.05 65.2821 258.019C80.244 250.732 94.1862 242.403 107.014 233.242C106.452 229.313 105.891 225.384 105.329 221.455Z" fill="#044DE5"/>
<path d="M86.3535 234.296C79.5915 238.474 72.5558 242.422 65.2588 246.112C65.2666 250.081 65.2744 254.05 65.2821 258.019C72.8602 254.328 80.1772 250.37 87.2197 246.171C86.9311 242.213 86.642 238.255 86.3535 234.296Z" fill="#4F88FF"/>
<path d="M48.0003 254.142C47.7866 258.108 47.5727 262.074 47.3586 266.04C36.158 260.053 25.5454 253.496 15.5601 246.456C16.1876 242.534 16.8147 238.612 17.4415 234.69C27.0153 241.664 37.2142 248.177 48.0003 254.142Z" fill="#BBCFEF"/>
<path d="M109.31 218.453C91.2853 232.312 70.7424 244.446 48.0003 254.142C37.2144 248.177 27.0159 241.664 17.4417 234.69C40.0142 227.253 60.5749 217.257 78.767 205.417C88.4185 210.311 98.6152 214.685 109.31 218.453Z" fill="#EBF2FF"/>
<path d="M51.157 250.13C50.7021 250.07 50.2147 249.896 49.7093 249.616C47.1108 248.17 50.9951 247.37 52.6471 249.159C53.2763 249.849 52.0245 250.252 51.157 250.13ZM51.2109 249.895C51.706 249.984 52.5267 249.802 52.3186 249.4C52.117 248.997 50.9212 248.445 50.4238 248.36C49.9398 248.272 49.1236 248.447 49.3164 248.848C49.5056 249.253 50.6973 249.803 51.2109 249.895Z" fill="#FF6161"/>
<path d="M58.1158 247.154C57.9987 247.585 56.7687 248.132 55.0473 247.209C54.2278 246.77 53.7479 246.258 54.5841 245.87C55.9527 245.233 58.3012 246.534 58.1158 247.154ZM56.5359 247.465C57.0408 247.542 57.8433 247.345 57.6304 246.949C57.4071 246.545 55.7733 245.622 54.8883 246.034C53.9136 246.489 55.9107 247.358 56.5359 247.465Z" fill="#FF6161"/>
<path d="M83.6016 212.327C82.3339 213.159 81.0552 213.982 79.7655 214.797C74.7414 217.976 69.5491 221.018 64.1951 223.911C61.2038 222.293 58.2631 220.628 55.3738 218.919C62.1004 215.493 68.5768 211.827 74.7903 207.948C77.6788 209.454 80.6161 210.915 83.6016 212.327Z" fill="#39C988"/>
<g opacity="0.502">
<path d="M83.0045 233.164C84.0126 233.612 85.0254 234.055 86.0427 234.493C79.3627 238.608 72.4164 242.498 65.2159 246.138C54.4189 240.765 44.1864 234.827 34.5579 228.414C41.7334 225.506 48.6746 222.335 55.3676 218.926C58.2551 220.634 61.1939 222.297 64.1833 223.914C69.5411 221.02 74.7366 217.977 79.764 214.798C85.8251 217.746 92.0862 220.496 98.5368 223.029C93.5325 226.542 88.3531 229.925 83.0045 233.164Z" fill="#B5B7FD"/>
</g>
<path d="M105.372 221.423C99.2063 225.986 92.7611 230.349 86.0466 234.485C85.0323 234.049 84.0223 233.607 83.0171 233.161C89.1141 229.469 94.9913 225.589 100.64 221.542C102.216 221.515 103.793 221.476 105.372 221.423Z" fill="#3070F6"/>
<path d="M53.8327 248.927C53.1281 248.837 51.3048 248.071 51.5113 247.448C51.5606 247.311 51.6991 247.186 51.9372 247.08C53.0766 246.567 54.7586 247.352 55.313 247.941C55.9343 248.64 54.6875 249.037 53.8327 248.927ZM53.8842 248.691C54.3869 248.773 55.1992 248.583 54.9878 248.185C54.7725 247.783 53.5789 247.242 53.0924 247.161C52.6154 247.078 51.8053 247.254 51.9892 247.66C52.2072 248.082 53.3805 248.603 53.8842 248.691Z" fill="#FF6161"/>
<path d="M50.2233 250.473C50.5166 251.06 49.201 251.393 48.479 251.4C48.4276 251.395 48.3762 251.391 48.3249 251.387C48.2909 251.37 48.2565 251.352 48.2224 251.334C48.2128 251.312 48.2034 251.29 48.1937 251.268C48.2111 251.249 48.2288 251.23 48.2463 251.21C48.2952 251.201 48.3443 251.191 48.3933 251.182C49.3003 251.157 50.2739 250.747 49.4947 250.308C49.113 250.098 48.5887 250.037 48.1504 250.225C48.0196 250.28 47.9231 250.345 47.86 250.416C47.7975 250.491 47.7709 250.571 47.7849 250.668C47.7793 250.689 47.7738 250.71 47.7681 250.732C47.7432 250.75 47.718 250.768 47.6928 250.786C47.5975 250.827 47.4823 250.829 47.3796 250.771C46.8808 250.491 46.3834 250.209 45.8871 249.927C45.781 249.868 45.7771 249.811 45.8959 249.761C46.4064 249.545 46.9158 249.328 47.424 249.108C47.6552 249.005 47.9699 249.173 47.7235 249.277C47.2786 249.469 46.8326 249.661 46.3855 249.851C46.747 250.056 47.109 250.26 47.4715 250.464C47.4708 250.401 47.4946 250.339 47.5441 250.28C47.6167 250.183 47.7387 250.101 47.91 250.026C48.3217 249.847 48.7943 249.821 49.221 249.909C49.5363 249.97 50.0824 250.185 50.2233 250.473Z" fill="#FF6161"/>
<path d="M76.8337 239.923C77.0102 243.879 77.1869 247.836 77.3649 251.792C77.6066 251.661 77.8482 251.53 78.0892 251.399C77.9022 247.443 77.7157 243.486 77.5302 239.531C77.2985 239.661 77.0663 239.792 76.8337 239.923Z" fill="#E22525"/>
<path d="M83.2297 236.222C83.4919 240.174 83.7553 244.125 84.019 248.077C84.2531 247.942 84.4872 247.807 84.7209 247.672C84.4479 243.721 84.1758 239.77 83.9042 235.819C83.6796 235.953 83.4548 236.088 83.2297 236.222Z" fill="#E22525"/>
<path d="M77.5303 239.53C77.7158 243.486 77.9023 247.443 78.0892 251.399C80.0859 250.31 82.0628 249.203 84.019 248.077C83.7555 244.125 83.492 240.174 83.2297 236.222C81.3501 237.343 79.4503 238.446 77.5303 239.53Z" fill="#E22525"/>
<path d="M46.2539 223.348C55.8843 229.397 66.0588 234.932 76.8302 239.923C77.0699 239.789 77.3094 239.654 77.5481 239.519C66.7779 234.553 56.6028 229.043 46.9712 223.018C46.7327 223.129 46.4932 223.239 46.2539 223.348Z" fill="#FF6161"/>
<path d="M52.6226 220.327C62.2622 226.16 72.4381 231.474 83.2012 236.238C83.4335 236.099 83.665 235.961 83.8962 235.822C73.1343 231.083 62.9581 225.794 53.3179 219.984C53.0863 220.099 52.8545 220.213 52.6226 220.327Z" fill="#FF6161"/>
<path d="M46.9712 223.018C56.6028 229.043 66.7779 234.553 77.5482 239.519C79.4526 238.443 81.337 237.349 83.2013 236.238C72.4383 231.474 62.262 226.16 52.6226 220.327C50.7571 221.242 48.8734 222.14 46.9712 223.018Z" fill="#FF6161"/>
<path d="M109.31 203.542C109.927 207.466 110.544 211.389 111.161 215.313C92.3106 229.302 70.9322 241.479 47.3584 251.129C47.5726 247.163 47.7865 243.197 48.0001 239.231C70.7422 229.536 91.2851 217.401 109.31 203.542Z" fill="#DBE6FA"/>
<path d="M105.329 206.544C93.0524 215.626 79.6654 223.916 65.2588 231.201C65.2666 235.17 65.2744 239.139 65.2821 243.108C80.244 235.821 94.1862 227.492 107.014 218.332C106.452 214.403 105.891 210.473 105.329 206.544Z" fill="#044DE5"/>
<path d="M86.3535 219.385C79.5915 223.563 72.5558 227.511 65.2588 231.201C65.2666 235.17 65.2744 239.139 65.2821 243.108C72.8602 239.417 80.1772 235.459 87.2197 231.261C86.9311 227.302 86.642 223.344 86.3535 219.385Z" fill="#4F88FF"/>
<path d="M48.0003 239.231C47.7866 243.197 47.5727 247.163 47.3586 251.129C36.158 245.142 25.5454 238.585 15.5601 231.546C16.1876 227.624 16.8147 223.702 17.4415 219.78C27.0153 226.754 37.2142 233.267 48.0003 239.231Z" fill="#BBCFEF"/>
<path d="M109.31 203.542C91.2853 217.401 70.7424 229.536 48.0003 239.231C37.2144 233.267 27.0159 226.754 17.4417 219.78C40.0142 212.343 60.5749 202.347 78.767 190.506C88.4185 195.4 98.6152 199.775 109.31 203.542Z" fill="#EBF2FF"/>
<path d="M51.1571 235.22C50.29 235.104 49.3042 234.539 48.9854 234.175C48.8382 234.01 48.7915 233.86 48.8382 233.721C48.993 233.303 49.8736 233.128 50.4827 233.212C51.3543 233.339 52.3115 233.885 52.6472 234.249C53.2764 234.938 52.0246 235.342 51.1571 235.22ZM51.211 234.984C51.7061 235.073 52.5268 234.891 52.3186 234.49C52.1171 234.087 50.9212 233.535 50.4239 233.449C49.9399 233.362 49.1237 233.537 49.3165 233.937C49.5057 234.342 50.6973 234.892 51.211 234.984Z" fill="#FF6161"/>
<path d="M56.4864 232.79C55.6494 232.692 54.6612 232.15 54.3163 231.782C54.1685 231.62 54.1177 231.47 54.1629 231.331C54.3078 230.915 55.1723 230.717 55.785 230.794C56.6254 230.898 57.6184 231.439 57.9522 231.792C58.5842 232.459 57.3789 232.897 56.4864 232.79ZM56.5359 232.554C57.0408 232.631 57.8433 232.434 57.6304 232.038C57.4078 231.635 56.217 231.108 55.735 231.03C55.2562 230.951 54.452 231.136 54.6407 231.539C54.8498 231.947 56.042 232.47 56.5359 232.554Z" fill="#FF6161"/>
<path d="M83.6016 197.416C82.3339 198.249 81.0552 199.072 79.7655 199.886C74.7414 203.065 69.5491 206.107 64.1951 209C61.2038 207.382 58.2631 205.718 55.3738 204.009C62.1004 200.583 68.5768 196.916 74.7903 193.037C77.6788 194.544 80.6161 196.004 83.6016 197.416Z" fill="#39C988"/>
<g opacity="0.502">
<path d="M83.0045 218.253C84.0126 218.701 85.0254 219.144 86.0427 219.582C79.3627 223.697 72.4164 227.587 65.2159 231.227C54.4189 225.854 44.1864 219.916 34.5579 213.503C41.7334 210.596 48.6746 207.424 55.3676 204.016C58.2551 205.723 61.1939 207.386 64.1833 209.003C69.5411 206.109 74.7366 203.066 79.764 199.887C85.8251 202.835 92.0862 205.585 98.5368 208.118C93.5325 211.632 88.3531 215.015 83.0045 218.253Z" fill="#B5B7FD"/>
</g>
<path d="M105.372 206.513C99.2063 211.076 92.7611 215.439 86.0466 219.575C85.0323 219.139 84.0223 218.697 83.0171 218.25C89.1141 214.558 94.9913 210.678 100.64 206.631C102.216 206.605 103.793 206.566 105.372 206.513Z" fill="#3070F6"/>
<path d="M53.8326 234.016C52.9883 233.909 52.0014 233.359 51.6617 232.989C51.5144 232.826 51.4653 232.675 51.5112 232.537C51.6615 232.122 52.5305 231.933 53.1445 232.014C53.9841 232.124 54.9746 232.671 55.3129 233.031C55.9342 233.73 54.6874 234.126 53.8326 234.016ZM53.8841 233.781C54.3868 233.863 55.1991 233.672 54.9877 233.274C54.7725 232.873 53.5788 232.332 53.0923 232.25C52.6153 232.168 51.8052 232.344 51.9891 232.75C52.2071 233.171 53.3805 233.692 53.8841 233.781Z" fill="#FF6161"/>
<path d="M49.7556 236.233C49.3582 236.409 48.9155 236.485 48.4791 236.489C48.4278 236.485 48.3763 236.481 48.325 236.476C48.2911 236.459 48.2566 236.442 48.2226 236.424C48.213 236.402 48.2035 236.38 48.1938 236.357C48.2113 236.338 48.2289 236.319 48.2465 236.3C48.2954 236.29 48.3444 236.281 48.3934 236.271C48.7639 236.261 49.1063 236.204 49.4353 236.061C50.1985 235.729 49.5207 235.258 48.8363 235.206C48.4306 235.174 47.727 235.355 47.7851 235.757C47.7796 235.778 47.774 235.8 47.7684 235.821C47.7434 235.839 47.7182 235.857 47.6931 235.875C47.5977 235.916 47.4826 235.918 47.3799 235.861C46.8811 235.58 46.3836 235.299 45.8873 235.016C45.7812 234.957 45.7773 234.9 45.8961 234.851C46.4066 234.634 46.9161 234.417 47.4242 234.198C47.6555 234.095 47.9701 234.262 47.7238 234.367C47.2788 234.559 46.8328 234.75 46.3858 234.94C46.7472 235.145 47.1092 235.35 47.4717 235.553C47.471 235.49 47.4948 235.429 47.5444 235.369C47.7382 235.111 48.4394 234.837 49.2213 234.998C50.1694 235.182 50.7246 235.814 49.7556 236.233Z" fill="#FF6161"/>
<path d="M76.8337 225.012C77.0102 228.969 77.1869 232.925 77.3649 236.882C77.6066 236.751 77.8482 236.62 78.0892 236.488C77.9022 232.532 77.7157 228.576 77.5302 224.62C77.2985 224.751 77.0663 224.882 76.8337 225.012Z" fill="#E22525"/>
<path d="M83.2297 221.311C83.4919 225.263 83.7553 229.215 84.019 233.167C84.2531 233.032 84.4872 232.897 84.7209 232.761C84.4479 228.81 84.1758 224.859 83.9042 220.908C83.6796 221.043 83.4548 221.177 83.2297 221.311Z" fill="#E22525"/>
<path d="M77.5303 224.62C77.7158 228.576 77.9023 232.532 78.0892 236.488C80.0859 235.4 82.0628 234.292 84.019 233.167C83.7555 229.215 83.492 225.263 83.2297 221.311C81.3501 222.432 79.4503 223.535 77.5303 224.62Z" fill="#E22525"/>
<path d="M46.2539 208.438C55.8843 214.486 66.0588 220.022 76.8302 225.013C77.0699 224.878 77.3094 224.744 77.5481 224.609C66.7779 219.643 56.6028 214.132 46.9712 208.108C46.7327 208.218 46.4932 208.328 46.2539 208.438Z" fill="#FF6161"/>
<path d="M52.6226 205.416C62.2622 211.249 72.4381 216.563 83.2012 221.327C83.4335 221.189 83.665 221.05 83.8962 220.911C73.1343 216.173 62.9581 210.883 53.3179 205.073C53.0863 205.188 52.8545 205.302 52.6226 205.416Z" fill="#FF6161"/>
<path d="M46.9712 208.108C56.6028 214.132 66.7779 219.643 77.5482 224.609C79.4526 223.532 81.337 222.439 83.2013 221.327C72.4383 216.563 62.262 211.25 52.6226 205.416C50.7571 206.332 48.8734 207.229 46.9712 208.108Z" fill="#FF6161"/>
<path d="M109.31 188.632C109.927 192.555 110.544 196.479 111.161 200.403C92.3106 214.391 70.9322 226.568 47.3584 236.219C47.5726 232.253 47.7865 228.287 48.0001 224.321C70.7422 214.625 91.2851 202.491 109.31 188.632Z" fill="#DBE6FA"/>
<path d="M105.329 191.634C93.0524 200.715 79.6654 209.005 65.2588 216.291C65.2666 220.26 65.2744 224.229 65.2821 228.198C80.244 220.911 94.1862 212.582 107.014 203.421C106.452 199.492 105.891 195.563 105.329 191.634Z" fill="#044DE5"/>
<path d="M86.3535 204.475C79.5915 208.653 72.5558 212.601 65.2588 216.291C65.2666 220.26 65.2744 224.229 65.2821 228.198C72.8602 224.507 80.1772 220.549 87.2197 216.35C86.9311 212.392 86.642 208.434 86.3535 204.475Z" fill="#4F88FF"/>
<path d="M48.0003 224.321C47.7866 228.287 47.5727 232.253 47.3586 236.219C36.158 230.232 25.5454 223.675 15.5601 216.635C16.1876 212.713 16.8147 208.791 17.4415 204.869C27.0153 211.843 37.2142 218.356 48.0003 224.321Z" fill="#BBCFEF"/>
<path d="M109.31 188.632C91.2853 202.491 70.7424 214.625 48.0003 224.321C37.2144 218.356 27.0159 211.843 17.4417 204.869C40.0142 197.432 60.5749 187.436 78.767 175.596C88.4185 180.49 98.6152 184.864 109.31 188.632Z" fill="#EBF2FF"/>
<path d="M51.1568 220.309C50.7018 220.248 50.2144 220.075 49.7091 219.795C47.1106 218.349 50.9948 217.549 52.6469 219.338C53.2761 220.028 52.0243 220.431 51.1568 220.309ZM51.2107 220.074C51.7058 220.163 52.5265 219.981 52.3183 219.579C52.2336 219.41 51.9774 219.212 51.5486 218.976C49.9425 218.093 49.1537 218.689 49.3163 219.027C49.5054 219.432 50.697 219.981 51.2107 220.074Z" fill="#FF6161"/>
<path d="M58.1158 217.333C57.9987 217.764 56.7687 218.311 55.0473 217.388C54.2278 216.949 53.7479 216.437 54.5841 216.049C55.7113 215.524 57.4207 216.32 57.9523 216.882C58.1027 217.04 58.1581 217.192 58.1158 217.333ZM56.5359 217.643C56.8621 217.693 57.147 217.663 57.3904 217.548C58.3431 217.102 56.3488 216.219 55.735 216.12C55.2562 216.041 54.452 216.226 54.6407 216.629C54.7251 216.793 54.9803 216.989 55.4057 217.217C55.8351 217.447 56.2096 217.588 56.5359 217.643Z" fill="#FF6161"/>
<path d="M83.6014 182.506C82.3336 183.338 81.055 184.161 79.7653 184.976C74.7412 188.155 69.5489 191.197 64.1949 194.09C61.2035 192.471 58.2628 190.807 55.3735 189.098C62.1001 185.672 68.5765 182.006 74.7901 178.127C77.6786 179.633 80.6158 181.094 83.6014 182.506Z" fill="#044DE5"/>
<path d="M67.1425 188.973C67.5496 189.771 65.9194 190.368 64.9697 190.423C64.5866 190.467 64.4298 190.168 64.8451 190.118C65.3596 190.077 66.2968 189.846 66.5372 189.422C66.8015 188.939 65.8904 188.582 65.339 188.571C64.7743 188.558 63.959 188.877 64.0288 189.434C64.0249 189.464 64.0206 189.495 64.0167 189.526C64.0008 189.558 63.9728 189.586 63.9273 189.611C63.8036 189.678 63.6546 189.684 63.5235 189.612C62.8671 189.249 62.213 188.884 61.5617 188.517C61.4263 188.438 61.4228 188.36 61.5669 188.282C62.2067 187.937 62.8438 187.59 63.4785 187.241C63.6103 187.168 63.749 187.157 63.8833 187.233C64.018 187.308 64.0017 187.387 63.8677 187.457C63.3122 187.763 62.7554 188.068 62.1965 188.371C62.6707 188.637 63.1469 188.902 63.6236 189.166C63.5984 188.671 64.4482 188.313 64.9586 188.238C65.7698 188.115 66.8307 188.423 67.1425 188.973Z" fill="white"/>
<path d="M54.8752 204.67C54.8603 204.96 54.8453 205.25 54.8303 205.54C55.2829 205.722 55.7363 205.904 56.1906 206.084C55.6547 206.155 55.1181 206.224 54.5812 206.292C54.4065 206.564 54.2313 206.836 54.0556 207.108C53.7385 206.859 53.4226 206.61 53.1077 206.36C52.547 206.342 51.9862 206.323 51.4253 206.302C51.7684 206.084 52.1108 205.865 52.4524 205.646C52.2838 205.364 52.1153 205.082 51.9477 204.799C52.4704 204.915 52.9938 205.029 53.5177 205.142C53.9711 204.986 54.4235 204.828 54.8752 204.67Z" fill="#FFDE9B"/>
<path d="M76.0133 183.98C75.2632 184.443 74.2556 184.085 73.4696 183.677C72.6871 183.271 71.9709 182.747 72.729 182.29C73.4922 181.83 74.4553 182.185 75.2505 182.59C76.0435 182.996 76.775 183.51 76.0133 183.98Z" fill="#6257FF"/>
<path d="M76.4199 184.185C75.3957 184.818 74.0996 184.507 73.0273 183.949C71.9655 183.394 71.2984 182.706 72.3317 182.082C73.3635 181.459 74.6065 181.768 75.6886 182.32C76.7676 182.87 77.4487 183.547 76.4199 184.185ZM74.94 184.183C75.3546 184.233 75.718 184.161 76.0132 183.98C76.7747 183.511 76.0448 182.997 75.2504 182.59C74.4603 182.186 73.4901 181.828 72.7289 182.29C71.9708 182.747 72.6872 183.272 73.4695 183.677C74.0288 183.967 74.521 184.137 74.94 184.183Z" fill="white"/>
<path d="M72.7531 185.956C71.9931 186.414 70.9774 186.037 70.1964 185.625C69.4124 185.21 68.7009 184.678 69.4675 184.228C70.2446 183.777 71.2095 184.143 72.0022 184.558C72.7965 184.973 73.5236 185.499 72.7531 185.956Z" fill="#6257FF"/>
<path d="M73.1601 186.166C72.1247 186.786 70.823 186.463 69.7479 185.891C68.6837 185.327 68.0266 184.625 69.0704 184.016C70.1235 183.403 71.3662 183.73 72.4466 184.293C73.5224 184.852 74.2042 185.542 73.1601 186.166ZM71.6702 186.147C72.0872 186.201 72.4527 186.135 72.7532 185.957C73.5258 185.497 72.795 184.973 72.0022 184.559C71.2062 184.141 70.2406 183.778 69.4676 184.229C68.7024 184.677 69.409 185.207 70.1965 185.625C70.7568 185.92 71.2487 186.095 71.6702 186.147Z" fill="white"/>
<path d="M69.8542 188.11C68.7943 188.721 67.4903 188.372 66.4231 187.794C65.3533 187.212 64.7063 186.504 65.7637 185.91C66.8277 185.311 68.0769 185.651 69.1588 186.228C69.6041 186.466 69.9284 186.694 70.1323 186.912C70.5704 187.388 70.4076 187.79 69.8542 188.11ZM68.3551 188.073C68.7734 188.133 69.144 188.07 69.4473 187.895C70.2275 187.442 69.5052 186.913 68.7083 186.488C67.9162 186.065 66.9455 185.683 66.1609 186.128C65.3828 186.568 66.0954 187.11 66.8778 187.533C67.4379 187.837 67.932 188.015 68.3551 188.073Z" fill="white"/>
<path d="M69.4473 187.895C68.6771 188.341 67.663 187.958 66.8778 187.533C66.0948 187.109 65.3832 186.567 66.1609 186.128C66.9462 185.685 67.9134 186.065 68.7083 186.488C69.5025 186.912 70.2297 187.443 69.4473 187.895Z" fill="#6257FF"/>
<path d="M51.9593 195.793C51.9413 196.083 51.9233 196.373 51.9054 196.663C52.3413 196.851 52.7779 197.037 53.2152 197.222C52.694 197.288 52.1722 197.352 51.6501 197.415C51.4786 197.684 51.3067 197.954 51.1342 198.223C50.8282 197.972 50.523 197.72 50.2188 197.468C49.6743 197.445 49.1304 197.42 48.5859 197.394C48.9233 197.18 49.2598 196.966 49.5955 196.75C49.4337 196.466 49.2723 196.181 49.1117 195.897C49.6206 196.017 50.1301 196.137 50.64 196.255C51.0805 196.102 51.5204 195.948 51.9593 195.793Z" fill="#FFDE9B"/>
<path d="M72.2246 206.675C72.2264 206.965 72.2286 207.256 72.2304 207.547C72.6943 207.703 73.159 207.859 73.6245 208.013C73.09 208.114 72.5549 208.215 72.0193 208.314C71.8611 208.595 71.7022 208.876 71.5431 209.156C71.209 208.927 70.8756 208.698 70.5428 208.467C69.9786 208.482 69.414 208.495 68.8494 208.507C69.1829 208.27 69.5157 208.032 69.8475 207.794C69.66 207.522 69.4732 207.249 69.2865 206.977C69.8214 207.062 70.3568 207.146 70.8926 207.228C71.3375 207.044 71.7814 206.86 72.2246 206.675Z" fill="#FFDE9B"/>
<path d="M63.1819 206.823C63.1748 207.113 63.1683 207.404 63.1613 207.694C63.6219 207.864 64.0832 208.032 64.5452 208.2C64.0078 208.286 63.4701 208.37 62.9317 208.453C62.7636 208.73 62.5949 209.006 62.4259 209.283C62.1002 209.043 61.7752 208.802 61.4511 208.561C60.8866 208.56 60.3218 208.556 59.7568 208.55C60.0974 208.323 60.4373 208.096 60.7761 207.868C60.5968 207.59 60.418 207.312 60.2401 207.034C60.7706 207.135 61.3018 207.236 61.8337 207.335C62.2837 207.165 62.7332 206.995 63.1819 206.823Z" fill="#FFDE9B"/>
<g opacity="0.502">
<path d="M83.0042 203.343C84.0124 203.791 85.0251 204.234 86.0425 204.671C79.3625 208.786 72.4162 212.677 65.2157 216.317C54.4187 210.943 44.1862 205.006 34.5576 198.592C41.7331 195.685 48.6743 192.514 55.3673 189.105C58.2548 190.813 61.1936 192.476 64.1831 194.093C69.5409 191.199 74.7364 188.156 79.7638 184.976C85.8248 187.924 92.0859 190.675 98.5366 193.208C93.5323 196.721 88.3529 200.104 83.0042 203.343ZM51.1341 198.223C51.3064 197.954 51.4784 197.684 51.65 197.415C52.1721 197.352 52.6936 197.288 53.2151 197.222C52.7776 197.037 52.3412 196.851 51.9054 196.663C51.9231 196.373 51.9414 196.083 51.9593 195.793C51.5203 195.948 51.0804 196.102 50.6399 196.255C50.1299 196.137 49.6203 196.017 49.1115 195.897C49.2724 196.181 49.4337 196.465 49.5954 196.75C49.2595 196.966 48.923 197.18 48.5858 197.394C49.13 197.42 49.674 197.445 50.2186 197.468C50.5229 197.72 50.8281 197.972 51.1341 198.223C51.1343 198.223 51.1343 198.223 51.1341 198.223ZM71.543 209.156C71.702 208.876 71.8611 208.595 72.0192 208.314C72.5547 208.215 73.0899 208.114 73.6244 208.013C73.159 207.859 72.6942 207.703 72.2302 207.547C72.2284 207.256 72.2262 206.965 72.2244 206.675C71.7815 206.86 71.3374 207.045 70.8923 207.228C70.3565 207.146 69.8211 207.062 69.2862 206.977C69.4728 207.249 69.6599 207.522 69.8473 207.794C69.5153 208.032 69.1826 208.27 68.8491 208.507C69.4136 208.495 69.9781 208.482 70.5426 208.467C70.8756 208.698 71.2088 208.928 71.543 209.156ZM54.0554 207.108C54.2313 206.836 54.4062 206.564 54.5809 206.292C55.1179 206.224 55.6545 206.154 56.1903 206.084C55.736 205.904 55.2825 205.722 54.83 205.54C54.845 205.25 54.8601 204.96 54.8749 204.67C54.4232 204.828 53.9708 204.986 53.5174 205.142C52.9936 205.03 52.4701 204.915 51.9474 204.799C52.115 205.081 52.2833 205.364 52.4522 205.646C52.1107 205.865 51.7684 206.084 51.425 206.302C51.9857 206.323 52.5464 206.342 53.1074 206.36C53.4224 206.61 53.7384 206.859 54.0554 207.108ZM67.5189 200.265C67.6768 199.986 67.8342 199.708 67.9913 199.429C68.5135 199.336 69.0353 199.242 69.5564 199.147C69.1048 198.987 68.6547 198.827 68.2053 198.665C68.2069 198.374 68.2087 198.084 68.2105 197.793C67.777 197.972 67.3427 198.149 66.9073 198.326C66.39 198.237 65.8732 198.147 65.3567 198.056C65.5342 198.329 65.7122 198.603 65.8906 198.876C65.567 199.111 65.2427 199.345 64.9177 199.578C65.4656 199.574 66.0135 199.568 66.5611 199.561C66.8797 199.796 67.1989 200.031 67.5189 200.265ZM71.4171 204.529C71.5738 204.249 71.7299 203.968 71.8859 203.687C72.4148 203.587 72.9428 203.486 73.4705 203.384C73.0106 203.23 72.5517 203.076 72.0935 202.92C72.0915 202.629 72.0897 202.338 72.0875 202.048C71.6511 202.233 71.214 202.417 70.7762 202.6C70.2485 202.518 69.7216 202.434 69.1947 202.349C69.3797 202.621 69.5658 202.892 69.7515 203.164C69.4247 203.402 69.0971 203.64 68.7688 203.876C69.3248 203.865 69.8803 203.852 70.4364 203.837C70.7623 204.068 71.0896 204.299 71.4171 204.529ZM62.4257 209.283C62.5948 209.006 62.7634 208.73 62.9316 208.453C63.47 208.37 64.0076 208.286 64.545 208.2C64.0831 208.032 63.6219 207.864 63.1611 207.694C63.1682 207.404 63.1748 207.113 63.1817 206.823C62.7332 206.995 62.2838 207.165 61.8334 207.335C61.3017 207.236 60.7703 207.136 60.2398 207.034C60.418 207.312 60.5967 207.59 60.7759 207.868C60.4371 208.096 60.0972 208.323 59.7566 208.55C60.3215 208.556 60.8861 208.559 61.4509 208.561C61.7751 208.802 62.1001 209.043 62.4257 209.283ZM59.3605 198.233C59.5249 197.958 59.689 197.685 59.8527 197.41C60.3737 197.332 60.8942 197.252 61.4144 197.172C60.9708 196.999 60.5281 196.826 60.0866 196.652C60.0976 196.362 60.1087 196.072 60.12 195.783C59.6845 195.949 59.2485 196.115 58.8115 196.279C58.3004 196.177 57.7897 196.072 57.2795 195.966C57.4482 196.245 57.6171 196.524 57.7866 196.801C57.459 197.027 57.1304 197.252 56.801 197.476C57.3436 197.486 57.8863 197.495 58.4291 197.502C58.7388 197.746 59.0492 197.99 59.3605 198.233ZM50.3711 202.622C50.5479 202.352 50.7241 202.082 50.9002 201.812C51.4303 201.751 51.9602 201.688 52.4894 201.624C52.0442 201.439 51.5999 201.252 51.156 201.064C51.1759 200.775 51.1961 200.485 51.2159 200.196C50.7686 200.349 50.3205 200.501 49.8717 200.652C49.3568 200.533 48.8426 200.412 48.3288 200.29C48.4903 200.574 48.6524 200.859 48.8149 201.143C48.4753 201.357 48.135 201.572 47.7936 201.786C48.3446 201.813 48.8956 201.838 49.4469 201.862C49.7543 202.116 50.0627 202.369 50.3711 202.622Z" fill="#4F88FF"/>
</g>
<path d="M60.1203 195.783C60.1091 196.072 60.0981 196.362 60.0869 196.652C60.5287 196.826 60.9713 196.999 61.4147 197.171C60.8944 197.252 60.3739 197.332 59.853 197.41C59.6895 197.684 59.5254 197.958 59.3608 198.233C59.0496 197.989 58.7391 197.746 58.4295 197.501C57.8868 197.494 57.344 197.486 56.8015 197.476C57.1308 197.251 57.4593 197.027 57.7871 196.801C57.6175 196.523 57.4487 196.245 57.28 195.966C57.7902 196.072 58.301 196.176 58.812 196.279C59.2488 196.115 59.6848 195.949 60.1203 195.783Z" fill="#FFDE9B"/>
<path d="M68.2106 197.793C68.209 198.084 68.2072 198.374 68.2054 198.665C68.6549 198.826 69.1052 198.987 69.5565 199.147C69.0354 199.242 68.5136 199.336 67.9914 199.429C67.8342 199.708 67.6769 199.987 67.519 200.265C67.1991 200.031 66.8799 199.796 66.5613 199.561C66.0139 199.567 65.4657 199.574 64.918 199.578C65.2434 199.345 65.5675 199.111 65.8909 198.876C65.7126 198.603 65.5347 198.329 65.357 198.056C65.8735 198.147 66.3903 198.237 66.9075 198.326C67.3429 198.149 67.7773 197.972 68.2106 197.793Z" fill="#FFDE9B"/>
<path d="M51.2161 200.196C51.1963 200.485 51.1762 200.775 51.1562 201.064C51.5999 201.252 52.0443 201.438 52.4896 201.624C51.96 201.688 51.4304 201.751 50.9004 201.812C50.7248 202.082 50.5483 202.352 50.3713 202.622C50.0627 202.369 49.7545 202.116 49.4472 201.862C48.8961 201.838 48.3451 201.813 47.7939 201.786C48.1353 201.572 48.4757 201.357 48.8152 201.142C48.6528 200.858 48.4907 200.574 48.3291 200.29C48.8428 200.412 49.3571 200.533 49.872 200.652C50.3208 200.501 50.7687 200.349 51.2161 200.196Z" fill="#FFDE9B"/>
<path d="M72.0875 202.048C72.0896 202.338 72.0916 202.629 72.0935 202.919C72.5516 203.075 73.0106 203.23 73.4705 203.384C72.9427 203.486 72.4147 203.587 71.8859 203.687C71.73 203.968 71.5739 204.248 71.4171 204.529C71.0895 204.299 70.7626 204.068 70.4364 203.837C69.8803 203.851 69.3247 203.865 68.7688 203.876C69.0969 203.639 69.4247 203.402 69.7514 203.164C69.5655 202.892 69.38 202.62 69.1947 202.348C69.7214 202.433 70.2485 202.517 70.7762 202.6C71.2144 202.417 71.6516 202.233 72.0875 202.048Z" fill="#FFDE9B"/>
<path d="M105.372 191.602C99.2063 196.165 92.7611 200.528 86.0466 204.664C85.0323 204.228 84.0223 203.786 83.0171 203.339C89.1141 199.648 94.9913 195.768 100.64 191.721C102.216 191.694 103.793 191.655 105.372 191.602Z" fill="#3070F6"/>
<path d="M37.079 202.964C36.2111 203.32 35.3404 203.672 34.4659 204.02C33.3312 203.279 32.2041 202.531 31.0854 201.777C31.9593 201.439 32.8295 201.097 33.6964 200.751C34.8157 201.495 35.9433 202.233 37.079 202.964Z" fill="#4F575F"/>
<path d="M55.4732 218.573C55.33 219.031 54.0697 219.514 52.3912 218.602C52.0548 218.418 51.814 218.245 51.6615 218.079C51.0567 217.409 52.2691 216.987 53.1444 217.104C53.8242 217.192 55.673 217.957 55.4732 218.573ZM53.884 218.87C54.3867 218.952 55.199 218.762 54.9876 218.363C54.7723 217.962 53.5786 217.421 53.0922 217.339C52.6152 217.257 51.8051 217.433 51.989 217.839C52.0743 218.004 52.3227 218.205 52.7479 218.436C53.1778 218.669 53.5538 218.812 53.884 218.87Z" fill="#FF6161"/>
<path d="M50.2233 220.651C50.5166 221.239 49.201 221.572 48.479 221.578C48.4276 221.574 48.3762 221.57 48.3249 221.566C48.2909 221.548 48.2565 221.531 48.2224 221.513C48.2128 221.491 48.2034 221.469 48.1937 221.447C48.2111 221.427 48.2288 221.408 48.2463 221.389C48.2952 221.38 48.3443 221.37 48.3933 221.361C48.9258 221.346 49.9568 221.125 49.7532 220.712C49.6229 220.471 49.1274 220.317 48.836 220.295C48.4258 220.263 47.727 220.446 47.7849 220.846C47.7793 220.868 47.7738 220.889 47.7681 220.91C47.7432 220.928 47.718 220.947 47.6928 220.965C47.5975 221.006 47.4823 221.008 47.3796 220.95C46.8808 220.67 46.3834 220.388 45.8871 220.106C45.781 220.046 45.7771 219.989 45.8959 219.94C46.4064 219.724 46.9158 219.506 47.424 219.287C47.6552 219.184 47.9699 219.351 47.7235 219.456C47.2786 219.648 46.8326 219.839 46.3855 220.029C46.747 220.234 47.109 220.439 47.4715 220.643C47.4673 220.286 48.1892 220.077 48.5475 220.047C49.1376 219.998 50.0257 220.247 50.2233 220.651Z" fill="#FF6161"/>
<path d="M33.8253 204.274C32.9493 204.621 32.0698 204.963 31.1871 205.301C30.0532 204.548 28.9277 203.788 27.8098 203.021C28.6918 202.693 29.5703 202.36 30.4455 202.024C31.5639 202.78 32.6907 203.53 33.8253 204.274Z" fill="#4F575F"/>
<path d="M30.5404 205.549C29.6559 205.885 28.7681 206.218 27.8772 206.547C26.7446 205.78 25.6198 205.008 24.5032 204.229C25.3932 203.91 26.2803 203.587 27.1636 203.261C28.2811 204.03 29.4069 204.793 30.5404 205.549Z" fill="#4F575F"/>
<path d="M27.2245 206.787C26.3319 207.114 25.4358 207.437 24.5367 207.755C23.4048 206.977 22.2815 206.191 21.1663 205.399C22.0645 205.09 22.9593 204.778 23.8511 204.461C24.9674 205.243 26.0919 206.018 27.2245 206.787Z" fill="#4F575F"/>
<path d="M76.8337 210.102C77.0102 214.058 77.1869 218.014 77.3649 221.971C77.6066 221.84 77.8482 221.709 78.0892 221.577C77.9022 217.622 77.7157 213.665 77.5302 209.709C77.2985 209.84 77.0663 209.971 76.8337 210.102Z" fill="#E22525"/>
<path d="M83.2297 206.401C83.4919 210.352 83.7553 214.304 84.019 218.256C84.2531 218.121 84.4872 217.986 84.7209 217.851C84.4479 213.9 84.1758 209.948 83.9042 205.997C83.6796 206.132 83.4548 206.267 83.2297 206.401Z" fill="#E22525"/>
<path d="M77.5303 209.709C77.7158 213.665 77.9023 217.622 78.0892 221.578C80.0859 220.489 82.0628 219.382 84.019 218.256C83.7555 214.304 83.492 210.353 83.2297 206.401C81.3501 207.521 79.4503 208.625 77.5303 209.709Z" fill="#E22525"/>
<path d="M46.2539 193.527C55.8843 199.576 66.0588 205.111 76.8302 210.102C77.0699 209.968 77.3094 209.833 77.5481 209.698C66.7779 204.732 56.6028 199.222 46.9712 193.197C46.7327 193.308 46.4932 193.417 46.2539 193.527Z" fill="#FF6161"/>
<path d="M52.6226 190.505C62.2622 196.339 72.4381 201.653 83.2012 206.416C83.4335 206.278 83.665 206.14 83.8962 206.001C73.1343 201.262 62.9581 195.973 53.3179 190.163C53.0863 190.277 52.8545 190.392 52.6226 190.505Z" fill="#FF6161"/>
<path d="M46.9712 193.197C56.6028 199.222 66.7779 204.732 77.5482 209.698C79.4526 208.622 81.337 207.528 83.2013 206.416C72.4383 201.653 62.262 196.339 52.6226 190.505C50.7571 191.421 48.8734 192.319 46.9712 193.197Z" fill="#FF6161"/>
<path d="M251.723 337.783L226.27 321.332C225.525 320.848 225.308 319.849 225.793 319.101C226.277 318.349 227.278 318.145 228.026 318.625L252.633 334.529L274.955 321.112C275.719 320.651 276.707 320.895 277.168 321.662C277.629 322.426 277.381 323.413 276.617 323.874L253.432 337.811C252.896 338.132 252.239 338.117 251.723 337.783Z" fill="#DBE6FA"/>
<path d="M207.717 376.663L196.227 369.864C195.169 369.238 195.177 367.712 196.235 367.086L221.756 352.196L198.378 337.543C197.626 337.071 197.397 336.076 197.87 335.32C198.346 334.561 199.339 334.344 200.095 334.812L225.73 350.878C226.752 351.52 226.734 353.015 225.687 353.636L200.233 368.486L209.364 373.893C210.128 374.345 210.384 375.333 209.927 376.1C209.484 376.852 208.507 377.129 207.717 376.663Z" fill="#DBE6FA"/>
<path d="M271.066 325.653C273.682 327.145 277.898 327.145 280.513 325.653C283.129 324.16 283.129 321.654 280.513 320.161C277.845 318.668 273.628 318.668 271.013 320.161C268.451 321.654 268.451 324.16 271.066 325.653Z" fill="#39C988"/>
<path d="M205.768 378.881C208.383 380.373 212.6 380.373 215.215 378.881C217.83 377.388 217.83 374.882 215.215 373.389C212.546 371.896 208.33 371.896 205.715 373.389C203.153 374.882 203.153 377.388 205.768 378.881Z" fill="#044DE5"/>
<defs>
<linearGradient id="paint0_linear_2050_21465" x1="205.258" y1="208.086" x2="221.418" y2="191.74" gradientUnits="userSpaceOnUse">
<stop stop-color="#FF9B9B"/>
<stop offset="1" stop-color="#FF6666"/>
</linearGradient>
</defs>
</svg>
