<svg width="154" height="68" viewBox="0 0 154 68" fill="none" xmlns="http://www.w3.org/2000/svg">
<path d="M40.1173 11.9761C41.6474 13.5139 41.6408 16.0013 40.1019 17.5303C38.5641 19.0603 36.0767 19.0537 34.5477 17.5148L34.4827 17.4509C32.9526 15.912 32.9603 13.4258 34.4981 11.8957C36.0359 10.3656 38.5233 10.3733 40.0523 11.9111L40.1173 11.9761ZM37.3215 41.2945C38.8604 42.8323 38.8604 45.3263 37.3215 46.8641C35.7837 48.403 33.2897 48.403 31.7519 46.8641L8.44147 23.5537C6.90367 22.0159 6.90367 19.5219 8.44147 17.9841C9.97927 16.4452 12.4732 16.4452 14.011 17.9841L37.3215 41.2945ZM39.7009 59.7382C41.2387 61.2771 41.2387 63.7711 39.7009 65.3089C38.1631 66.8467 35.6691 66.8467 34.1313 65.3089L3.88976 35.0684C2.35196 33.5306 2.35196 31.0367 3.88976 29.4978C5.42866 27.96 7.92262 27.96 9.46042 29.4978L39.7009 59.7382ZM25.1733 61.276C26.7122 62.8138 26.7122 65.3078 25.1733 66.8456C23.6355 68.3845 21.1415 68.3845 19.6037 66.8456L2.35306 49.596C0.815257 48.0571 0.815257 45.5632 2.35306 44.0254C3.89086 42.4876 6.38482 42.4876 7.92373 44.0254L25.1733 61.276ZM51.2156 55.1876C52.7534 56.7254 52.7534 59.2194 51.2156 60.7583C49.6767 62.2961 47.1839 62.2961 45.645 60.7583L39.3704 54.4826C37.8326 52.9448 37.8326 50.4508 39.3704 48.913C40.9082 47.3741 43.4022 47.3741 44.9411 48.913L51.2156 55.1876ZM55.7663 43.674C57.3041 45.2118 57.3041 47.7057 55.7663 49.2435C54.2285 50.7824 51.7345 50.7824 50.1956 49.2435L19.9551 19.0031C18.4173 17.4653 18.4173 14.9713 19.9551 13.4335C21.4929 11.8946 23.9869 11.8946 25.5258 13.4335L55.7663 43.674ZM57.303 29.1464C58.8419 30.6842 58.8419 33.1781 57.303 34.7159C55.7652 36.2548 53.2712 36.2548 51.7334 34.7159L41.7785 24.761C40.2396 23.2232 40.2396 20.7292 41.7785 19.1914C43.3162 17.6525 45.8102 17.6525 47.348 19.1914L57.303 29.1464Z" fill="url(#paint0_linear_2050_22114)"/>
<path d="M38.9176 10.7767C40.4477 12.3145 40.4411 14.8019 38.9033 16.3309C37.3644 17.861 34.8781 17.8543 33.348 16.3165L33.283 16.2515C31.754 14.7126 31.7606 12.2264 33.2984 10.6963C34.8362 9.16731 37.3236 9.17392 38.8537 10.7117L38.9176 10.7767ZM28.5804 0C28.5804 2.36949 30.5192 4.30716 32.8875 4.30716C30.5192 4.30716 28.5804 6.24593 28.5804 8.61432C28.5804 6.24593 26.6427 4.30716 24.2743 4.30716C26.6427 4.30716 28.5804 2.36949 28.5804 0ZM36.1229 40.0952C37.6607 41.633 37.6607 44.1269 36.1229 45.6647C34.584 47.2036 32.09 47.2036 30.5522 45.6647L7.24176 22.3543C5.70396 20.8165 5.70396 18.3225 7.24176 16.7847C8.77956 15.2458 11.2735 15.2458 12.8113 16.7847L36.1229 40.0952ZM38.5012 58.5388C40.0401 60.0777 40.0401 62.5717 38.5012 64.1095C36.9634 65.6473 34.4694 65.6473 32.9316 64.1095L2.69115 33.869C1.15225 32.3312 1.15225 29.8373 2.69115 28.2984C4.22895 26.7606 6.72292 26.7606 8.26072 28.2984L38.5012 58.5388ZM23.9736 60.0766C25.5125 61.6144 25.5125 64.1084 23.9736 65.6462C22.4358 67.1851 19.9418 67.1851 18.404 65.6462L1.15335 48.3966C-0.38445 46.8577 -0.38445 44.3638 1.15335 42.826C2.69115 41.2882 5.18512 41.2882 6.72402 42.826L23.9736 60.0766ZM50.016 53.9882C51.5538 55.526 51.5538 58.02 50.016 59.5589C48.4782 61.0967 45.9842 61.0967 44.4453 59.5589L38.1707 53.2832C36.6329 51.7454 36.6329 49.2515 38.1707 47.7137C39.7085 46.1759 42.2025 46.1759 43.7414 47.7137L50.016 53.9882ZM54.5666 42.4746C56.1044 44.0124 56.1044 46.5063 54.5666 48.0441C53.0288 49.583 50.5348 49.583 48.9959 48.0441L18.7554 17.8037C17.2176 16.2659 17.2176 13.7719 18.7554 12.2341C20.2943 10.6952 22.7872 10.6952 24.3261 12.2341L54.5666 42.4746ZM56.1033 27.947C57.6422 29.4848 57.6422 31.9787 56.1033 33.5176C54.5655 35.0554 52.0715 35.0554 50.5337 33.5176L40.5788 23.5616C39.0398 22.0238 39.0398 19.5298 40.5788 17.992C42.1166 16.4531 44.6105 16.4531 46.1483 17.992L56.1033 27.947Z" fill="url(#paint1_linear_2050_22114)"/>
<path d="M38.9176 10.777C39.1434 11.0039 39.3362 11.2517 39.4948 11.5139C37.9878 10.6018 35.9995 10.7935 34.693 12.0911C33.3822 13.3954 33.1839 15.3948 34.1015 16.9083C33.8327 16.7464 33.5793 16.5492 33.348 16.3157L33.283 16.2518C31.754 14.7129 31.7606 12.2266 33.2984 10.6965C34.8362 9.16756 37.3236 9.17417 38.8537 10.712L38.9176 10.777ZM8.63635 23.7491L7.24176 22.3545C5.70396 20.8167 5.70396 18.3228 7.24176 16.785C8.77956 15.2461 11.2735 15.2461 12.8124 16.785L14.207 18.1796C12.6681 16.6407 10.1753 16.6407 8.63635 18.1796C7.09855 19.7174 7.09855 22.2113 8.63635 23.7491ZM4.08574 35.2639L2.69115 33.8693C1.15225 32.3315 1.15225 29.8364 2.69115 28.2986C4.22895 26.7608 6.72292 26.7608 8.26072 28.2986L9.65531 29.6932C8.11751 28.1554 5.62354 28.1554 4.08574 29.6932C2.54684 31.2321 2.54684 33.7261 4.08574 35.2639ZM2.54794 49.7915L1.15335 48.3969C-0.38445 46.858 -0.38445 44.364 1.15335 42.8262C2.69115 41.2884 5.18512 41.2884 6.72402 42.8262L8.11861 44.2208C6.58081 42.683 4.08685 42.683 2.54794 44.2208C1.01014 45.7597 1.01014 48.2537 2.54794 49.7915ZM39.5653 54.6792L38.1707 53.2835C36.6329 51.7457 36.6329 49.2517 38.1707 47.7139C39.7085 46.175 42.2025 46.175 43.7414 47.7139L45.136 49.1085C43.5982 47.5707 41.1042 47.5707 39.5653 49.1085C38.0275 50.6463 38.0275 53.1403 39.5653 54.6792ZM20.15 19.1985L18.7554 17.8039C17.2176 16.2661 17.2176 13.7721 18.7554 12.2343C20.2943 10.6954 22.7872 10.6954 24.3261 12.2343L25.7207 13.6289C24.1829 12.09 21.6889 12.09 20.15 13.6289C18.6122 15.1667 18.6122 17.6607 20.15 19.1985ZM41.9733 24.9564L40.5787 23.5619C39.0398 22.0241 39.0398 19.5301 40.5787 17.9923C42.1165 16.4534 44.6105 16.4534 46.1483 17.9923L47.5429 19.3869C46.0051 17.848 43.5111 17.848 41.9733 19.3869C40.4355 20.9247 40.4355 23.4186 41.9733 24.9564Z" fill="#66E5FB"/>
<path d="M148.363 63.9785H140.57V51.3635H148.363V53.3563H142.705V56.7013H147.829V58.6407H142.705V61.9858H148.363V63.9785Z" fill="#35DFF9"/>
<path d="M132.691 64.2457C130.924 64.2457 129.417 63.6467 128.172 62.4487C126.938 61.2506 126.321 59.6611 126.321 57.6802C126.321 55.7112 126.95 54.1217 128.207 52.9118C129.465 51.7019 130.953 51.0969 132.673 51.0969C134.192 51.0969 135.437 51.4824 136.41 52.2534C137.394 53.0245 138.041 54.0031 138.349 55.1892L136.339 55.8654C136.137 55.0469 135.728 54.3826 135.111 53.8726C134.494 53.3625 133.682 53.1075 132.673 53.1075C131.546 53.1075 130.568 53.5108 129.737 54.3174C128.919 55.1121 128.51 56.2331 128.51 57.6802C128.51 59.0918 128.919 60.2008 129.737 61.0074C130.556 61.8022 131.54 62.1996 132.691 62.1996C133.676 62.1996 134.488 61.9327 135.129 61.3989C135.769 60.8651 136.208 60.2068 136.445 59.4239L138.403 60.0644C138.094 61.2387 137.442 62.2292 136.445 63.0358C135.461 63.8424 134.209 64.2457 132.691 64.2457Z" fill="#35DFF9"/>
<path d="M124.068 63.9785H121.844L115.616 54.4239V63.9785H113.481V51.3635H116.203L121.933 60.3132V51.3635H124.068V63.9785Z" fill="#35DFF9"/>
<path d="M109.461 63.9785L108.269 60.8114H102.931L101.757 63.9785H99.4973L104.408 51.3635H106.881L111.792 63.9785H109.461ZM105.6 53.6766L103.679 58.8365H107.522L105.6 53.6766Z" fill="#35DFF9"/>
<path d="M97.8135 63.9785H95.5894L89.3619 54.4239V63.9785H87.2268V51.3635H89.9491L95.6783 60.3132V51.3635H97.8135V63.9785Z" fill="#35DFF9"/>
<path d="M84.202 63.9785H82.0312V51.3635H84.202V63.9785Z" fill="#35DFF9"/>
<path d="M74.2623 63.9785H72.1272V51.3635H79.9738V53.3741H74.2623V56.9148H79.3866V58.8898H74.2623V63.9785Z" fill="#35DFF9"/>
<path d="M153.066 11.9527H141.376V41.7376H132.942V11.9527H121.306V3.89258H153.066V11.9527Z" fill="#807DFB"/>
<path d="M116.21 41.7376H107.669V3.89258H116.21V41.7376Z" fill="#807DFB"/>
<path d="M74.7249 3.89258H88.87C92.5353 3.89258 95.4177 4.83559 97.5173 6.72162C99.6168 8.60764 100.667 11.0452 100.667 14.0344C100.667 15.9204 100.133 17.6107 99.0652 19.1053C98.0333 20.5999 96.7166 21.6141 95.1153 22.1479C96.9657 22.5749 98.5492 23.5891 99.8659 25.1904C101.183 26.7562 101.841 28.6956 101.841 31.0086C101.841 34.1401 100.738 36.7201 98.5315 38.7484C96.3607 40.7412 93.5139 41.7376 89.991 41.7376H74.7249V3.89258ZM82.9451 19.0519H87.5356C89.0302 19.0519 90.2045 18.6961 91.0585 17.9844C91.9482 17.2371 92.393 16.2229 92.393 14.9418C92.393 13.6963 91.966 12.7177 91.1119 12.006C90.2579 11.2587 89.0302 10.8851 87.4288 10.8851H82.9451V19.0519ZM82.9451 34.8518H88.2295C89.8664 34.8518 91.1475 34.4604 92.0727 33.6775C92.9979 32.8591 93.4605 31.7737 93.4605 30.4215C93.4605 29.1048 92.9979 28.0372 92.0727 27.2188C91.1475 26.4003 89.8664 25.9911 88.2295 25.9911H82.9451V34.8518Z" fill="#807DFB"/>
<defs>
<linearGradient id="paint0_linear_2050_22114" x1="-6.52785" y1="75.8884" x2="104.998" y2="-36.1297" gradientUnits="userSpaceOnUse">
<stop stop-color="#020C6A"/>
<stop offset="0.36" stop-color="#065DCF"/>
<stop offset="0.62" stop-color="#2DDAFF"/>
<stop offset="1" stop-color="#66FFCC"/>
</linearGradient>
<linearGradient id="paint1_linear_2050_22114" x1="0.318355" y1="66.4823" x2="66.6685" y2="0.132188" gradientUnits="userSpaceOnUse">
<stop stop-color="#C835F8"/>
<stop offset="0.36" stop-color="#065DCF"/>
<stop offset="0.62" stop-color="#2DDAFF"/>
<stop offset="1" stop-color="#66FFCC"/>
</linearGradient>
</defs>
</svg>
