<svg width="588" height="515" viewBox="0 0 588 515" fill="none" xmlns="http://www.w3.org/2000/svg">
<path d="M162.998 194.728V0L79.896 146.748L162.998 194.728Z" fill="url(#paint0_linear_2050_20228)"/>
<path d="M162.998 194.728V0L246.1 146.748L162.998 194.728Z" fill="url(#paint1_linear_2050_20228)"/>
<path d="M162.998 91.6238L144.823 59.54L132.786 73.4934L128.45 60.9972L162.998 0V91.6238Z" fill="#F6F6FB"/>
<path d="M162.998 0V91.6238L186.436 66.552L202.297 69.3868L162.998 0Z" fill="#DAE0F5"/>
<path style="mix-blend-mode:multiply" d="M132.786 73.4935L128.45 120.573L152.727 73.4935L144.823 59.5402L132.786 73.4935Z" fill="url(#paint2_linear_2050_20228)"/>
<path style="mix-blend-mode:multiply" d="M132.786 73.4935L150.837 38.4777L152.727 73.4935L144.823 59.5402L132.786 73.4935Z" fill="url(#paint3_linear_2050_20228)"/>
<path style="mix-blend-mode:multiply" d="M186.436 66.5521L212.152 166.345L230.38 155.818L186.436 66.5521Z" fill="url(#paint4_linear_2050_20228)"/>
<path style="mix-blend-mode:multiply" d="M112.236 119.451L116.492 136.751L97.7085 153.009L112.236 119.451Z" fill="url(#paint5_linear_2050_20228)"/>
<path d="M60.2376 303.008C58.5597 303.98 57.1997 303.194 57.1997 301.251V240.775C57.1997 238.841 58.5597 236.483 60.2376 235.511L101.338 211.782C103.016 210.81 104.376 211.596 104.376 213.539V274.015C104.376 275.949 103.016 278.307 101.338 279.279L60.2376 303.008Z" fill="#E8ECF7"/>
<path d="M58.4449 234.486L99.5454 210.757C100.367 210.28 101.117 210.236 101.665 210.536H101.683C101.691 210.536 101.7 210.545 101.709 210.554L103.458 211.561C102.91 211.26 102.168 211.313 101.338 211.79L60.2377 235.52C58.5597 236.491 57.1997 238.849 57.1997 240.783V301.259C57.1997 302.195 57.5176 302.849 58.0387 303.184L56.3343 302.204C56.3166 302.195 56.2989 302.178 56.2724 302.169L56.2459 302.151C55.7337 301.816 55.407 301.153 55.407 300.226V239.75C55.407 237.816 56.767 235.458 58.4449 234.486Z" fill="url(#paint6_linear_2050_20228)"/>
<path d="M68.6274 238.363C71.3386 236.8 73.5464 238.054 73.5552 241.172C73.5641 244.289 71.3739 248.087 68.6539 249.659C65.9427 251.222 63.7349 249.968 63.7261 246.85C63.7173 243.733 65.9074 239.935 68.6274 238.372V238.363Z" fill="white"/>
<path d="M68.3976 248.087L72.248 240.209L71.4091 239.927L68.3888 246.117L66.7374 244.748L65.9072 246.02L68.3976 248.087Z" fill="#807DFB"/>
<path d="M68.6274 253.641C71.3386 252.078 73.5464 253.332 73.5552 256.45C73.5641 259.567 71.3739 263.364 68.6539 264.936C65.9427 266.5 63.7349 265.246 63.7261 262.128C63.7173 259.011 65.9074 255.213 68.6274 253.65V253.641Z" fill="white"/>
<path d="M68.3976 263.373L72.248 255.496L71.4091 255.213L68.3888 261.404L66.7374 260.035L65.9072 261.298L68.3976 263.373Z" fill="#807DFB"/>
<path d="M68.6274 268.928C71.3386 267.365 73.5464 268.619 73.5552 271.737C73.5641 274.854 71.3739 278.652 68.6539 280.224C65.9427 281.787 63.7349 280.533 63.7261 277.415C63.7173 274.298 65.9074 270.5 68.6274 268.937V268.928Z" fill="white"/>
<path d="M68.3976 278.651L72.248 270.774L71.4091 270.491L68.3888 276.682L66.7374 275.313L65.9072 276.576L68.3976 278.651Z" fill="#FB944B"/>
<path d="M97.7705 226.591L77.5205 238.284V236.42L97.7705 224.737V226.591Z" fill="#BBC0E6"/>
<path d="M91.9419 233.921L77.5205 242.249V240.386L91.9419 232.058V233.921Z" fill="#BBC0E6"/>
<path d="M97.7705 241.79L77.5205 253.482V251.619L97.7705 239.927V241.79Z" fill="#BBC0E6"/>
<path d="M91.9419 249.12L77.5205 257.439V255.584L91.9419 247.257V249.12Z" fill="#BBC0E6"/>
<path d="M97.7705 256.988L77.5205 268.672V266.818L97.7705 255.125V256.988Z" fill="#BBC0E6"/>
<path d="M91.9419 264.31L77.5205 272.637V270.783L91.9419 262.455V264.31Z" fill="#BBC0E6"/>
<path d="M447.504 113.198L443.309 120.467L439.115 118.047L422.759 127.487C421.081 128.459 419.721 127.673 419.721 125.73V90.6083C419.721 88.6742 421.081 86.3163 422.759 85.3448L463.86 61.6154C465.538 60.6439 466.898 61.4299 466.898 63.3728V98.4945C466.898 100.429 465.538 102.786 463.86 103.758L447.504 113.198Z" fill="#E8ECF7"/>
<path d="M420.966 84.3208L462.067 60.5914C462.888 60.1145 463.639 60.0703 464.186 60.3706H464.204C464.213 60.3706 464.221 60.3794 464.23 60.3883L465.979 61.395C465.431 61.0947 464.689 61.1477 463.859 61.6246L422.759 85.3541C421.081 86.3255 419.721 88.6835 419.721 90.6175V125.739C419.721 126.675 420.039 127.329 420.56 127.664L418.856 126.684C418.838 126.675 418.82 126.658 418.794 126.649L418.767 126.631C418.255 126.296 417.928 125.633 417.928 124.706V89.5842C417.928 87.6502 419.288 85.2923 420.966 84.3208Z" fill="url(#paint7_linear_2050_20228)"/>
<path d="M431.343 88.4802L433.153 88.5332L432.809 86.4049L434.266 83.9145L432.244 84.7447L431.343 83.155L430.442 85.7867L428.42 87.2969L429.886 88.0917L429.542 90.6174L431.343 88.4802Z" fill="#BBC0E6"/>
<path d="M439.318 83.8704L441.128 83.9234L440.784 81.8039L442.241 79.3135L440.218 80.1436L439.318 78.5452L438.417 81.1857L436.395 82.687L437.861 83.4907L437.516 86.0075L439.318 83.8704Z" fill="#BBC0E6"/>
<path d="M447.292 79.269L449.103 79.322L448.758 77.1937L450.215 74.7121L448.193 75.5334L447.292 73.9438L446.391 76.5755L444.369 78.0856L445.835 78.8893L445.491 81.4062L447.292 79.269Z" fill="#BBC0E6"/>
<path d="M455.267 74.659L457.077 74.7209L456.733 72.5925L458.19 70.1021L456.168 70.9323L455.267 69.3427L454.366 71.9744L452.344 73.4757L453.81 74.2793L453.465 76.805L455.267 74.659Z" fill="#BBC0E6"/>
<path d="M433.206 94.5563L424.967 99.3164V96.9761L433.206 92.2161V94.5563Z" fill="#BBC0E6"/>
<path d="M439.106 95.9161L424.967 104.076V101.745L439.106 93.5758V95.9161Z" fill="#BBC0E6"/>
<path d="M454.666 81.4683C455.011 80.9825 455.382 80.6028 455.841 80.3379C456.998 79.6667 457.996 80.2407 457.996 81.5831C457.996 82.2542 457.757 82.9342 457.378 83.5966L453.686 89.8667L449.995 87.915C449.615 87.6943 449.376 87.2262 449.376 86.555C449.376 85.2127 450.366 83.4994 451.531 82.8283C451.991 82.5633 452.361 82.5722 452.706 82.6605L453.686 82.8371L454.666 81.4683Z" fill="#FB944B"/>
<path d="M428.226 118.921C428.226 117.959 428.897 116.793 429.736 116.307C430.575 115.821 431.246 116.219 431.246 117.181C431.246 118.144 430.575 119.31 429.736 119.795C428.906 120.272 428.226 119.884 428.226 118.921Z" fill="#FB944B"/>
<path d="M437.604 104.085C437.604 103.122 438.275 101.956 439.114 101.47C439.944 100.994 440.624 101.382 440.624 102.345C440.624 103.307 439.953 104.473 439.114 104.959C438.284 105.436 437.604 105.047 437.604 104.085Z" fill="#FB944B"/>
<path d="M446.974 108.094C446.974 107.132 447.645 105.966 448.484 105.48C449.314 105.003 449.994 105.392 449.994 106.355C449.994 107.317 449.323 108.483 448.484 108.969C447.654 109.446 446.974 109.057 446.974 108.094Z" fill="#FB944B"/>
<path d="M456.353 97.3732C456.353 96.4106 457.024 95.2449 457.863 94.7592C458.693 94.2823 459.373 94.6709 459.373 95.6335C459.373 96.5961 458.702 97.7618 457.863 98.2475C457.033 98.7244 456.353 98.3358 456.353 97.3732Z" fill="#FB944B"/>
<path d="M429.736 118.047L439.106 103.219L448.485 107.22L457.863 96.4988" stroke="#FB944B" stroke-miterlimit="10"/>
<g style="mix-blend-mode:multiply">
<path d="M206.491 158.096C206.491 159.915 207.781 160.657 209.353 159.748L237.365 143.578L240.81 146.192V141.582L243.229 140.186C244.801 139.277 246.091 137.043 246.091 135.223V107.661C246.091 105.842 244.801 105.1 243.229 106.01L209.353 125.571C207.781 126.48 206.491 128.715 206.491 130.534V158.096Z" fill="#36E0F8"/>
</g>
<path d="M213.954 136.036L238.637 121.782V120.051L213.954 134.305V136.036Z" fill="white"/>
<path d="M213.954 140.866L238.637 126.613V124.882L213.954 139.136V140.866Z" fill="white"/>
<path d="M213.954 145.706L238.637 131.453V129.722L213.954 143.975V145.706Z" fill="white"/>
<path d="M220.048 147.022L238.637 136.283V134.552L220.048 145.291V147.022Z" fill="white"/>
<path d="M222.529 125.765L224.039 124.9V123.16L222.529 124.025V125.765Z" fill="white"/>
<path d="M225.54 124.026L227.05 123.16V121.42L225.54 122.295V124.026Z" fill="white"/>
<path d="M228.552 122.294L230.062 121.42V119.68L228.552 120.555V122.294Z" fill="white"/>
<path style="mix-blend-mode:multiply" d="M55.4158 387.691C49.4989 384.273 41.6391 382.701 33.9207 382.939H27.0853V384.926C24.7892 385.65 22.6167 386.578 20.6827 387.699C9.67898 394.102 9.7408 404.47 20.8151 410.872C22.7227 411.976 24.8422 412.877 27.0853 413.592V415.668H36.3316C43.3082 415.553 50.2319 413.963 55.5395 410.881C66.552 404.479 66.4902 394.111 55.407 387.708L55.4158 387.691Z" fill="url(#paint8_linear_2050_20228)"/>
<path d="M8.35435 410.863C2.77302 407.64 -0.00881025 403.419 2.09601e-05 399.197L0.0265146 393.068C0.0176834 397.29 2.79952 401.52 8.37201 404.734C19.4552 411.128 37.3649 411.128 48.3686 404.734C53.8351 401.555 56.5728 397.396 56.5904 393.227L56.5639 399.356C56.5551 403.525 53.8174 407.675 48.3421 410.863C37.3296 417.266 19.4287 417.266 8.34552 410.863H8.35435Z" fill="url(#paint9_linear_2050_20228)"/>
<path d="M8.37202 404.734C-2.70232 398.341 -2.76414 387.964 8.23956 381.561C19.2521 375.159 37.1618 375.159 48.2449 381.561C59.3281 387.955 59.3811 398.332 48.3774 404.734C37.3649 411.128 19.464 411.128 8.38085 404.734H8.37202Z" fill="#EFF1F5"/>
<path d="M39.1577 393.828C41.5863 392.424 38.7338 389.236 41.5244 387.629C41.5244 387.629 42.858 386.86 44.3769 385.986C41.5686 384.361 34.5654 387.046 33.4792 389.05L26.1228 384.803C25.0366 384.176 23.2968 384.176 22.2106 384.803C21.1332 385.43 21.1243 386.436 22.2106 387.063H22.2194L21.5571 386.684C20.4797 386.057 18.7311 386.057 17.6448 386.684C16.5674 387.311 16.5586 388.317 17.6448 388.944L18.1129 389.227C17.0267 388.697 15.4105 388.724 14.3861 389.315C13.3087 389.942 13.3087 390.949 14.3861 391.576L15.0396 391.947C13.8209 391.249 12.3461 391.249 11.1274 391.947C9.9087 392.654 9.9087 393.501 11.1274 394.208L18.9519 398.721C20.568 399.657 23.5088 400.981 25.7961 400.981L30.035 401.361L32.2163 402.615L43.2995 396.213C43.2995 396.213 40.0055 394.305 39.1665 393.828H39.1577Z" fill="#BBC0E6"/>
<path style="mix-blend-mode:multiply" d="M461.634 450.498C458.667 448.785 454.711 447.99 450.834 448.105H444.749V449.103C443.592 449.465 442.506 449.933 441.534 450.498C436.006 453.713 436.041 458.923 441.605 462.138C442.559 462.694 443.627 463.144 444.758 463.506V464.548H452.052C455.558 464.487 459.038 463.692 461.705 462.146C467.233 458.932 467.207 453.721 461.634 450.507V450.498Z" fill="url(#paint10_linear_2050_20228)"/>
<path d="M435.335 462.146C432.535 460.53 431.131 458.402 431.14 456.282V451.451C431.14 453.571 432.544 455.699 435.343 457.315C440.916 460.53 449.906 460.53 455.434 457.315C458.181 455.717 459.559 453.624 459.567 451.531V456.362C459.55 458.455 458.172 460.548 455.426 462.146C449.897 465.361 440.898 465.361 435.326 462.146H435.335Z" fill="url(#paint11_linear_2050_20228)"/>
<path d="M435.352 457.316C429.788 454.101 429.753 448.891 435.282 445.676C440.81 442.462 449.818 442.462 455.381 445.676C460.954 448.891 460.98 454.101 455.443 457.316C449.915 460.53 440.916 460.53 435.352 457.316Z" fill="#F0F2F6"/>
<path d="M452.653 450.825L442.144 451.364L442.47 448.997H439.565L438.77 453.307L452.653 452.503V450.825Z" fill="#BBC0E6"/>
<path d="M84.0554 388.317L170.186 338.598L256.317 388.317L170.186 438.046L84.0554 388.317Z" fill="#36E0F8"/>
<path d="M225.143 306.867L311.274 257.139L397.404 306.867L311.274 356.587L225.143 306.867Z" fill="#35DDF7"/>
<path d="M366.23 225.408L458.587 172.085L544.709 221.814L452.361 275.136L366.23 225.408Z" fill="#36E0F8"/>
<path style="mix-blend-mode:multiply" d="M327.311 340.85H170.187V432.368H327.311V340.85Z" fill="url(#paint12_linear_2050_20228)"/>
<path style="mix-blend-mode:multiply" d="M468.399 256.547H311.274V348.064H468.399V256.547Z" fill="url(#paint13_linear_2050_20228)"/>
<path style="mix-blend-mode:multiply" d="M579.875 223.986L534.871 198.005L505.022 218.97L513.703 223.986L506.982 236.615H495.634L449.906 263.02H510.329L547.385 241.622H579.875V223.986Z" fill="url(#paint14_linear_2050_20228)"/>
<path d="M519.593 172.8L504.315 203.427L428.031 159.377L443.309 128.75L519.593 172.8Z" fill="#FB944B"/>
<path d="M519.593 172.8L504.315 203.427V241.622L534.871 223.986V185.782L519.593 172.8Z" fill="#C85A2B"/>
<g style="mix-blend-mode:multiply">
<path d="M515.725 194.649C515.725 192.185 517.456 189.191 519.584 187.955C521.721 186.727 523.444 187.725 523.444 190.189C523.444 192.653 521.713 195.646 519.584 196.883C517.447 198.11 515.725 197.112 515.725 194.649Z" fill="#D1D7F3"/>
</g>
<path d="M504.315 203.418L495.634 198.411V236.615L504.315 241.622V203.418Z" fill="#E57139"/>
<path d="M525.228 229.55L513.959 236.058V220.948L525.228 214.44V229.55Z" fill="#044DE5"/>
<path d="M518.277 221.522L529.555 215.014V216.939L518.277 223.448V221.522Z" fill="#CED3F8"/>
<path d="M513.959 219.032L525.228 212.523L529.555 215.014L518.277 221.522L513.959 219.032Z" fill="white"/>
<path d="M513.959 219.032L518.277 221.522V223.447L513.959 220.948V219.032Z" fill="#E3E8FF"/>
<path d="M495.634 201.732L449.906 228.128V263.02L495.634 236.615V201.732Z" fill="#BBC0E6"/>
<g style="mix-blend-mode:multiply">
<path d="M470.659 236.429L474.88 233.992V241.384L470.659 243.821V236.429Z" fill="#D1D7F3"/>
</g>
<g style="mix-blend-mode:multiply">
<path d="M482.008 229.876L486.229 227.439V234.83L482.008 237.268V229.876Z" fill="#D1D7F3"/>
</g>
<g style="mix-blend-mode:multiply">
<path d="M463.533 240.545L459.312 242.982V250.365L463.533 247.937V240.545Z" fill="#D1D7F3"/>
</g>
<path d="M463.533 246.011L459.312 248.449V250.365L463.533 247.936V246.011Z" fill="white"/>
<path d="M474.88 239.458L470.659 241.896V243.821L474.88 241.384V239.458Z" fill="white"/>
<path d="M486.229 232.915L482.008 235.343V237.269L486.229 234.831V232.915Z" fill="white"/>
<g style="mix-blend-mode:multiply">
<path d="M470.659 223.138L474.88 220.71V228.093L470.659 230.53V223.138Z" fill="#D1D7F3"/>
</g>
<g style="mix-blend-mode:multiply">
<path d="M482.008 216.585L486.229 214.157V221.548L482.008 223.977V216.585Z" fill="#D1D7F3"/>
</g>
<g style="mix-blend-mode:multiply">
<path d="M463.533 227.254L459.312 229.691V237.083L463.533 234.645V227.254Z" fill="#D1D7F3"/>
</g>
<path d="M463.533 232.729L459.312 235.166V237.083L463.533 234.645V232.729Z" fill="white"/>
<path d="M474.88 226.176L470.659 228.613V230.53L474.88 228.092V226.176Z" fill="white"/>
<path d="M486.229 219.624L482.008 222.061V223.977L486.229 221.549V219.624Z" fill="white"/>
<path d="M449.906 228.137L382.294 189.103V223.986L449.906 263.02V228.137Z" fill="#CED3F8"/>
<g style="mix-blend-mode:multiply">
<path d="M402.642 221.125L406.863 223.562V230.954L402.642 228.517V221.125Z" fill="#D1D7F3"/>
</g>
<g style="mix-blend-mode:multiply">
<path d="M413.989 227.678L418.211 230.115V237.498L413.989 235.069V227.678Z" fill="#D1D7F3"/>
</g>
<g style="mix-blend-mode:multiply">
<path d="M395.515 217.01L391.293 214.572V221.964L395.515 224.401V217.01Z" fill="#D1D7F3"/>
</g>
<path d="M395.515 222.476L391.293 220.048V221.964L395.515 224.401V222.476Z" fill="white"/>
<path d="M406.863 229.029L402.642 226.6V228.517L406.863 230.954V229.029Z" fill="white"/>
<path d="M418.211 235.582L413.989 233.144V235.069L418.211 237.498V235.582Z" fill="white"/>
<g style="mix-blend-mode:multiply">
<path d="M402.642 207.843L406.863 210.271V217.663L402.642 215.226V207.843Z" fill="#D1D7F3"/>
</g>
<g style="mix-blend-mode:multiply">
<path d="M413.989 214.396L418.211 216.824V224.216L413.989 221.779V214.396Z" fill="#D1D7F3"/>
</g>
<g style="mix-blend-mode:multiply">
<path d="M395.515 203.727L391.293 201.29V208.682L395.515 211.11V203.727Z" fill="#D1D7F3"/>
</g>
<path d="M395.515 209.194L391.293 206.756V208.682L395.515 211.11V209.194Z" fill="white"/>
<path d="M406.863 215.746L402.642 213.309V215.225L406.863 217.663V215.746Z" fill="white"/>
<g style="mix-blend-mode:multiply">
<path d="M429.559 236.667L425.337 234.23V241.622L429.559 244.05V236.667Z" fill="#D1D7F3"/>
</g>
<g style="mix-blend-mode:multiply">
<path d="M436.686 240.783L440.907 243.211V250.603L436.686 248.166V240.783Z" fill="#D1D7F3"/>
</g>
<path d="M436.686 246.249L440.907 248.687V250.603L436.686 248.166V246.249Z" fill="white"/>
<path d="M425.337 239.697L429.559 242.134V244.051L425.337 241.622V239.697Z" fill="white"/>
<g style="mix-blend-mode:multiply">
<path d="M429.559 223.377L425.337 220.939V228.331L429.559 230.769V223.377Z" fill="#D1D7F3"/>
</g>
<g style="mix-blend-mode:multiply">
<path d="M436.686 227.492L440.907 229.93V237.322L436.686 234.884V227.492Z" fill="#D1D7F3"/>
</g>
<path d="M436.686 232.967L440.907 235.405V237.321L436.686 234.884V232.967Z" fill="white"/>
<path d="M425.337 226.415L429.559 228.852V230.769L425.337 228.331V226.415Z" fill="white"/>
<path d="M418.211 222.3L413.989 219.862V221.779L418.211 224.216V222.3Z" fill="white"/>
<path d="M500.562 201.255L452.361 229.082L379.839 187.204L428.031 159.377L500.562 201.255Z" fill="#F6F6FB"/>
<path d="M500.562 201.255L452.361 229.082V232.393L500.562 204.566V201.255Z" fill="#CED3F8"/>
<path d="M379.839 187.204L452.361 229.082V232.394L379.839 190.516V187.204Z" fill="#E3E8FF"/>
<path style="mix-blend-mode:multiply" d="M468.743 212.664L461.007 208.196H452.361L460.097 212.664L452.361 217.124H461.007L468.743 212.664Z" fill="url(#paint15_linear_2050_20228)"/>
<path d="M460.097 207.666L452.361 212.135V217.124L460.097 212.664V207.666Z" fill="#BBC0E6"/>
<path d="M452.361 212.135L444.634 207.666V212.664L452.361 217.124V212.135Z" fill="#CED3F8"/>
<path d="M460.097 207.666L452.361 203.206L444.634 207.666L452.361 212.134L460.097 207.666Z" fill="white"/>
<path style="mix-blend-mode:multiply" d="M486.653 200.504L483.182 198.499H477.68L481.151 200.504L471.172 206.27H476.674L486.653 200.504Z" fill="url(#paint16_linear_2050_20228)"/>
<path d="M481.151 197.333L471.172 203.091V206.27L481.151 200.504V197.333Z" fill="#BBC0E6"/>
<path d="M471.172 203.091L467.833 201.166V204.337L471.172 206.271V203.091Z" fill="#CED3F8"/>
<path d="M481.151 197.333L477.813 195.399L467.833 201.166L471.172 203.091L481.151 197.333Z" fill="white"/>
<g style="mix-blend-mode:multiply">
<path d="M500.562 201.255L504.315 209.803V241.622L495.634 236.615V207.41L500.562 204.566V201.255Z" fill="#E8ECF7"/>
</g>
<path style="mix-blend-mode:multiply" d="M582.542 241.101C578.683 238.876 573.552 237.851 568.518 238.001H560.623V239.299C559.122 239.776 557.709 240.377 556.446 241.11C549.266 245.287 549.31 252.052 556.534 256.229C557.779 256.944 559.166 257.536 560.623 258.004V259.355H570.099C574.656 259.276 579.168 258.242 582.639 256.229C589.819 252.052 589.784 245.287 582.551 241.101H582.542Z" fill="url(#paint17_linear_2050_20228)"/>
<path d="M548.392 256.229C544.753 254.127 542.934 251.372 542.943 248.617L542.961 242.338C542.961 245.093 544.771 247.848 548.409 249.95C555.642 254.127 567.326 254.127 574.514 249.95C578.082 247.875 579.875 245.164 579.884 242.444L579.866 248.723C579.866 251.443 578.073 254.154 574.506 256.229C567.317 260.406 555.633 260.406 548.401 256.229H548.392Z" fill="url(#paint18_linear_2050_20228)"/>
<path d="M548.409 249.95C541.177 245.773 541.141 239 548.321 234.831C555.51 230.654 567.202 230.654 574.426 234.831C581.659 239.008 581.694 245.773 574.506 249.95C567.326 254.119 555.633 254.119 548.401 249.95H548.409Z" fill="white"/>
<path d="M564.085 239.326C563.935 238.805 563.511 238.293 562.804 237.896C561.02 236.871 558.133 236.871 556.357 237.896C555.465 238.408 555.024 239.088 555.024 239.759V246.117H566.028C567.202 246.117 568.368 245.861 569.26 245.349C571.044 244.325 571.044 242.656 569.26 241.622C568.562 241.216 567.688 240.969 566.778 240.889L564.367 240.73L564.085 239.335V239.326Z" fill="#BBC0E6"/>
<path d="M311.274 348.065L382.639 306.867V280.674L311.274 321.88V348.065Z" fill="#BBC0E6"/>
<path d="M364.508 317.332L336.39 333.572V317.04L364.508 300.809V317.332Z" fill="#044DE5"/>
<path d="M311.274 348.065L239.909 306.867V280.674L311.283 321.88L311.274 348.065Z" fill="#CED3F8"/>
<g style="mix-blend-mode:multiply">
<path d="M297.877 340.328L253.314 314.603V288.41L297.877 314.144V340.328Z" fill="#DAE0F5"/>
</g>
<g style="mix-blend-mode:multiply">
<path d="M276.108 301.578L275.083 300.986V327.17L276.108 327.762V301.578Z" fill="#D1D7F3"/>
</g>
<path d="M324.68 314.144V322.807L332.186 327.144C332.186 322.357 328.83 316.537 324.68 314.144Z" fill="#E57139"/>
<path d="M327.859 312.307L324.68 314.144C328.822 316.537 332.186 322.357 332.186 327.144L335.365 325.307C335.365 320.52 332.01 314.701 327.859 312.307Z" fill="url(#paint19_linear_2050_20228)"/>
<path d="M331.047 310.47L327.868 312.307C332.01 314.7 335.374 320.52 335.374 325.306L338.553 323.47C338.553 318.683 335.198 312.863 331.047 310.47Z" fill="url(#paint20_linear_2050_20228)"/>
<path d="M334.226 308.625L331.047 310.461C335.189 312.855 338.553 318.674 338.553 323.461L341.733 321.624C341.733 316.838 338.377 311.018 334.226 308.625Z" fill="url(#paint21_linear_2050_20228)"/>
<path d="M337.414 306.787L334.235 308.624C338.377 311.018 341.741 316.837 341.741 321.624L344.921 319.787C344.921 315.001 341.565 309.181 337.414 306.787Z" fill="url(#paint22_linear_2050_20228)"/>
<path d="M340.594 304.951L337.415 306.788C341.556 309.181 344.921 315.001 344.921 319.787L348.1 317.95C348.1 313.164 344.744 307.344 340.594 304.951Z" fill="url(#paint23_linear_2050_20228)"/>
<path d="M343.782 303.113L340.603 304.95C344.744 307.344 348.109 313.163 348.109 317.95L351.288 316.113C351.288 311.326 347.932 305.507 343.782 303.113Z" fill="url(#paint24_linear_2050_20228)"/>
<path d="M346.96 301.277L343.781 303.114C347.923 305.507 351.288 311.327 351.288 316.113L354.467 314.277C354.467 309.49 351.111 303.67 346.96 301.277Z" fill="url(#paint25_linear_2050_20228)"/>
<path d="M350.149 299.44L346.97 301.277C351.112 303.67 354.476 309.49 354.476 314.276L357.655 312.44C357.655 307.653 354.3 301.833 350.149 299.44Z" fill="url(#paint26_linear_2050_20228)"/>
<path d="M353.328 297.603L350.149 299.44C354.291 301.833 357.655 307.653 357.655 312.44L360.835 310.603C360.835 305.816 357.479 299.996 353.328 297.603Z" fill="url(#paint27_linear_2050_20228)"/>
<path d="M356.516 295.757L353.337 297.594C357.479 299.988 360.843 305.807 360.843 310.594L364.023 308.757C364.023 303.971 360.667 298.151 356.516 295.757Z" fill="url(#paint28_linear_2050_20228)"/>
<path d="M359.695 293.92L356.516 295.757C360.658 298.151 364.023 303.97 364.023 308.757L367.202 306.92C367.202 302.134 363.846 296.314 359.695 293.92Z" fill="url(#paint29_linear_2050_20228)"/>
<path d="M362.875 292.084L359.695 293.921C363.837 296.314 367.202 302.134 367.202 306.92L370.381 305.083C370.381 300.297 367.025 294.477 362.875 292.084Z" fill="url(#paint30_linear_2050_20228)"/>
<path d="M366.063 290.247L362.883 292.084C367.025 294.477 370.39 300.297 370.39 305.083L373.569 303.246C373.569 298.46 370.213 292.64 366.063 290.247Z" fill="url(#paint31_linear_2050_20228)"/>
<path d="M369.242 288.41L366.062 290.247C370.204 292.64 373.569 298.46 373.569 303.246L376.748 301.409C376.748 296.623 373.392 290.803 369.242 288.41Z" fill="url(#paint32_linear_2050_20228)"/>
<path d="M311.274 324.724L234.99 280.674V277.362L311.274 321.403V324.724Z" fill="#E3E8FF"/>
<path d="M311.274 324.724L387.567 280.674V277.362L311.274 321.403V324.724Z" fill="#CED3F8"/>
<path d="M311.274 321.403L234.99 277.362L311.274 233.321L387.567 277.362L311.274 321.403Z" fill="white"/>
<path d="M382.639 277.362L311.274 318.568V203.074L382.639 161.876V277.362Z" fill="#BBC0E6"/>
<g style="mix-blend-mode:multiply">
<path d="M369.242 285.098L324.68 310.832V195.346L369.242 169.612V285.098Z" fill="#DAE0F5"/>
</g>
<g style="mix-blend-mode:multiply">
<path d="M344.85 190.127L349.071 187.69V195.073L344.85 197.51V190.127Z" fill="#D1D7F3"/>
</g>
<g style="mix-blend-mode:multiply">
<path d="M356.198 183.574L360.42 181.137V188.529L356.198 190.957V183.574Z" fill="#D1D7F3"/>
</g>
<g style="mix-blend-mode:multiply">
<path d="M337.723 194.243L333.502 196.671V204.063L337.723 201.626V194.243Z" fill="#D1D7F3"/>
</g>
<g style="mix-blend-mode:multiply">
<path d="M344.85 205.997L349.071 203.56V210.951L344.85 213.389V205.997Z" fill="#D1D7F3"/>
</g>
<g style="mix-blend-mode:multiply">
<path d="M356.198 199.444L360.42 197.007V204.398L356.198 206.836V199.444Z" fill="#D1D7F3"/>
</g>
<g style="mix-blend-mode:multiply">
<path d="M337.723 210.112L333.502 212.55V219.933L337.723 217.504V210.112Z" fill="#D1D7F3"/>
</g>
<g style="mix-blend-mode:multiply">
<path d="M344.85 221.866L349.071 219.429V226.821L344.85 229.258V221.866Z" fill="#D1D7F3"/>
</g>
<g style="mix-blend-mode:multiply">
<path d="M356.198 215.314L360.42 212.885V220.268L356.198 222.706V215.314Z" fill="#D1D7F3"/>
</g>
<g style="mix-blend-mode:multiply">
<path d="M337.723 225.982L333.502 228.42V235.811L337.723 233.374V225.982Z" fill="#D1D7F3"/>
</g>
<g style="mix-blend-mode:multiply">
<path d="M344.85 237.745L349.071 235.308V242.7L344.85 245.137V237.745Z" fill="#D1D7F3"/>
</g>
<g style="mix-blend-mode:multiply">
<path d="M356.198 231.192L360.42 228.755V236.147L356.198 238.584V231.192Z" fill="#D1D7F3"/>
</g>
<g style="mix-blend-mode:multiply">
<path d="M337.723 241.86L333.502 244.298V251.681L337.723 249.252V241.86Z" fill="#D1D7F3"/>
</g>
<g style="mix-blend-mode:multiply">
<path d="M344.85 253.615L349.071 251.178V258.569L344.85 261.007V253.615Z" fill="#D1D7F3"/>
</g>
<g style="mix-blend-mode:multiply">
<path d="M356.198 247.062L360.42 244.634V252.017L356.198 254.454V247.062Z" fill="#D1D7F3"/>
</g>
<g style="mix-blend-mode:multiply">
<path d="M337.723 257.73L333.502 260.167V267.559L337.723 265.122V257.73Z" fill="#D1D7F3"/>
</g>
<g style="mix-blend-mode:multiply">
<path d="M344.85 269.494L349.071 267.056V274.448L344.85 276.877V269.494Z" fill="#D1D7F3"/>
</g>
<g style="mix-blend-mode:multiply">
<path d="M356.198 262.941L360.42 260.503V267.895L356.198 270.332V262.941Z" fill="#D1D7F3"/>
</g>
<g style="mix-blend-mode:multiply">
<path d="M337.723 273.609L333.502 276.046V283.429L337.723 280.991V273.609Z" fill="#D1D7F3"/>
</g>
<g style="mix-blend-mode:multiply">
<path d="M344.85 285.363L349.071 282.926V290.317L344.85 292.755V285.363Z" fill="#D1D7F3"/>
</g>
<g style="mix-blend-mode:multiply">
<path d="M356.198 278.811L360.42 276.373V283.765L356.198 286.202V278.811Z" fill="#D1D7F3"/>
</g>
<g style="mix-blend-mode:multiply">
<path d="M337.723 289.478L333.502 291.916V299.307L337.723 296.87V289.478Z" fill="#D1D7F3"/>
</g>
<path d="M239.909 277.362L311.274 318.568V203.074L239.909 161.876V277.362Z" fill="#CED3F8"/>
<g style="mix-blend-mode:multiply">
<path d="M253.306 285.098L297.877 310.832V195.346L253.306 169.612V285.098Z" fill="#DAE0F5"/>
</g>
<g style="mix-blend-mode:multiply">
<path d="M277.706 190.127L273.485 187.69V195.073L277.706 197.51V190.127Z" fill="#D1D7F3"/>
</g>
<g style="mix-blend-mode:multiply">
<path d="M266.358 183.574L262.137 181.137V188.529L266.358 190.957V183.574Z" fill="#D1D7F3"/>
</g>
<g style="mix-blend-mode:multiply">
<path d="M284.833 194.243L289.055 196.671V204.063L284.833 201.626V194.243Z" fill="#D1D7F3"/>
</g>
<g style="mix-blend-mode:multiply">
<path d="M277.706 205.997L273.485 203.56V210.951L277.706 213.389V205.997Z" fill="#D1D7F3"/>
</g>
<g style="mix-blend-mode:multiply">
<path d="M266.358 199.444L262.137 197.007V204.398L266.358 206.836V199.444Z" fill="#D1D7F3"/>
</g>
<g style="mix-blend-mode:multiply">
<path d="M284.833 210.112L289.055 212.55L289.046 219.933L284.833 217.504V210.112Z" fill="#D1D7F3"/>
</g>
<g style="mix-blend-mode:multiply">
<path d="M277.706 221.866L273.485 219.429V226.821L277.706 229.258V221.866Z" fill="#D1D7F3"/>
</g>
<g style="mix-blend-mode:multiply">
<path d="M266.358 215.314L262.137 212.885V220.268L266.358 222.706V215.314Z" fill="#D1D7F3"/>
</g>
<g style="mix-blend-mode:multiply">
<path d="M284.833 225.982L289.055 228.42L289.046 235.811L284.833 233.374V225.982Z" fill="#D1D7F3"/>
</g>
<g style="mix-blend-mode:multiply">
<path d="M277.706 237.745L273.485 235.308V242.7L277.706 245.137V237.745Z" fill="#D1D7F3"/>
</g>
<g style="mix-blend-mode:multiply">
<path d="M266.358 231.192L262.137 228.755V236.147L266.358 238.584V231.192Z" fill="#D1D7F3"/>
</g>
<g style="mix-blend-mode:multiply">
<path d="M284.833 241.86L289.046 244.298L289.055 251.681L284.833 249.252V241.86Z" fill="#D1D7F3"/>
</g>
<g style="mix-blend-mode:multiply">
<path d="M277.706 253.615L273.485 251.178V258.569L277.706 261.007V253.615Z" fill="#D1D7F3"/>
</g>
<g style="mix-blend-mode:multiply">
<path d="M266.358 247.062L262.137 244.634V252.017L266.358 254.454V247.062Z" fill="#D1D7F3"/>
</g>
<g style="mix-blend-mode:multiply">
<path d="M284.833 257.73L289.046 260.167V267.559L284.833 265.122V257.73Z" fill="#D1D7F3"/>
</g>
<g style="mix-blend-mode:multiply">
<path d="M277.706 269.494L273.485 267.056V274.448L277.706 276.877V269.494Z" fill="#D1D7F3"/>
</g>
<g style="mix-blend-mode:multiply">
<path d="M266.358 262.941L262.137 260.503V267.895L266.358 270.332V262.941Z" fill="#D1D7F3"/>
</g>
<g style="mix-blend-mode:multiply">
<path d="M284.833 273.609L289.046 276.046V283.429L284.833 280.991V273.609Z" fill="#D1D7F3"/>
</g>
<g style="mix-blend-mode:multiply">
<path d="M277.706 285.363L273.485 282.926V290.317L277.706 292.755V285.363Z" fill="#D1D7F3"/>
</g>
<g style="mix-blend-mode:multiply">
<path d="M266.358 278.811L262.137 276.373V283.765L266.358 286.202V278.811Z" fill="#D1D7F3"/>
</g>
<g style="mix-blend-mode:multiply">
<path d="M284.833 289.478L289.055 291.916L289.046 299.307L284.833 296.87V289.478Z" fill="#D1D7F3"/>
</g>
<path d="M311.274 205.917L234.99 161.876V158.564L311.274 202.606V205.917Z" fill="#E3E8FF"/>
<path d="M311.274 205.917L387.567 161.876V158.564L311.274 202.606V205.917Z" fill="#CED3F8"/>
<path d="M311.274 202.606L234.99 158.565L311.274 114.515L387.567 158.565L311.274 202.606Z" fill="#F6F6FB"/>
<path style="mix-blend-mode:multiply" d="M315.928 191.867L335.356 188.705L387.567 158.564L367.873 147.19L315.928 191.867Z" fill="url(#paint33_linear_2050_20228)"/>
<path d="M311.274 191.24L254.675 158.556V141.962L311.274 174.637V191.24Z" fill="#FB944B"/>
<path d="M311.274 191.24L367.882 158.556L367.873 141.962L311.274 174.637V191.24Z" fill="#E57139"/>
<g style="mix-blend-mode:multiply">
<path d="M282.978 163.74C281.239 162.733 279.826 163.545 279.826 165.559V173.074L286.131 176.713V169.197C286.131 167.184 284.718 164.746 282.978 163.74Z" fill="#D1D7F3"/>
</g>
<g style="mix-blend-mode:multiply">
<path d="M298.292 172.58C296.552 171.573 295.139 172.394 295.139 174.399V181.914L301.445 185.553V178.037C301.445 176.024 300.032 173.586 298.292 172.58Z" fill="#D1D7F3"/>
</g>
<g style="mix-blend-mode:multiply">
<path d="M267.665 154.899C269.405 155.906 270.818 158.352 270.818 160.357V167.872L264.512 164.234V156.718C264.512 154.705 265.925 153.892 267.665 154.899Z" fill="#D1D7F3"/>
</g>
<path d="M311.274 174.638L254.675 141.962L311.274 109.278L367.873 141.962L311.274 174.638Z" fill="#F6F6FB"/>
<path style="mix-blend-mode:multiply" d="M364.191 141.962L319.072 115.91H311.283L356.393 141.962L311.283 168.005H319.072L364.191 141.962Z" fill="url(#paint34_linear_2050_20228)"/>
<path d="M311.274 168.005L266.164 141.962V137.458L311.274 163.51V168.005Z" fill="#CED3F8"/>
<path d="M311.283 168.005L356.392 141.962V137.458L311.274 163.51L311.283 168.005Z" fill="#BBC0E6"/>
<path d="M311.274 163.51L266.164 137.458L311.274 111.415L356.393 137.458L311.274 163.51Z" fill="white"/>
<path d="M315.928 191.867L342.448 137.617L368.968 161.241L315.928 191.867Z" fill="#CED3F8"/>
<g style="mix-blend-mode:multiply">
<path d="M336.938 164.402C336.938 160.887 339.401 156.613 342.448 154.856C345.495 153.098 347.959 154.52 347.959 158.035C347.959 161.55 345.495 165.824 342.448 167.573C339.401 169.33 336.938 167.908 336.938 164.393V164.402Z" fill="#D1D7F3"/>
</g>
<path d="M339.578 135.957L342.448 137.617L315.928 191.867L313.058 190.216L339.578 135.957Z" fill="#E8ECF7"/>
<path d="M311.274 318.568H316.193L387.567 277.362L382.639 274.518V277.362L311.274 318.568Z" fill="#E8ECF7"/>
<path d="M311.274 191.24H314.833L313.058 190.216L311.274 191.24Z" fill="#E8ECF7"/>
<path d="M244.421 386.666L170.593 429.285V295.033L244.421 252.405V386.666Z" fill="#5652CC"/>
<path d="M195.205 415.076L244.421 386.666V364.976L195.205 393.386V415.076Z" fill="#E57139"/>
<path d="M209.247 276.028L208.222 276.62V379.716L209.247 379.124V276.028Z" fill="#423EAF"/>
<path d="M222.785 268.213L221.76 268.805V371.9L222.785 371.308V268.213Z" fill="#423EAF"/>
<path d="M236.323 260.397L235.299 260.989V364.084L236.323 363.493V260.397Z" fill="#423EAF"/>
<path d="M194.693 284.436L195.717 283.844V386.94L194.693 387.531V284.436Z" fill="#423EAF"/>
<path d="M181.155 292.251L182.179 291.651V422.6L181.155 423.192V292.251Z" fill="#423EAF"/>
<path d="M199.815 395.082L220.295 383.257V400.593L199.815 412.418V395.082Z" fill="#423EAF"/>
<path d="M93.9023 254.065V388.317L108.527 396.769V278.899L155.553 306.055V423.916L170.186 432.367V298.106L93.9023 254.065Z" fill="#E3E8FF"/>
<path d="M110.991 395.347V280.32L155.553 306.055V421.081L110.991 395.347Z" fill="#FB944B"/>
<path d="M108.527 278.899L110.991 280.32V395.347L108.527 396.769V278.899Z" fill="#BBC0E6"/>
<g style="mix-blend-mode:multiply">
<path d="M132.389 301.365L136.61 303.794V311.186L132.389 308.757V301.365Z" fill="#D1D7F3"/>
</g>
<g style="mix-blend-mode:multiply">
<path d="M143.737 307.918L147.958 310.347V317.738L143.737 315.301V307.918Z" fill="#D1D7F3"/>
</g>
<g style="mix-blend-mode:multiply">
<path d="M125.262 297.25L121.05 294.812V302.204L125.262 304.633V297.25Z" fill="#D1D7F3"/>
</g>
<g style="mix-blend-mode:multiply">
<path d="M132.389 317.385L136.61 319.823V327.214L132.389 324.777V317.385Z" fill="#D1D7F3"/>
</g>
<g style="mix-blend-mode:multiply">
<path d="M143.737 323.938L147.958 326.375V333.767L143.737 331.33V323.938Z" fill="#D1D7F3"/>
</g>
<g style="mix-blend-mode:multiply">
<path d="M125.262 313.27L121.05 310.833V318.224L125.262 320.662V313.27Z" fill="#D1D7F3"/>
</g>
<g style="mix-blend-mode:multiply">
<path d="M132.389 333.414L136.61 335.843V343.234L132.389 340.797V333.414Z" fill="#D1D7F3"/>
</g>
<g style="mix-blend-mode:multiply">
<path d="M143.737 339.958L147.958 342.395V349.787L143.737 347.349V339.958Z" fill="#D1D7F3"/>
</g>
<g style="mix-blend-mode:multiply">
<path d="M125.262 329.289L121.05 326.861V334.244L125.262 336.681V329.289Z" fill="#D1D7F3"/>
</g>
<g style="mix-blend-mode:multiply">
<path d="M132.389 349.434L136.61 351.862V359.254L132.389 356.825V349.434Z" fill="#D1D7F3"/>
</g>
<g style="mix-blend-mode:multiply">
<path d="M143.737 355.986L147.958 358.415V365.807L143.737 363.369V355.986Z" fill="#D1D7F3"/>
</g>
<g style="mix-blend-mode:multiply">
<path d="M125.262 345.318L121.05 342.881V350.273L125.262 352.71V345.318Z" fill="#D1D7F3"/>
</g>
<g style="mix-blend-mode:multiply">
<path d="M132.389 365.453L136.61 367.891V375.282L132.389 372.845V365.453Z" fill="#D1D7F3"/>
</g>
<g style="mix-blend-mode:multiply">
<path d="M143.737 372.006L147.958 374.444V381.835L143.737 379.398V372.006Z" fill="#D1D7F3"/>
</g>
<g style="mix-blend-mode:multiply">
<path d="M125.262 361.338L121.05 358.901V366.293L125.262 368.73V361.338Z" fill="#D1D7F3"/>
</g>
<g style="mix-blend-mode:multiply">
<path d="M132.389 381.473L136.61 383.911V391.302L132.389 388.865V381.473Z" fill="#D1D7F3"/>
</g>
<g style="mix-blend-mode:multiply">
<path d="M143.737 388.026L147.958 390.464V397.855L143.737 395.418V388.026Z" fill="#D1D7F3"/>
</g>
<g style="mix-blend-mode:multiply">
<path d="M125.262 377.358L121.05 374.929V382.312L125.262 384.75V377.358Z" fill="#D1D7F3"/>
</g>
<path d="M170.187 298.107V432.368L173.057 430.707V299.767L249.341 255.726V252.405L170.187 298.107Z" fill="#BBC0E6"/>
<path d="M170.186 298.106L93.9023 254.065L173.057 208.364L249.341 252.405L170.186 298.106Z" fill="#F6F6FB"/>
<path style="mix-blend-mode:multiply" d="M199.718 227.183H170.187L216.754 254.065L170.187 280.947H199.904L246.373 254.118L199.718 227.183Z" fill="url(#paint35_linear_2050_20228)"/>
<path d="M170.187 263.903L216.753 237.012V254.065L170.187 280.947V263.903Z" fill="#6B67E9"/>
<path d="M193.978 250.162L192.953 250.754V267.807L193.978 267.215V250.162Z" fill="#5652CC"/>
<path d="M207.516 242.346L206.491 242.938V259.991L207.516 259.399V242.346Z" fill="#5652CC"/>
<path d="M179.424 258.569L180.448 257.977V275.022L179.424 275.613V258.569Z" fill="#5652CC"/>
<path d="M170.186 263.903L123.619 237.012V254.065L170.186 280.947V263.903Z" fill="#807DFB"/>
<path d="M146.395 250.162L147.419 250.754V267.807L146.395 267.215V250.162Z" fill="#6B67E9"/>
<path d="M132.857 242.346L133.881 242.938V259.991L132.857 259.399V242.346Z" fill="#6B67E9"/>
<path d="M160.958 258.569L159.924 257.977V275.022L160.949 275.613L160.958 258.569Z" fill="#6B67E9"/>
<path d="M170.186 200.795L223.915 231.819L170.186 262.843L116.457 231.819L170.186 200.795Z" fill="#F6F6FB"/>
<path d="M170.187 262.843L223.916 231.819V237.021L170.187 268.036V262.843Z" fill="#CED3F8"/>
<path d="M170.186 262.843L116.457 231.819V237.012L170.186 268.036V262.843Z" fill="#E3E8FF"/>
<path d="M249.34 358.821L192.335 391.735V419.58L195.205 417.919V393.386L249.34 362.133V358.821Z" fill="#BBC0E6"/>
<path d="M192.335 391.735L189.871 390.314V418.158L192.335 419.58V391.735Z" fill="#CED3F8"/>
<path d="M244.421 355.977V358.821L189.871 390.313L192.335 391.735L249.34 358.821L244.421 355.977Z" fill="#E8ECF7"/>
<path d="M192.335 313.173L189.871 311.751V367.441L192.335 368.862V313.173Z" fill="#CED3F8"/>
<path d="M195.205 363.881V314.824L249.34 283.57V280.25L195.205 311.512L192.335 313.163V316.484V365.541V368.862L249.34 335.948V332.627L195.205 363.881Z" fill="#BBC0E6"/>
<path d="M244.421 277.415V280.25L189.871 311.751L192.335 313.164L249.34 280.25L244.421 277.415Z" fill="#DAE0F5"/>
<path d="M244.421 329.784V332.628L195.205 361.047V363.881L249.34 332.628L244.421 329.784Z" fill="#E8ECF7"/>
<g style="mix-blend-mode:multiply">
<path d="M108.527 396.769H113.446L110.991 395.347L108.527 396.769Z" fill="#DAE0F5"/>
</g>
<g style="mix-blend-mode:multiply">
<path d="M110.991 395.347V280.32L113.446 281.742V396.769L110.991 395.347Z" fill="#DAE0F5"/>
</g>
<path style="mix-blend-mode:multiply" d="M489.09 334.941H449.906V337.9H489.09V334.941Z" fill="url(#paint36_linear_2050_20228)"/>
<path d="M449.906 337.9L447.557 336.549V310.082L449.906 311.433V337.9Z" fill="#36E0F8"/>
<path d="M449.906 337.9L452.255 336.549V310.082L449.906 311.433V337.9Z" fill="#12A6BB"/>
<path d="M475.738 303.82L449.906 265.502C449.906 265.502 423.677 304.377 423.501 304.659C422.423 306.408 421.885 308.245 421.885 310.082C421.885 314.223 424.622 318.356 430.089 321.518C441.031 327.832 458.773 327.832 469.715 321.518C475.19 318.356 477.919 314.223 477.919 310.082C477.919 307.944 477.186 305.816 475.738 303.82Z" fill="url(#paint37_linear_2050_20228)"/>
<path d="M472.54 288.313L449.897 254.737L427.254 288.313C425.982 290.061 425.337 291.934 425.337 293.806C425.337 297.435 427.731 301.056 432.526 303.829C442.117 309.366 457.66 309.366 467.25 303.829C472.046 301.056 474.448 297.435 474.448 293.806C474.448 291.934 473.803 290.07 472.531 288.313H472.54Z" fill="url(#paint38_linear_2050_20228)"/>
<path d="M469.662 275.525C469.529 275.313 449.906 246.214 449.906 246.214C449.906 246.214 430.274 275.313 430.151 275.525C429.347 276.832 428.941 278.21 428.941 279.578C428.941 282.678 430.99 285.778 435.079 288.136C443.265 292.861 456.538 292.861 464.734 288.136C468.832 285.769 470.872 282.678 470.872 279.578C470.872 278.21 470.465 276.832 469.662 275.525Z" fill="url(#paint39_linear_2050_20228)"/>
<path style="mix-blend-mode:multiply" d="M405.22 395.373C398.261 391.355 389.006 389.5 379.919 389.774H365.674V392.106C362.972 392.962 360.42 394.048 358.141 395.373C345.186 402.906 345.256 415.12 358.3 422.653C360.552 423.951 363.042 425.002 365.683 425.85V428.287H382.771C390.993 428.146 399.136 426.282 405.388 422.653C418.343 415.12 418.282 402.906 405.229 395.373H405.22Z" fill="url(#paint40_linear_2050_20228)"/>
<path d="M334.544 400.16C334.544 395.338 337.723 390.525 344.09 386.843C350.458 383.169 358.803 381.332 367.158 381.332C375.512 381.332 383.849 383.169 390.216 386.843C396.583 390.525 399.771 395.338 399.771 400.16C399.771 404.982 396.583 409.795 390.216 413.478C383.849 417.152 375.503 418.988 367.158 418.988C358.812 418.988 350.467 417.152 344.099 413.478C337.732 409.795 334.544 404.982 334.544 400.16Z" fill="#FFC16B"/>
<path d="M390.207 413.478C383.84 417.151 375.494 418.988 367.149 418.988C358.803 418.988 350.458 417.151 344.091 413.478C337.723 409.795 334.535 404.982 334.535 400.16V409.459C334.535 414.272 337.714 419.094 344.091 422.768C350.458 426.451 358.803 428.288 367.149 428.288C375.494 428.288 383.84 426.451 390.207 422.768C396.574 419.094 399.763 414.272 399.763 409.451V400.16C399.763 404.982 396.574 409.795 390.207 413.478Z" fill="url(#paint41_linear_2050_20228)"/>
<path d="M348.427 410.969C353.593 413.954 360.375 415.447 367.157 415.447C373.94 415.447 380.713 413.954 385.88 410.969C390.649 408.214 393.218 404.673 393.581 401.061C393.21 397.458 390.649 393.916 385.88 391.161C380.705 388.176 373.931 386.684 367.149 386.684C360.366 386.684 353.593 388.176 348.418 391.161C343.649 393.916 341.079 397.458 340.708 401.061C341.079 404.664 343.64 408.214 348.418 410.969H348.427Z" fill="#F9A363"/>
<path d="M348.427 391.161C353.602 388.176 360.375 386.683 367.158 386.683C373.94 386.683 380.714 388.176 385.889 391.161C390.658 393.916 393.227 397.457 393.59 401.061C393.625 400.76 393.642 400.46 393.642 400.151C393.642 396.239 391.055 392.326 385.889 389.342C380.714 386.357 373.94 384.864 367.158 384.864C360.375 384.864 353.602 386.357 348.427 389.342C343.252 392.326 340.664 396.239 340.664 400.151C340.664 400.451 340.691 400.751 340.717 401.052C341.088 397.449 343.649 393.907 348.427 391.152V391.161Z" fill="url(#paint42_linear_2050_20228)"/>
<path d="M380.192 396.274L382.7 394.826V393.016L380.192 394.464V396.274Z" fill="#C85A2B"/>
<path d="M368.641 399.303C367.705 398.765 367.193 398.049 367.193 397.281C367.193 396.513 367.705 395.806 368.641 395.259C370.567 394.146 373.702 394.146 375.636 395.259C377.57 396.371 377.57 398.182 375.636 399.294L378.815 401.131C381.941 399.321 382.4 396.548 380.193 394.455L382.701 393.007L379.53 391.17L377.022 392.618C373.393 391.346 368.597 391.611 365.471 393.422C363.687 394.455 362.707 395.815 362.707 397.272C362.707 398.729 363.687 400.098 365.471 401.123C367.396 402.235 367.396 404.046 365.471 405.167C363.546 406.28 360.402 406.28 358.477 405.167C356.551 404.055 356.551 402.235 358.477 401.131L355.306 399.294C352.171 401.105 351.712 403.869 353.92 405.962L351.606 407.296L354.776 409.132L357.09 407.799C360.72 409.071 365.515 408.806 368.65 406.995C372.324 404.876 372.324 401.414 368.65 399.294L368.641 399.303Z" fill="#FFC16B"/>
<path d="M351.597 409.124L354.776 410.952V409.141L351.597 407.304V409.124Z" fill="#E57139"/>
<path d="M354.776 410.951L357.081 409.618V407.808L354.776 409.141V410.951Z" fill="#C85A2B"/>
<path d="M375.636 401.114L378.815 402.942V401.132L375.636 399.304V401.114Z" fill="#E57139"/>
<path d="M358.468 402.942V401.131C357.099 401.917 356.711 403.057 357.285 404.055C357.523 403.648 357.912 403.269 358.468 402.942Z" fill="#C85A2B"/>
<path d="M352.551 403.065V405.105C352.577 405.591 352.71 406.068 352.948 406.536L353.911 405.98C352.975 405.088 352.524 404.081 352.551 403.074V403.065Z" fill="#E57139"/>
<path d="M365.471 402.942C366.027 403.269 366.424 403.648 366.654 404.055C367.228 403.057 366.831 401.917 365.471 401.131C363.687 400.107 362.707 398.738 362.707 397.281V399.091C362.707 400.549 363.687 401.917 365.471 402.942Z" fill="#E57139"/>
<path d="M381.561 397.281C381.561 398.676 380.661 400.072 378.815 401.131V402.942C380.705 401.856 381.606 400.416 381.553 398.986V397.281H381.561Z" fill="#C85A2B"/>
<path d="M368.641 407.004C365.506 408.815 360.711 409.071 357.081 407.808V409.618C360.711 410.89 365.506 410.625 368.641 408.815C370.46 407.755 371.379 406.377 371.396 404.999V403.163C371.396 404.549 370.469 405.944 368.641 407.004Z" fill="url(#paint43_linear_2050_20228)"/>
<path d="M375.636 395.267C373.711 394.155 370.576 394.155 368.642 395.267C367.706 395.806 367.193 396.521 367.193 397.29C367.193 397.599 367.282 397.908 367.449 398.191C367.688 397.784 368.085 397.396 368.642 397.078C370.567 395.965 373.702 395.965 375.636 397.078C376.201 397.396 376.59 397.784 376.828 398.191C377.402 397.193 377.014 396.053 375.636 395.267Z" fill="url(#paint44_linear_2050_20228)"/>
<path style="mix-blend-mode:multiply" d="M217.751 507.318L197.81 509.561L199.011 514.462L217.751 512.096V507.318Z" fill="url(#paint45_linear_2050_20228)"/>
<path d="M202.888 494.583C202.358 491.881 200.954 490.079 199.709 488.499C198.172 486.547 197.166 485.249 197.987 482.75C199.373 478.555 203.577 464.416 199.709 458.658L197.024 460.468C199.294 463.851 197.598 473.583 194.914 481.743C193.545 485.893 195.461 488.34 197.157 490.503C198.269 491.934 199.329 493.276 199.709 495.21C200.477 499.14 195.09 511.972 195.09 511.981C194.79 512.643 195.081 513.376 195.973 513.897C197.316 514.674 199.488 514.674 200.831 513.897C201.387 513.579 201.705 513.173 201.802 512.758C201.802 512.758 201.802 512.749 201.802 512.74C203.003 508.598 203.798 499.299 202.879 494.601L202.888 494.583Z" fill="url(#paint46_linear_2050_20228)"/>
<path d="M197.828 453.598C195.85 450.348 190.922 438.832 194.799 429.683C198.552 420.808 205.953 427.979 201.502 432.739C196.035 438.585 196.901 448.591 199.409 453.457C199.011 454.817 198.402 454.543 197.828 453.607V453.598Z" fill="url(#paint47_linear_2050_20228)"/>
<path d="M199.056 454.975C197.095 454.975 199.665 435.556 205.335 433.71C211.004 431.864 211.04 438.32 208.311 440.854C201.758 446.948 201.016 454.975 199.047 454.975H199.056Z" fill="url(#paint48_linear_2050_20228)"/>
<path d="M197.598 455.743C192.512 451.116 177.693 451.036 179.697 444.404C181.702 437.772 194.269 446.868 198.888 454.26C199.727 455.593 199.709 457.669 197.598 455.743Z" fill="url(#paint49_linear_2050_20228)"/>
<path d="M198.605 456.706C194.242 453.801 190.63 459.753 189.88 466.385C189.129 473.018 179.424 475.905 182.656 465.149C185.888 454.393 193.474 449.995 198.79 454.587C201.678 457.077 199.32 457.174 198.605 456.697V456.706Z" fill="url(#paint50_linear_2050_20228)"/>
<path d="M198.243 454.994C200.495 451.929 209.282 442.992 219.217 443.107C228.852 443.213 225.037 452.777 218.944 450.472C211.455 447.637 202.535 452.229 198.985 456.398C197.581 456.548 197.599 455.886 198.243 454.994Z" fill="url(#paint51_linear_2050_20228)"/>
<path d="M204.257 455.85C201.272 455.302 198.543 458.022 197.943 456.185C197.378 454.481 217.133 445.226 217.751 458.676C218.034 464.928 208.593 456.644 204.257 455.85Z" fill="url(#paint52_linear_2050_20228)"/>
<path d="M194.825 461.184C194.357 466.482 198.702 471.366 203.913 468.24C207.127 466.315 206.218 460.68 203.736 457.501C202.199 455.532 199.797 454.472 199.073 454.604C196.777 455.011 195.346 455.337 194.825 461.184Z" fill="url(#paint53_linear_2050_20228)"/>
<path style="mix-blend-mode:multiply" d="M286.105 426.009L289.982 423.775L274.457 414.803L244.439 432.129L239.211 429.109L230.115 434.364L245.64 443.327H256.114L265.21 438.073L278.289 436.722L291.465 429.109L286.105 426.009Z" fill="url(#paint54_linear_2050_20228)"/>
<path d="M248.228 433.03V434.319L252.352 436.704V430.654L248.228 433.03Z" fill="#0A0837"/>
<path d="M269.988 420.472V421.761L274.103 424.137V418.096L269.988 420.472Z" fill="#0A0837"/>
<path d="M246.47 438.576C246.47 437.834 246.718 436.951 247.203 436.103C247.689 435.255 248.334 434.602 248.979 434.231C249.623 433.86 250.268 433.772 250.754 434.054C251.239 434.337 251.487 434.937 251.487 435.679C251.487 436.421 251.239 437.304 250.754 438.161C250.259 439.009 249.614 439.662 248.979 440.033C248.334 440.404 247.689 440.492 247.203 440.21C246.709 439.927 246.47 439.326 246.47 438.585V438.576Z" fill="#1F196F"/>
<path d="M247.53 437.957C247.53 437.03 248.184 435.9 248.987 435.441C249.791 434.981 250.435 435.352 250.435 436.28C250.435 437.207 249.782 438.337 248.987 438.796C248.184 439.256 247.53 438.885 247.53 437.957Z" fill="#BBC0E6"/>
<path d="M246.47 438.576C246.47 437.834 246.718 436.951 247.203 436.103C247.689 435.255 248.334 434.602 248.979 434.231C249.623 433.86 250.268 433.772 250.754 434.054L249.173 433.136C248.687 432.853 248.042 432.942 247.398 433.313C246.753 433.683 246.108 434.337 245.623 435.185C245.128 436.033 244.89 436.916 244.89 437.666C244.89 438.417 245.137 439.009 245.623 439.291L247.203 440.201C246.709 439.918 246.47 439.318 246.47 438.576Z" fill="#0A0837"/>
<path d="M268.222 426.018C268.222 425.276 268.469 424.393 268.955 423.536C269.44 422.688 270.085 422.035 270.73 421.664C271.374 421.293 272.019 421.205 272.505 421.487C272.999 421.77 273.238 422.37 273.238 423.112C273.238 423.854 272.991 424.737 272.505 425.594C272.019 426.442 271.374 427.095 270.73 427.466C270.085 427.837 269.44 427.925 268.955 427.643C268.46 427.36 268.222 426.76 268.222 426.018Z" fill="#1F196F"/>
<path d="M269.281 425.4C269.281 424.473 269.935 423.351 270.73 422.883C271.533 422.424 272.178 422.795 272.178 423.722C272.178 424.649 271.525 425.771 270.73 426.239C269.926 426.698 269.281 426.327 269.281 425.4Z" fill="#BBC0E6"/>
<path d="M268.222 426.018C268.222 425.276 268.469 424.393 268.955 423.536C269.44 422.688 270.085 422.035 270.73 421.664C271.374 421.293 272.019 421.205 272.505 421.487L270.924 420.578C270.438 420.295 269.794 420.383 269.149 420.754C268.504 421.125 267.86 421.779 267.374 422.627C266.888 423.474 266.641 424.357 266.641 425.099C266.641 425.841 266.888 426.442 267.374 426.724L268.955 427.634C268.46 427.351 268.222 426.751 268.222 426.009V426.018Z" fill="#0A0837"/>
<path d="M261.598 407.384L254.886 411.252L270.421 420.225L277.132 416.348L261.598 407.384Z" fill="#FFAF6D"/>
<path style="mix-blend-mode:multiply" d="M259.055 408.85L254.886 411.252L270.421 420.225L274.589 417.814L259.055 408.85Z" fill="url(#paint55_linear_2050_20228)"/>
<path d="M254.701 423.104L252.352 430.654L243.256 435.909V441.95L246.797 439.91V436.933C246.797 436.253 247.274 435.423 247.866 435.088L251.292 433.109C251.875 432.774 252.361 433.048 252.361 433.728V436.695L268.557 427.343V424.375C268.557 423.695 269.034 422.865 269.626 422.53L273.052 420.551C273.635 420.216 274.121 420.49 274.121 421.17V424.146L277.141 422.397V416.348L270.429 420.225L267.904 415.491L254.719 423.104H254.701Z" fill="#E57139"/>
<path d="M255.31 423.678C254.984 424.826 253.836 428.111 253.156 430.186C254.674 429.312 259.92 426.283 261.095 425.603V420.34C259.956 421.002 256.193 423.166 255.31 423.678Z" fill="#BBC0E6"/>
<path d="M267.683 416.533C268.116 417.301 269.158 419.262 269.838 420.551C268.319 421.426 263.073 424.455 261.89 425.135V419.871C263.038 419.209 266.791 417.045 267.674 416.533H267.683Z" fill="#BBC0E6"/>
<path d="M227.722 432.986L243.256 441.949V435.909L227.722 426.936V432.986Z" fill="#FB934B"/>
<path d="M230.875 429.524L240.103 434.858V437.851L230.875 432.526V429.524Z" fill="#1F196F"/>
<path d="M228.19 427.979L230.406 429.259V430.637L228.19 429.356V427.979Z" fill="#F6F6FB"/>
<path d="M242.788 436.403L240.571 435.123V436.509L242.788 437.79V436.403Z" fill="#F6F6FB"/>
<path d="M239.176 414.14L252.361 406.527L267.886 415.491L254.701 423.103L239.176 414.14Z" fill="#FFC16B"/>
<path d="M236.818 421.682L227.722 426.936L243.256 435.909L252.352 430.654L236.818 421.682Z" fill="#FFAF6D"/>
<path d="M239.176 414.14L254.701 423.103L252.352 430.654L236.818 421.682L239.176 414.14Z" fill="#FB934B"/>
<path d="M237.657 422.167C238.655 422.75 249.694 429.117 251.513 430.168C252.034 428.358 253.341 424.587 253.668 423.571C252.67 422.997 241.631 416.621 239.812 415.57C239.291 417.248 237.992 421.037 237.657 422.167Z" fill="#CED3F8"/>
<path d="M227.015 432.986V430.707L243.256 440.077V442.364L227.015 432.986Z" fill="#CED3F8"/>
<path d="M243.256 442.364V440.077L245.914 438.54V440.828L243.256 442.364Z" fill="#BBC0E6"/>
<path d="M245.561 438.337L243.256 439.671L227.722 430.707V430.292L227.015 430.707L243.256 440.077L245.914 438.54L245.561 438.337Z" fill="#F6F6FB"/>
<path d="M277.132 419.703V420.109L275.331 421.151L275.693 421.355L277.839 420.109L277.132 419.703Z" fill="#F6F6FB"/>
<path d="M275.693 423.633L275.331 423.43V421.152L275.693 421.355V423.633Z" fill="#CED3F8"/>
<path d="M275.693 423.634V421.355L277.839 420.11V422.397L275.693 423.634Z" fill="#BBC0E6"/>
<path d="M243.256 439.671H243.971L245.914 438.541L245.561 438.337L243.256 439.671Z" fill="url(#paint56_linear_2050_20228)"/>
<path style="mix-blend-mode:screen" d="M239.812 415.57C239.291 417.248 237.992 421.037 237.657 422.167C237.789 422.247 238.098 422.423 238.54 422.679L246.497 419.43C243.565 417.734 240.668 416.065 239.812 415.57ZM248.952 420.843L240.995 424.092C241.507 424.384 242.046 424.702 242.611 425.02L250.568 421.77C250.065 421.478 249.517 421.16 248.952 420.834V420.843ZM252.052 422.635L244.095 425.885C244.448 426.088 244.801 426.291 245.154 426.494L253.111 423.245C252.838 423.086 252.476 422.874 252.052 422.635Z" fill="url(#paint57_linear_2050_20228)"/>
<path d="M144.743 199.382L147.437 199.462L146.925 196.291L149.097 192.582L146.095 193.819L144.743 191.443L143.401 195.373L140.39 197.616L142.562 198.808L142.05 202.57L144.743 199.382Z" fill="#FFAF6D"/>
<path d="M133.678 205.776L136.372 205.856L135.851 202.685L138.032 198.976L135.02 200.213L133.678 197.837L132.327 201.767L129.315 204.01L131.497 205.202L130.985 208.964L133.678 205.776Z" fill="#FFAF6D"/>
<path d="M155.809 192.989L158.503 193.068L157.99 189.906L160.172 186.197L157.16 187.425L155.809 185.058L154.467 188.979L151.455 191.222L153.637 192.423L153.116 196.177L155.809 192.989Z" fill="#FFAF6D"/>
<path d="M271.904 117.72L274.598 117.799L274.086 114.638L276.267 110.929L273.256 112.156L271.904 109.789L270.562 113.711L267.551 115.963L269.732 117.155L269.211 120.908L271.904 117.72Z" fill="#FFAF6D"/>
<path d="M260.839 124.114L263.532 124.193L263.02 121.032L265.193 117.314L262.19 118.55L260.839 116.175L259.497 120.105L256.485 122.348L258.658 123.54L258.145 127.302L260.839 124.114Z" fill="#FFAF6D"/>
<path d="M282.979 111.336L285.672 111.415L285.16 108.245L287.332 104.536L284.321 105.772L282.979 103.396L281.627 107.326L278.616 109.569L280.797 110.762L280.285 114.524L282.979 111.336Z" fill="#FFAF6D"/>
<path d="M294.044 104.941L296.738 105.021L296.226 101.859L298.398 98.1413L295.395 99.3777L294.044 97.0021L292.702 100.932L289.69 103.175L291.863 104.367L291.351 108.129L294.044 104.941Z" fill="#FFAF6D"/>
<path d="M305.11 98.5475L307.803 98.627L307.291 95.4654L309.472 91.7563L306.461 92.9838L305.11 90.6171L303.767 94.547L300.756 96.7901L302.937 97.9823L302.416 101.744L305.11 98.5475Z" fill="#FFAF6D"/>
<defs>
<linearGradient id="paint0_linear_2050_20228" x1="121.977" y1="168.694" x2="165.974" y2="-0.891954" gradientUnits="userSpaceOnUse">
<stop offset="0.17" stop-color="white"/>
<stop offset="0.47" stop-color="#F0F2FC"/>
<stop offset="1" stop-color="#CED3F8"/>
</linearGradient>
<linearGradient id="paint1_linear_2050_20228" x1="199.63" y1="153.469" x2="156.392" y2="1.55429" gradientUnits="userSpaceOnUse">
<stop offset="0.03" stop-color="white"/>
<stop offset="0.24" stop-color="#E7E9F6"/>
<stop offset="0.53" stop-color="#CFD2ED"/>
<stop offset="0.79" stop-color="#C0C4E7"/>
<stop offset="1" stop-color="#BBC0E6"/>
</linearGradient>
<linearGradient id="paint2_linear_2050_20228" x1="127.523" y1="119.486" x2="147.084" y2="60.4498" gradientUnits="userSpaceOnUse">
<stop stop-color="#FEFEFF"/>
<stop offset="1" stop-color="#E8ECF7"/>
</linearGradient>
<linearGradient id="paint3_linear_2050_20228" x1="142.342" y1="74.774" x2="153.999" y2="39.0429" gradientUnits="userSpaceOnUse">
<stop stop-color="#FEFEFF"/>
<stop offset="1" stop-color="#E8ECF7"/>
</linearGradient>
<linearGradient id="paint4_linear_2050_20228" x1="218.705" y1="154.555" x2="184.855" y2="68.442" gradientUnits="userSpaceOnUse">
<stop offset="0.17" stop-color="white"/>
<stop offset="0.54" stop-color="#F0F3FB"/>
<stop offset="1" stop-color="#DAE0F5"/>
</linearGradient>
<linearGradient id="paint5_linear_2050_20228" x1="99.9163" y1="149.609" x2="116.837" y2="124.414" gradientUnits="userSpaceOnUse">
<stop stop-color="#FEFEFF"/>
<stop offset="1" stop-color="#E8ECF7"/>
</linearGradient>
<linearGradient id="paint6_linear_2050_20228" x1="94.0259" y1="206.112" x2="42.9991" y2="294.503" gradientUnits="userSpaceOnUse">
<stop offset="0.55" stop-color="#807DFB"/>
<stop offset="0.58" stop-color="#7471EE"/>
<stop offset="0.65" stop-color="#5E5AD5"/>
<stop offset="0.69" stop-color="#5652CC"/>
</linearGradient>
<linearGradient id="paint7_linear_2050_20228" x1="453.748" y1="54.33" x2="413.689" y2="123.708" gradientUnits="userSpaceOnUse">
<stop offset="0.55" stop-color="#807DFB"/>
<stop offset="0.58" stop-color="#7471EE"/>
<stop offset="0.65" stop-color="#5E5AD5"/>
<stop offset="0.69" stop-color="#5652CC"/>
</linearGradient>
<linearGradient id="paint8_linear_2050_20228" x1="12.4696" y1="399.277" x2="63.7613" y2="399.277" gradientUnits="userSpaceOnUse">
<stop offset="0.43" stop-color="#C2C8E6"/>
<stop offset="0.59" stop-color="#D7DAEE"/>
<stop offset="0.85" stop-color="#F4F5FA"/>
<stop offset="1" stop-color="white"/>
</linearGradient>
<linearGradient id="paint9_linear_2050_20228" x1="2.09601e-05" y1="404.364" x2="56.5904" y2="404.364" gradientUnits="userSpaceOnUse">
<stop stop-color="#FB944B"/>
<stop offset="0.77" stop-color="#D46832"/>
<stop offset="1" stop-color="#C85A2B"/>
</linearGradient>
<linearGradient id="paint10_linear_2050_20228" x1="437.41" y1="456.318" x2="465.829" y2="456.318" gradientUnits="userSpaceOnUse">
<stop offset="0.43" stop-color="#C4C9E4"/>
<stop offset="0.58" stop-color="#D7DAEC"/>
<stop offset="0.85" stop-color="#F4F5FA"/>
<stop offset="1" stop-color="white"/>
</linearGradient>
<linearGradient id="paint11_linear_2050_20228" x1="431.14" y1="458.004" x2="459.576" y2="458.004" gradientUnits="userSpaceOnUse">
<stop stop-color="#807DFB"/>
<stop offset="0.01" stop-color="#7E7BF9"/>
<stop offset="0.45" stop-color="#5D5AD1"/>
<stop offset="0.79" stop-color="#4945B8"/>
<stop offset="1" stop-color="#423EAF"/>
</linearGradient>
<linearGradient id="paint12_linear_2050_20228" x1="170.187" y1="386.604" x2="327.311" y2="386.604" gradientUnits="userSpaceOnUse">
<stop stop-color="#C4CAE9"/>
<stop offset="0.24" stop-color="#CBD0EB"/>
<stop offset="0.61" stop-color="#E0E3F3"/>
<stop offset="1" stop-color="white"/>
</linearGradient>
<linearGradient id="paint13_linear_2050_20228" x1="311.274" y1="302.31" x2="468.407" y2="302.31" gradientUnits="userSpaceOnUse">
<stop stop-color="#C4CAE9"/>
<stop offset="0.18" stop-color="#CED3ED"/>
<stop offset="1" stop-color="white"/>
</linearGradient>
<linearGradient id="paint14_linear_2050_20228" x1="449.906" y1="230.512" x2="579.875" y2="230.512" gradientUnits="userSpaceOnUse">
<stop stop-color="#C4CAE9"/>
<stop offset="0.27" stop-color="#CFD4ED"/>
<stop offset="0.75" stop-color="#EDEEF8"/>
<stop offset="1" stop-color="white"/>
</linearGradient>
<linearGradient id="paint15_linear_2050_20228" x1="452.361" y1="212.664" x2="468.743" y2="212.664" gradientUnits="userSpaceOnUse">
<stop stop-color="#D1D7F3"/>
<stop offset="0.33" stop-color="#DCE0F5"/>
<stop offset="0.92" stop-color="#FAFAFD"/>
<stop offset="1" stop-color="white"/>
</linearGradient>
<linearGradient id="paint16_linear_2050_20228" x1="471.172" y1="202.385" x2="486.653" y2="202.385" gradientUnits="userSpaceOnUse">
<stop stop-color="#D1D7F3"/>
<stop offset="0.33" stop-color="#DCE0F5"/>
<stop offset="0.92" stop-color="#FAFAFD"/>
<stop offset="1" stop-color="white"/>
</linearGradient>
<linearGradient id="paint17_linear_2050_20228" x1="551.076" y1="248.661" x2="587.991" y2="248.661" gradientUnits="userSpaceOnUse">
<stop offset="0.43" stop-color="#C4C9E4"/>
<stop offset="0.58" stop-color="#D7DAEC"/>
<stop offset="0.85" stop-color="#F4F5FA"/>
<stop offset="1" stop-color="white"/>
</linearGradient>
<linearGradient id="paint18_linear_2050_20228" x1="542.943" y1="250.851" x2="579.875" y2="250.851" gradientUnits="userSpaceOnUse">
<stop stop-color="#807DFB"/>
<stop offset="0.01" stop-color="#7E7BF9"/>
<stop offset="0.45" stop-color="#5D5AD1"/>
<stop offset="0.79" stop-color="#4945B8"/>
<stop offset="1" stop-color="#423EAF"/>
</linearGradient>
<linearGradient id="paint19_linear_2050_20228" x1="327.046" y1="312.775" x2="334.553" y2="325.775" gradientUnits="userSpaceOnUse">
<stop stop-color="#FFAF6D"/>
<stop offset="0.22" stop-color="#F6A162"/>
<stop offset="0.63" stop-color="#DF7E47"/>
<stop offset="1" stop-color="#C85A2B"/>
</linearGradient>
<linearGradient id="paint20_linear_2050_20228" x1="330.226" y1="310.938" x2="337.732" y2="323.938" gradientUnits="userSpaceOnUse">
<stop stop-color="white"/>
<stop offset="1" stop-color="#BBC0E6"/>
</linearGradient>
<linearGradient id="paint21_linear_2050_20228" x1="333.414" y1="309.101" x2="340.92" y2="322.101" gradientUnits="userSpaceOnUse">
<stop stop-color="#FFAF6D"/>
<stop offset="0.22" stop-color="#F6A162"/>
<stop offset="0.63" stop-color="#DF7E47"/>
<stop offset="1" stop-color="#C85A2B"/>
</linearGradient>
<linearGradient id="paint22_linear_2050_20228" x1="336.593" y1="307.264" x2="344.099" y2="320.255" gradientUnits="userSpaceOnUse">
<stop stop-color="white"/>
<stop offset="1" stop-color="#BBC0E6"/>
</linearGradient>
<linearGradient id="paint23_linear_2050_20228" x1="339.781" y1="305.419" x2="347.288" y2="318.418" gradientUnits="userSpaceOnUse">
<stop stop-color="#FFAF6D"/>
<stop offset="0.22" stop-color="#F6A162"/>
<stop offset="0.63" stop-color="#DF7E47"/>
<stop offset="1" stop-color="#C85A2B"/>
</linearGradient>
<linearGradient id="paint24_linear_2050_20228" x1="342.96" y1="303.582" x2="350.467" y2="316.581" gradientUnits="userSpaceOnUse">
<stop stop-color="white"/>
<stop offset="1" stop-color="#BBC0E6"/>
</linearGradient>
<linearGradient id="paint25_linear_2050_20228" x1="346.148" y1="301.745" x2="353.655" y2="314.745" gradientUnits="userSpaceOnUse">
<stop stop-color="#FFAF6D"/>
<stop offset="0.22" stop-color="#F6A162"/>
<stop offset="0.63" stop-color="#DF7E47"/>
<stop offset="1" stop-color="#C85A2B"/>
</linearGradient>
<linearGradient id="paint26_linear_2050_20228" x1="349.328" y1="299.908" x2="356.834" y2="312.908" gradientUnits="userSpaceOnUse">
<stop stop-color="white"/>
<stop offset="1" stop-color="#BBC0E6"/>
</linearGradient>
<linearGradient id="paint27_linear_2050_20228" x1="352.516" y1="298.071" x2="360.022" y2="311.071" gradientUnits="userSpaceOnUse">
<stop stop-color="#FFAF6D"/>
<stop offset="0.22" stop-color="#F6A162"/>
<stop offset="0.63" stop-color="#DF7E47"/>
<stop offset="1" stop-color="#C85A2B"/>
</linearGradient>
<linearGradient id="paint28_linear_2050_20228" x1="355.695" y1="296.234" x2="363.201" y2="309.234" gradientUnits="userSpaceOnUse">
<stop stop-color="white"/>
<stop offset="1" stop-color="#BBC0E6"/>
</linearGradient>
<linearGradient id="paint29_linear_2050_20228" x1="358.883" y1="294.389" x2="366.389" y2="307.388" gradientUnits="userSpaceOnUse">
<stop stop-color="#FFAF6D"/>
<stop offset="0.22" stop-color="#F6A162"/>
<stop offset="0.63" stop-color="#DF7E47"/>
<stop offset="1" stop-color="#C85A2B"/>
</linearGradient>
<linearGradient id="paint30_linear_2050_20228" x1="362.062" y1="292.552" x2="369.569" y2="305.551" gradientUnits="userSpaceOnUse">
<stop stop-color="white"/>
<stop offset="1" stop-color="#BBC0E6"/>
</linearGradient>
<linearGradient id="paint31_linear_2050_20228" x1="365.25" y1="290.715" x2="372.757" y2="303.714" gradientUnits="userSpaceOnUse">
<stop stop-color="#FFAF6D"/>
<stop offset="0.22" stop-color="#F6A162"/>
<stop offset="0.63" stop-color="#DF7E47"/>
<stop offset="1" stop-color="#C85A2B"/>
</linearGradient>
<linearGradient id="paint32_linear_2050_20228" x1="368.429" y1="288.878" x2="375.936" y2="301.877" gradientUnits="userSpaceOnUse">
<stop stop-color="white"/>
<stop offset="1" stop-color="#BBC0E6"/>
</linearGradient>
<linearGradient id="paint33_linear_2050_20228" x1="315.928" y1="169.533" x2="387.567" y2="169.533" gradientUnits="userSpaceOnUse">
<stop stop-color="#DAE0F5"/>
<stop offset="1" stop-color="white"/>
</linearGradient>
<linearGradient id="paint34_linear_2050_20228" x1="311.283" y1="141.962" x2="364.191" y2="141.962" gradientUnits="userSpaceOnUse">
<stop stop-color="#DAE0F5"/>
<stop offset="0.35" stop-color="#E3E7F7"/>
<stop offset="0.93" stop-color="#FBFCFE"/>
<stop offset="1" stop-color="white"/>
</linearGradient>
<linearGradient id="paint35_linear_2050_20228" x1="170.187" y1="254.065" x2="246.373" y2="254.065" gradientUnits="userSpaceOnUse">
<stop offset="0.25" stop-color="#D1D7F3"/>
<stop offset="0.54" stop-color="#DFE3F6"/>
<stop offset="1" stop-color="white"/>
</linearGradient>
<linearGradient id="paint36_linear_2050_20228" x1="449.906" y1="336.416" x2="489.09" y2="336.416" gradientUnits="userSpaceOnUse">
<stop stop-color="#C4C8E2"/>
<stop offset="0.15" stop-color="#D7D9EB"/>
<stop offset="0.41" stop-color="#F4F4F9"/>
<stop offset="0.56" stop-color="white"/>
</linearGradient>
<linearGradient id="paint37_linear_2050_20228" x1="423.047" y1="314.729" x2="467.349" y2="289.148" gradientUnits="userSpaceOnUse">
<stop stop-color="#36E0F8"/>
<stop offset="0.235714" stop-color="#4BCBDE"/>
<stop offset="0.518902" stop-color="#30B5C8"/>
<stop offset="1" stop-color="#1B95A7"/>
</linearGradient>
<linearGradient id="paint38_linear_2050_20228" x1="426.356" y1="297.882" x2="465.184" y2="275.462" gradientUnits="userSpaceOnUse">
<stop stop-color="#36E0F8"/>
<stop offset="0.235714" stop-color="#4BCBDE"/>
<stop offset="0.518902" stop-color="#30B5C8"/>
<stop offset="1" stop-color="#1B95A7"/>
</linearGradient>
<linearGradient id="paint39_linear_2050_20228" x1="429.811" y1="283.055" x2="462.964" y2="263.913" gradientUnits="userSpaceOnUse">
<stop stop-color="#36E0F8"/>
<stop offset="0.235714" stop-color="#4BCBDE"/>
<stop offset="0.518902" stop-color="#30B5C8"/>
<stop offset="1" stop-color="#1B95A7"/>
</linearGradient>
<linearGradient id="paint40_linear_2050_20228" x1="348.462" y1="409.017" x2="415.049" y2="409.017" gradientUnits="userSpaceOnUse">
<stop offset="0.37" stop-color="#C4C9E4"/>
<stop offset="1" stop-color="white"/>
</linearGradient>
<linearGradient id="paint41_linear_2050_20228" x1="334.544" y1="414.228" x2="399.763" y2="414.228" gradientUnits="userSpaceOnUse">
<stop stop-color="#FB944B"/>
<stop offset="1" stop-color="#C85A2B"/>
</linearGradient>
<linearGradient id="paint42_linear_2050_20228" x1="340.664" y1="392.971" x2="393.634" y2="392.971" gradientUnits="userSpaceOnUse">
<stop stop-color="#C85A2B"/>
<stop offset="1" stop-color="#FB944B"/>
</linearGradient>
<linearGradient id="paint43_linear_2050_20228" x1="357.081" y1="406.783" x2="371.405" y2="406.783" gradientUnits="userSpaceOnUse">
<stop stop-color="#FB944B"/>
<stop offset="1" stop-color="#C85A2B"/>
</linearGradient>
<linearGradient id="paint44_linear_2050_20228" x1="367.193" y1="396.309" x2="377.084" y2="396.309" gradientUnits="userSpaceOnUse">
<stop stop-color="#C85A2B"/>
<stop offset="1" stop-color="#FB944B"/>
</linearGradient>
<linearGradient id="paint45_linear_2050_20228" x1="197.81" y1="510.886" x2="217.751" y2="510.886" gradientUnits="userSpaceOnUse">
<stop stop-color="#C4CAE8"/>
<stop offset="0.34" stop-color="#D4D9EE"/>
<stop offset="1" stop-color="white"/>
</linearGradient>
<linearGradient id="paint46_linear_2050_20228" x1="213.177" y1="501.675" x2="184.502" y2="472.991" gradientUnits="userSpaceOnUse">
<stop stop-color="#20196F"/>
<stop offset="0.15" stop-color="#2A2481"/>
<stop offset="0.52" stop-color="#423DA9"/>
<stop offset="0.82" stop-color="#504CC2"/>
<stop offset="1" stop-color="#5652CC"/>
</linearGradient>
<linearGradient id="paint47_linear_2050_20228" x1="196.547" y1="453.271" x2="198.676" y2="425.771" gradientUnits="userSpaceOnUse">
<stop stop-color="#E57139"/>
<stop offset="1" stop-color="#FFAF6D"/>
</linearGradient>
<linearGradient id="paint48_linear_2050_20228" x1="197.908" y1="454.366" x2="208.099" y2="433.33" gradientUnits="userSpaceOnUse">
<stop stop-color="#E57139"/>
<stop offset="1" stop-color="#FFAF6D"/>
</linearGradient>
<linearGradient id="paint49_linear_2050_20228" x1="199.682" y1="455.108" x2="179.415" y2="443.194" gradientUnits="userSpaceOnUse">
<stop stop-color="#E57139"/>
<stop offset="1" stop-color="#FFAF6D"/>
</linearGradient>
<linearGradient id="paint50_linear_2050_20228" x1="198.861" y1="454.869" x2="180.669" y2="468.62" gradientUnits="userSpaceOnUse">
<stop stop-color="#E57139"/>
<stop offset="1" stop-color="#FFAF6D"/>
</linearGradient>
<linearGradient id="paint51_linear_2050_20228" x1="197.828" y1="455.444" x2="223.783" y2="444.838" gradientUnits="userSpaceOnUse">
<stop stop-color="#E57139"/>
<stop offset="1" stop-color="#FFAF6D"/>
</linearGradient>
<linearGradient id="paint52_linear_2050_20228" x1="198.278" y1="457.307" x2="217.901" y2="455.885" gradientUnits="userSpaceOnUse">
<stop stop-color="#E57139"/>
<stop offset="1" stop-color="#FFAF6D"/>
</linearGradient>
<linearGradient id="paint53_linear_2050_20228" x1="199.126" y1="454.375" x2="201.14" y2="468.125" gradientUnits="userSpaceOnUse">
<stop stop-color="#FB944B"/>
<stop offset="0.28" stop-color="#FCA05A"/>
<stop offset="0.67" stop-color="#FEAB68"/>
<stop offset="1" stop-color="#FFAF6D"/>
</linearGradient>
<linearGradient id="paint54_linear_2050_20228" x1="230.115" y1="429.065" x2="291.465" y2="429.065" gradientUnits="userSpaceOnUse">
<stop stop-color="#C4CAE8"/>
<stop offset="0.24" stop-color="#C9CEEA"/>
<stop offset="0.53" stop-color="#D8DCEF"/>
<stop offset="0.85" stop-color="#F0F2F9"/>
<stop offset="1" stop-color="white"/>
</linearGradient>
<linearGradient id="paint55_linear_2050_20228" x1="254.886" y1="414.538" x2="274.589" y2="414.538" gradientUnits="userSpaceOnUse">
<stop stop-color="#DAE0F5"/>
<stop offset="0.33" stop-color="#E1E6F7"/>
<stop offset="0.83" stop-color="#F6F7FC"/>
<stop offset="1" stop-color="white"/>
</linearGradient>
<linearGradient id="paint56_linear_2050_20228" x1="243.256" y1="439.009" x2="245.914" y2="439.009" gradientUnits="userSpaceOnUse">
<stop stop-color="#D1D7F3"/>
<stop offset="1" stop-color="#DAE0F5"/>
</linearGradient>
<linearGradient id="paint57_linear_2050_20228" x1="243.008" y1="425.558" x2="246.532" y2="419.271" gradientUnits="userSpaceOnUse">
<stop stop-color="#423EAF"/>
<stop offset="0.12" stop-color="#3C39A1"/>
<stop offset="0.36" stop-color="#2F2C7D"/>
<stop offset="0.67" stop-color="#191743"/>
<stop offset="1"/>
</linearGradient>
</defs>
</svg>
