<svg width="121" height="26" viewBox="0 0 121 26" fill="none" xmlns="http://www.w3.org/2000/svg">
<path fill-rule="evenodd" clip-rule="evenodd" d="M116.69 13.4487C111.85 17.3458 104.339 21.5614 95.8776 22.8829C86.5144 24.3454 75.9568 22.2759 66.4429 12.1948C56.4056 1.559 43.9541 -0.639202 32.5669 0.900433C23.6293 2.10887 15.3035 5.62033 9.19041 9.19777C8.21928 8.18115 6.85026 7.54785 5.33333 7.54785C2.38781 7.54785 0 9.93566 0 12.8812C0 15.8267 2.38781 18.2145 5.33333 18.2145C8.27885 18.2145 10.6667 15.8267 10.6667 12.8812C10.6667 12.1729 10.5286 11.4969 10.2779 10.8786C16.193 7.42845 24.2385 4.0447 32.8349 2.8824C43.76 1.40523 55.5032 3.51675 64.9884 13.5675C74.9971 24.173 86.2355 26.4133 96.1863 24.859C104.501 23.5603 111.894 19.621 116.953 15.7809L116.019 18.0484C115.809 18.5591 116.053 19.1436 116.563 19.3538C117.074 19.5641 117.658 19.3206 117.869 18.8099L120.153 13.262L120.626 12.1125L119.402 11.8965L113.854 10.9174C113.311 10.8215 112.792 11.1846 112.696 11.7284C112.6 12.2723 112.963 12.791 113.507 12.887L116.69 13.4487Z" fill="#36E0F8"/>
</svg>
