<svg width="173" height="121" viewBox="0 0 173 121" fill="none" xmlns="http://www.w3.org/2000/svg">
<path d="M24.7888 108.485C47.811 114.686 53.2581 98.6995 82.7985 112.199C107.113 123.311 141.854 116.348 144.51 99.4678C146.322 87.9515 151.719 84.6862 159.202 83.7967C182.815 80.9907 160.893 42.2703 134.918 45.0011C98.6449 48.8156 93.9787 40.0217 85.5711 30.5932C71.708 15.0432 50.1765 38.4663 41.6395 50.9785C34.28 61.7641 12.7776 59.4237 3.88777 71.6896C-7.53879 87.4567 8.27216 104.038 24.7888 108.485Z" fill="url(#paint0_linear_2050_22169)"/>
<g style="mix-blend-mode:multiply">
<path d="M3.83132 63.854L6.97347 70.6227C7.16346 71.0319 7.66244 71.1906 8.05286 70.9651L16.6337 66.0108C17.2622 65.6475 17.0847 64.6975 16.3665 64.5869L4.64348 62.7726C4.03801 62.6786 3.57243 63.2987 3.82923 63.854H3.83132Z" fill="#E8ECF7"/>
</g>
<g style="mix-blend-mode:multiply">
<path d="M131.236 112.715C128.67 111.235 124.513 111.235 121.947 112.715C119.381 114.195 119.381 116.596 121.947 118.078C124.513 119.559 128.67 119.559 131.236 118.078C133.801 116.598 133.799 114.197 131.236 112.715ZM124.139 116.811C122.784 116.028 122.784 114.761 124.139 113.98C125.494 113.197 127.69 113.197 129.043 113.98C130.398 114.763 130.398 116.03 129.043 116.811C127.688 117.594 125.492 117.594 124.139 116.811Z" fill="#E8ECF7"/>
</g>
<g style="mix-blend-mode:multiply">
<path d="M157.256 60.1065C157.709 60.3675 158.442 60.3675 158.893 60.1065C159.346 59.8455 159.346 59.4217 158.893 59.1607C158.439 58.8997 157.707 58.8997 157.256 59.1607C156.805 59.4217 156.805 59.8455 157.256 60.1065Z" fill="#E8ECF7"/>
<path d="M161.262 62.4176C161.713 62.6786 162.448 62.6786 162.899 62.4176C163.352 62.1567 163.352 61.7328 162.899 61.4719C162.446 61.2109 161.713 61.2109 161.262 61.4719C160.809 61.7328 160.809 62.1567 161.262 62.4176Z" fill="#E8ECF7"/>
<path d="M165.267 64.731C165.718 64.992 166.452 64.992 166.903 64.731C167.356 64.47 167.356 64.0462 166.903 63.7852C166.452 63.5242 165.718 63.5242 165.267 63.7852C164.813 64.0462 164.813 64.47 165.267 64.731Z" fill="#E8ECF7"/>
<path d="M170.91 66.0984C170.457 65.8375 169.724 65.8375 169.273 66.0984C168.82 66.3594 168.82 66.7832 169.273 67.0442C169.726 67.3052 170.459 67.3052 170.91 67.0442C171.363 66.7832 171.363 66.3594 170.91 66.0984Z" fill="#E8ECF7"/>
<path d="M153.251 62.4176C153.704 62.6786 154.437 62.6786 154.888 62.4176C155.341 62.1567 155.341 61.7328 154.888 61.4719C154.435 61.2109 153.702 61.2109 153.251 61.4719C152.8 61.7328 152.8 62.1567 153.251 62.4176Z" fill="#E8ECF7"/>
<path d="M157.256 64.731C157.709 64.992 158.442 64.992 158.893 64.731C159.346 64.47 159.346 64.0462 158.893 63.7852C158.442 63.5242 157.707 63.5242 157.256 63.7852C156.805 64.0462 156.805 64.47 157.256 64.731Z" fill="#E8ECF7"/>
<path d="M161.262 67.0421C161.715 67.3031 162.448 67.3031 162.899 67.0421C163.35 66.7812 163.35 66.3573 162.899 66.0964C162.446 65.8354 161.715 65.8354 161.262 66.0964C160.809 66.3573 160.809 66.7812 161.262 67.0421Z" fill="#E8ECF7"/>
<path d="M166.903 68.4097C166.452 68.1487 165.717 68.1487 165.266 68.4097C164.815 68.6707 164.815 69.0945 165.266 69.3555C165.717 69.6165 166.452 69.6165 166.903 69.3555C167.356 69.0945 167.356 68.6707 166.903 68.4097Z" fill="#E8ECF7"/>
<path d="M149.245 64.731C149.698 64.992 150.431 64.992 150.882 64.731C151.333 64.47 151.333 64.0462 150.882 63.7852C150.429 63.5242 149.696 63.5242 149.245 63.7852C148.794 64.0462 148.794 64.47 149.245 64.731Z" fill="#E8ECF7"/>
<path d="M153.251 67.0421C153.704 67.3031 154.437 67.3031 154.888 67.0421C155.341 66.7812 155.341 66.3573 154.888 66.0964C154.435 65.8354 153.702 65.8354 153.251 66.0964C152.8 66.3573 152.8 66.7812 153.251 67.0421Z" fill="#E8ECF7"/>
<path d="M157.256 69.3555C157.707 69.6165 158.442 69.6165 158.893 69.3555C159.346 69.0945 159.346 68.6707 158.893 68.4097C158.442 68.1487 157.707 68.1487 157.256 68.4097C156.803 68.6707 156.803 69.0945 157.256 69.3555Z" fill="#E8ECF7"/>
<path d="M162.899 70.723C162.446 70.462 161.713 70.462 161.262 70.723C160.809 70.9839 160.809 71.4078 161.262 71.6687C161.715 71.9297 162.448 71.9297 162.899 71.6687C163.35 71.4078 163.35 70.9839 162.899 70.723Z" fill="#E8ECF7"/>
<path d="M145.238 67.0421C145.691 67.3031 146.424 67.3031 146.875 67.0421C147.328 66.7812 147.328 66.3573 146.875 66.0964C146.424 65.8354 145.689 65.8354 145.238 66.0964C144.787 66.3573 144.787 66.7812 145.238 67.0421Z" fill="#E8ECF7"/>
<path d="M149.245 69.3555C149.696 69.6165 150.43 69.6165 150.881 69.3555C151.332 69.0945 151.332 68.6707 150.881 68.4097C150.43 68.1487 149.696 68.1487 149.245 68.4097C148.792 68.6707 148.792 69.0945 149.245 69.3555Z" fill="#E8ECF7"/>
<path d="M153.251 71.6687C153.704 71.9297 154.437 71.9297 154.888 71.6687C155.341 71.4078 155.341 70.9839 154.888 70.723C154.435 70.462 153.702 70.462 153.251 70.723C152.8 70.9839 152.8 71.4078 153.251 71.6687Z" fill="#E8ECF7"/>
<path d="M158.893 73.0362C158.442 72.7752 157.707 72.7752 157.256 73.0362C156.805 73.2972 156.805 73.721 157.256 73.982C157.707 74.2429 158.442 74.2429 158.893 73.982C159.346 73.721 159.346 73.2972 158.893 73.0362Z" fill="#E8ECF7"/>
<path d="M142.871 68.4097C142.418 68.1487 141.685 68.1487 141.234 68.4097C140.781 68.6707 140.781 69.0945 141.234 69.3555C141.687 69.6165 142.42 69.6165 142.871 69.3555C143.322 69.0945 143.322 68.6707 142.871 68.4097Z" fill="#E8ECF7"/>
<path d="M146.877 70.723C146.426 70.462 145.692 70.462 145.241 70.723C144.79 70.9839 144.79 71.4078 145.241 71.6687C145.694 71.9297 146.426 71.9297 146.877 71.6687C147.33 71.4078 147.33 70.9839 146.877 70.723Z" fill="#E8ECF7"/>
<path d="M150.881 73.0362C150.43 72.7752 149.696 72.7752 149.245 73.0362C148.792 73.2972 148.792 73.721 149.245 73.982C149.696 74.2429 150.43 74.2429 150.881 73.982C151.332 73.721 151.332 73.2972 150.881 73.0362Z" fill="#E8ECF7"/>
<path d="M154.888 75.3475C154.435 75.0865 153.702 75.0865 153.251 75.3475C152.8 75.6084 152.8 76.0323 153.251 76.2932C153.704 76.5542 154.437 76.5542 154.888 76.2932C155.341 76.0323 155.341 75.6084 154.888 75.3475Z" fill="#E8ECF7"/>
</g>
<path d="M19.2185 82.1327C18.7654 81.8718 18.0326 81.8718 17.5816 82.1327C17.1307 82.3937 17.1307 82.8175 17.5816 83.0785C18.0347 83.3395 18.7675 83.3395 19.2185 83.0785C19.6715 82.8175 19.6715 82.3937 19.2185 82.1327Z" fill="white"/>
<path d="M15.2141 84.444C14.761 84.183 14.0282 84.183 13.5772 84.444C13.1263 84.705 13.1263 85.1288 13.5772 85.3898C14.0303 85.6508 14.7631 85.6508 15.2141 85.3898C15.6671 85.1288 15.6671 84.705 15.2141 84.444Z" fill="white"/>
<path d="M11.2076 86.7573C10.7566 86.4963 10.0217 86.4963 9.57075 86.7573C9.11769 87.0182 9.11769 87.4421 9.57075 87.703C10.0217 87.964 10.7566 87.964 11.2076 87.703C11.6586 87.4421 11.6586 87.0182 11.2076 86.7573Z" fill="white"/>
<path d="M7.20309 89.0706C6.75004 88.8096 6.01722 88.8096 5.56625 89.0706C5.11529 89.3316 5.11529 89.7554 5.56625 90.0164C6.01931 90.2774 6.75213 90.2774 7.20309 90.0164C7.65406 89.7554 7.65406 89.3316 7.20309 89.0706Z" fill="white"/>
<path d="M3.19674 91.3818C2.74369 91.1208 2.01087 91.1208 1.5599 91.3818C1.10894 91.6427 1.10894 92.0666 1.5599 92.3275C2.01296 92.5885 2.74578 92.5885 3.19674 92.3275C3.64771 92.0666 3.64771 91.6427 3.19674 91.3818Z" fill="white"/>
<g style="mix-blend-mode:multiply">
<path d="M60.1793 25.881L63.7786 27.9584C64.3277 28.2757 64.2588 28.829 63.6241 29.1944L60.3317 31.0943C59.6991 31.4596 58.7387 31.4993 58.1917 31.182L54.5923 29.1046C54.0432 28.7872 54.1121 28.234 54.7468 27.8686L58.0393 25.9687C58.674 25.6033 59.6323 25.5637 60.1793 25.881Z" fill="#E8ECF7"/>
</g>
<path style="mix-blend-mode:multiply" d="M64.5427 36.6083H50.1118V41.166C50.1118 42.3602 49.2662 43.8258 48.2327 44.4229L22.0893 59.5178L22.0579 59.5366L21.8366 59.6639C21.3418 59.9499 20.8908 59.9854 20.5526 59.8142H20.5505C20.5505 59.8142 21.4441 60.3258 21.5777 60.4051C21.8993 60.616 22.6404 60.7496 23.7177 60.7496H60.1896C61.6365 60.7496 63.313 60.5095 64.5448 60.1608V36.6083H64.5427Z" fill="url(#paint1_linear_2050_22169)"/>
<path d="M42.5121 15.7197L16.1139 30.9606C15.0804 31.5577 14.2349 33.0234 14.2349 34.2176V55.2752C14.2349 55.8974 14.4666 56.3254 14.832 56.5112L20.467 59.7661C20.1517 59.5594 19.9555 59.1523 19.9555 58.5802V37.5226C19.9555 36.3284 20.801 34.8627 21.8366 34.2656L48.2348 19.0246C48.6837 18.7658 49.0991 18.7115 49.4227 18.8305L43.9673 15.68C43.6207 15.3919 43.0967 15.3835 42.5142 15.7197H42.5121Z" fill="url(#paint2_linear_2050_22169)"/>
<path d="M50.1138 41.1658C50.1138 42.36 49.2682 43.8257 48.2348 44.4228L21.8365 59.6638C20.8031 60.2609 19.9575 59.7723 19.9575 58.5781V37.5205C19.9575 36.3263 20.8031 34.8606 21.8386 34.2635L48.2368 19.0225C49.2703 18.4254 50.1159 18.914 50.1159 20.1082V41.1658H50.1138Z" fill="#023AC2"/>
<path d="M50.1138 20.1104C50.1138 18.9162 49.2682 18.4276 48.2348 19.0247L21.8365 34.2657C20.8031 34.8628 19.9575 36.3285 19.9575 37.5227V49.7865C22.4608 48.3417 47.7149 33.7897 50.1138 32.3742V20.1104Z" fill="#1855E7"/>
<path style="mix-blend-mode:multiply" d="M38.3783 22.5552H36.6809C36.4596 22.8162 36.3176 23.075 36.1715 23.3381C35.8291 23.9624 35.4762 24.6096 34.0273 25.4447C32.5783 26.2819 30.6951 26.927 28.8725 27.5513C28.7806 27.5826 28.6888 27.6139 28.5969 27.6452H27.1647V28.591L24.1958 30.3051H27.267L30.2358 28.591L29.8266 28.3551C30.3924 28.1463 31.0125 27.9313 31.6764 27.7037C33.5158 27.0732 35.5994 26.3592 37.184 25.4447C38.7687 24.5302 39.1591 23.8162 39.5057 23.1857C39.6268 22.9665 39.7416 22.7577 39.8961 22.5552H38.3762H38.3783Z" fill="url(#paint3_linear_2050_22169)"/>
<path style="mix-blend-mode:multiply" d="M41.5831 20.1521H38.512L40.1488 21.0979L37.1799 22.8099H40.2511L43.22 21.0979L41.5831 20.1521Z" fill="url(#paint4_linear_2050_22169)"/>
<path d="M37.1799 21.0373L40.1488 19.3232V21.0979L37.1799 22.8099V21.0373Z" fill="#BBC0E6"/>
<path d="M37.1798 21.0373L35.543 20.0915L38.5118 18.3774L40.1487 19.3232L37.1798 21.0373Z" fill="#F6F6FB"/>
<path d="M37.1798 22.8099L35.543 21.8662V20.0916L37.1798 21.0373V22.8099Z" fill="#CED3F8"/>
<path d="M35.7351 20.7638C35.3843 20.8515 35.0252 20.9183 34.6432 20.9893C33.5512 21.1897 32.3132 21.4152 30.7285 22.3296C29.1439 23.2441 27.9058 24.4467 26.8139 25.5094C25.8953 26.403 25.1019 27.1734 24.2375 27.6723V28.6181L25.4694 29.3301V28.3843C26.3337 27.8853 27.1271 27.1128 28.0457 26.2213C29.1376 25.1607 30.3757 23.956 31.9603 23.0416C33.545 22.1271 34.7831 21.9016 35.875 21.7012C36.255 21.6323 36.6141 21.5655 36.9669 21.4757L35.7351 20.7638Z" fill="#7CA6FF"/>
<path d="M36.969 21.4738C36.6161 21.5635 36.257 21.6303 35.8771 21.6992C34.7851 21.8997 33.5471 22.1252 31.9624 23.0396C30.3778 23.9541 29.1397 25.1587 28.0478 26.2193C27.1292 27.1129 26.3358 27.8833 25.4714 28.3823V29.3281C26.4736 28.7498 27.3672 27.8812 28.3129 26.9605C29.3944 25.9083 30.5135 24.8205 31.9624 23.9854C33.4114 23.1482 34.5304 22.9457 35.6119 22.7473C36.0712 22.6638 36.518 22.5803 36.969 22.4529V21.4738Z" fill="#023AC2"/>
<path d="M24.198 28.5326L27.1669 26.8206V28.5931L24.198 30.3072V28.5326Z" fill="#BBC0E6"/>
<path d="M24.1979 28.5327L22.561 27.589L25.5278 25.8749L27.1667 26.8207L24.1979 28.5327Z" fill="#F6F6FB"/>
<path d="M24.1979 30.3072L22.561 29.3614V27.5889L24.1979 28.5326V30.3072Z" fill="#CED3F8"/>
<path d="M46.5414 37.7545C47.126 37.4162 47.602 36.5957 47.602 35.9193V34.6102L45.4829 35.8337V37.1427C45.4829 37.8192 45.9568 38.0927 46.5435 37.7545H46.5414Z" fill="#BBC0E6"/>
<path d="M47.6022 34.6123L47.0928 34.3179L44.9736 35.5413L45.4831 35.8357L47.6022 34.6123Z" fill="#F6F6FB"/>
<path d="M45.4831 37.1427V35.8337L44.9736 35.5393V36.8484C44.9736 37.1887 45.0947 37.4267 45.2889 37.5373L45.79 37.8275C45.6 37.7148 45.4831 37.4789 45.4831 37.1448V37.1427Z" fill="#CED3F8"/>
<path d="M46.5416 31.8501C45.957 32.1883 45.481 33.0088 45.481 33.6853V35.6457L47.6001 34.4223V32.4618C47.6001 31.7854 47.1261 31.5119 46.5395 31.8501H46.5416Z" fill="#BBC0E6"/>
<path d="M46.5417 31.8501C46.8089 31.6956 47.0532 31.6705 47.239 31.752L46.8298 31.516C46.6357 31.372 46.3517 31.3741 46.0323 31.5578C45.4477 31.896 44.9717 32.7165 44.9717 33.393V35.3534L45.4811 35.6478V33.6874C45.4811 33.0109 45.955 32.1904 46.5417 31.8522V31.8501Z" fill="url(#paint5_linear_2050_22169)"/>
<g style="mix-blend-mode:multiply">
<path d="M45.8086 33.7312C45.8086 33.2635 46.1385 32.6935 46.5435 32.4597C46.9485 32.2259 47.2784 32.4158 47.2784 32.8835C47.2784 33.3512 46.9506 33.9212 46.5435 34.155C46.1385 34.3888 45.8086 34.1988 45.8086 33.7312Z" fill="#DAE0F5"/>
</g>
<path d="M27.027 48.8261C27.6116 48.4879 28.0876 47.6653 28.0876 46.9909V45.6819L25.9685 46.9053V48.2144C25.9685 48.8908 26.4424 49.1643 27.0291 48.8261H27.027Z" fill="#BBC0E6"/>
<path d="M28.0874 45.6818L27.578 45.3875L25.4568 46.6109L25.9683 46.9053L28.0874 45.6818Z" fill="#F6F6FB"/>
<path d="M25.9684 48.2144V46.9053L25.459 46.611V47.92C25.459 48.2603 25.5801 48.4983 25.7742 48.609L26.2753 48.8992C26.0853 48.7865 25.9684 48.5505 25.9684 48.2165V48.2144Z" fill="#CED3F8"/>
<path d="M27.0269 42.9217C26.4423 43.26 25.9663 44.0805 25.9663 44.7569V46.7174L28.0854 45.4939V43.5335C28.0854 42.857 27.6115 42.5835 27.0248 42.9217H27.0269Z" fill="#BBC0E6"/>
<path d="M27.0268 42.9218C27.2941 42.7673 27.5383 42.7422 27.7241 42.8236L27.3149 42.5877C27.1208 42.4436 26.8368 42.4457 26.5174 42.6295C25.9328 42.9677 25.4568 43.7882 25.4568 44.4646V46.4251L25.9662 46.7195V44.759C25.9662 44.0826 26.4401 43.2621 27.0268 42.9238V42.9218Z" fill="url(#paint6_linear_2050_22169)"/>
<g style="mix-blend-mode:multiply">
<path d="M26.292 44.8028C26.292 44.3351 26.6219 43.7652 27.0269 43.5313C27.4319 43.2975 27.7618 43.4875 27.7618 43.9552C27.7618 44.4228 27.434 44.9928 27.0269 45.2266C26.6219 45.4605 26.292 45.2705 26.292 44.8028Z" fill="#DAE0F5"/>
</g>
<path d="M88.4938 78.2704L46.8838 102.293L78.0171 120.269L119.529 96.3007L88.4938 78.2704Z" fill="white"/>
<path d="M83.7127 87.1895C84.7378 86.5986 86.4018 86.5986 87.4269 87.1895C88.452 87.7824 88.452 88.7428 87.4269 89.3357C86.4018 89.9266 84.7378 89.9287 83.7127 89.3357C82.6876 88.7428 82.6876 87.7824 83.7127 87.1895Z" fill="#FFAF6D"/>
<path d="M91.0869 89.6281L105.269 97.8164L104.219 98.424L90.0347 90.2356L91.0869 89.6281Z" fill="#1855E7"/>
<path d="M89.0287 90.8159L97.478 95.6951L96.4279 96.3006L87.9785 91.4214L89.0287 90.8159Z" fill="#1855E7"/>
<path d="M76.7418 91.2148C77.767 90.6219 79.4309 90.6219 80.4581 91.2148C81.4833 91.8057 81.4833 92.7661 80.4581 93.359C79.433 93.9499 77.769 93.952 76.7439 93.359C75.7188 92.7661 75.7188 91.8057 76.7439 91.2148H76.7418Z" fill="#FFAF6D"/>
<path d="M84.1161 93.6533L98.3006 101.842L97.2505 102.449L83.0659 94.2588L84.1161 93.6533Z" fill="#1855E7"/>
<path d="M82.0596 94.8413L90.5068 99.7184L89.4567 100.326L81.0073 95.4468L82.0596 94.8413Z" fill="#1855E7"/>
<path d="M71.4198 94.3716L91.3291 105.867L90.2789 106.473L70.3696 94.977L71.4198 94.3716Z" fill="#1855E7"/>
<path d="M69.3177 95.5845L89.2271 107.08L88.1769 107.687L68.2676 96.192L69.3177 95.5845Z" fill="#1855E7"/>
<path d="M67.2152 96.7975L78.8839 103.535L77.8317 104.142L66.165 97.405L67.2152 96.7975Z" fill="#1855E7"/>
<path d="M79.9319 104.14L87.1828 108.326L75.6227 115.003L68.3696 110.815L79.9319 104.14Z" fill="#FD9009"/>
<path d="M65.1127 98.0127L76.7814 104.748L75.7312 105.356L64.0625 98.6182L65.1127 98.0127Z" fill="#1855E7"/>
<path d="M63.0101 99.2257L74.6789 105.963L73.6287 106.569L61.96 99.8333L63.0101 99.2257Z" fill="#1855E7"/>
<path d="M60.9081 100.439L72.5768 107.176L71.5267 107.783L59.8579 101.046L60.9081 100.439Z" fill="#1855E7"/>
<path d="M58.8055 101.654L70.4743 108.389L69.4241 108.997L57.7554 102.259L58.8055 101.654Z" fill="#1855E7"/>
<path d="M97.0957 85.6758L106.794 91.2753L104.833 92.4069L95.1353 86.8095L97.0957 85.6758Z" fill="#CED3F8"/>
<path d="M78.0171 120.659L46.8838 102.683V102.293L78.0171 120.269V120.659Z" fill="#CED3F8"/>
<path d="M119.529 96.6911L78.0176 120.659V120.269L119.529 96.3007V96.6911Z" fill="#BBC0E6"/>
<path style="mix-blend-mode:multiply" d="M141.299 47.778L138.384 46.0952C137.516 45.5942 135.382 45.1829 133.643 45.1829H64.2859C62.5467 45.1829 26.1333 67.965 26.1333 67.965C25.2648 68.4661 25.2648 69.2887 26.1333 69.7897L79.2221 100.441C79.6584 100.693 80.2367 100.819 80.813 100.817H82.193L119.569 79.2391L121.112 78.3477H141.299V47.778Z" fill="url(#paint7_linear_2050_22169)"/>
<path style="mix-blend-mode:multiply" d="M173 57.0582H105.518L139.746 79.4938H173V57.0582Z" fill="url(#paint8_linear_2050_22169)"/>
<path d="M141.05 29.4534L139.746 30.2071V79.4939L141.05 78.7402V29.4534Z" fill="#362E94"/>
<path d="M141.05 29.4533L139.745 30.207L106.052 10.7528L107.355 10.0012L141.05 29.4533Z" fill="#7CA6FF"/>
<path d="M106.052 60.0396L139.745 79.4938V30.207L106.052 10.7528V60.0396Z" fill="#2165F9"/>
<path d="M138.643 30.207L107.155 12.0264V59.4028L138.643 77.5835V30.207Z" fill="white"/>
<path d="M119.796 22.4049L124.999 25.4092V21.695L119.796 18.6886V22.4049Z" fill="#CED3F8"/>
<path d="M122.101 17.3586L127.306 20.363L124.999 21.695L119.796 18.6886L122.101 17.3586Z" fill="#F7F7FC"/>
<path d="M127.307 20.363V21.5197L126.805 21.2295L125.503 21.9832V25.1191L125 25.4093V21.6951L127.307 20.363Z" fill="#BBC0E6"/>
<path d="M125.615 18.3232L124.74 18.8285V20.718L125.615 20.2127V18.3232Z" fill="#BBC0E6"/>
<path d="M124.741 18.8285L121.488 16.9495V18.8389L124.741 20.718V18.8285Z" fill="#CED3F8"/>
<path d="M125.715 17.9515C125.715 17.7031 125.54 17.4004 125.325 17.2751L120.901 14.7217C120.686 14.5985 120.51 14.6987 120.51 14.9472V15.9347C120.51 16.1832 120.686 16.4859 120.901 16.6112L125.325 19.1646C125.54 19.2877 125.715 19.1875 125.715 18.9391V17.9515Z" fill="#CED3F8"/>
<path d="M123.461 17.1437C123.461 16.9224 123.306 16.653 123.114 16.5424C122.922 16.4317 122.768 16.5215 122.768 16.7428C122.768 16.9641 122.922 17.2334 123.114 17.3441C123.306 17.4547 123.461 17.365 123.461 17.1437Z" fill="#34318F"/>
<path d="M125.715 18.9412V17.9537C125.715 17.7053 125.54 17.4025 125.325 17.2773L120.901 14.7239C120.794 14.6633 120.7 14.6571 120.629 14.6967L121.487 14.2019C121.558 14.1539 121.661 14.1539 121.776 14.2207L126.2 16.7741C126.415 16.8973 126.59 17.2021 126.59 17.4506V18.4381C126.59 18.5633 126.544 18.651 126.471 18.6907L125.613 19.1855C125.676 19.1396 125.715 19.0582 125.715 18.9433V18.9412Z" fill="url(#paint9_linear_2050_22169)"/>
<g style="mix-blend-mode:multiply">
<path d="M124.999 25.4092L126.154 26.0732V22.359L125.502 21.9832V25.119L124.999 25.4092Z" fill="#DAE0F5"/>
<path d="M126.154 22.359L125.502 21.9832L126.805 21.2295L127.457 21.6053L126.154 22.359Z" fill="#DAE0F5"/>
<path d="M124.74 20.7179H126.692L127.306 20.363L125.615 19.3859V20.2126L124.74 20.7179Z" fill="url(#paint10_linear_2050_22169)"/>
</g>
<path d="M112.058 26.1025C112.719 25.7208 112.72 24.4837 112.059 23.3394C111.398 22.195 110.327 21.5767 109.666 21.9584C109.005 22.34 109.004 23.5771 109.665 24.7215C110.326 25.8659 111.397 26.4842 112.058 26.1025Z" fill="#FD9009"/>
<path d="M135.524 37.1782L114.042 24.7766V23.8287L135.524 36.2303V37.1782Z" fill="#CED3F8"/>
<path d="M130.847 36.4809L114.042 26.7789V25.8311L130.847 35.5331V36.4809Z" fill="#CED3F8"/>
<path d="M109.169 30.7874C109.169 29.708 109.927 29.2717 110.863 29.8103C111.798 30.349 112.556 31.6622 112.556 32.7416C112.556 33.821 111.798 34.2573 110.863 33.7187C109.927 33.18 109.169 31.8668 109.169 30.7874Z" fill="#FD9009"/>
<path d="M135.524 44.9135L114.042 32.512V31.5641L135.524 43.9677V44.9135Z" fill="#CED3F8"/>
<path d="M130.847 44.2162L114.042 34.5141V33.5663L130.847 43.2683V44.2162Z" fill="#CED3F8"/>
<path d="M112.058 41.5736C112.719 41.1919 112.72 39.9548 112.059 38.8104C111.398 37.6661 110.327 37.0478 109.666 37.4294C109.005 37.8111 109.004 39.0482 109.665 40.1926C110.326 41.3369 111.397 41.9552 112.058 41.5736Z" fill="#FD9009"/>
<path d="M132.419 50.8575L114.042 40.2473V39.2994L132.419 49.9097V50.8575Z" fill="#CED3F8"/>
<path d="M127.743 50.1602L114.042 42.2495V41.3016L127.743 49.2123V50.1602Z" fill="#CED3F8"/>
<path d="M109.169 46.258C109.169 45.1786 109.927 44.7422 110.863 45.2809C111.798 45.8196 112.556 47.1328 112.556 48.2122C112.556 49.2916 111.798 49.7279 110.863 49.1893C109.927 48.6506 109.169 47.3374 109.169 46.258Z" fill="#FD9009"/>
<path d="M135.524 60.3863L114.042 47.9826V47.0369L135.524 59.4384V60.3863Z" fill="#CED3F8"/>
<path d="M128.672 58.432L114.042 49.9847V49.0389L128.672 57.4841V58.432Z" fill="#CED3F8"/>
<path d="M109.169 53.9955C109.169 52.9161 109.927 52.4798 110.863 53.0185C111.798 53.5571 112.556 54.8703 112.556 55.9497C112.556 57.0291 111.798 57.4655 110.863 56.9268C109.927 56.3882 109.169 55.0749 109.169 53.9955Z" fill="#FD9009"/>
<path d="M135.524 68.1215L114.042 55.72V54.7721L135.524 67.1737V68.1215Z" fill="#CED3F8"/>
<path d="M135.63 70.1864L118.826 60.4844V59.5365L135.63 69.2385V70.1864Z" fill="#CED3F8"/>
<path style="mix-blend-mode:multiply" d="M124.295 34.725L106.052 24.192V60.0396L138.117 78.5522C138.117 78.5522 126.283 38.8568 125.878 37.4642C125.415 35.8691 125.166 35.2282 124.298 34.7271L124.295 34.725Z" fill="url(#paint11_linear_2050_22169)"/>
<path d="M117.458 75.7838C117.458 76.788 116.746 77.1973 115.878 76.6962L62.789 46.0451C61.9183 45.544 61.2085 44.3122 61.2085 43.308V3.26598C61.2085 2.26174 61.9183 1.85253 62.789 2.35361L115.878 33.0047C116.746 33.5058 117.458 34.7376 117.458 35.7418V75.7859V75.7838Z" fill="#2165F9"/>
<path d="M117.07 32.3157L63.981 1.66465C63.5404 1.40994 63.1417 1.39115 62.8535 1.56444L61.7178 2.2221H61.722C62.0038 2.08639 62.3775 2.11771 62.7888 2.35363L115.878 33.0047C116.746 33.5058 117.458 34.7376 117.458 35.7418V75.7859C117.458 76.2849 117.283 76.6357 116.999 76.8027L118.134 76.145H118.13C118.448 75.9947 118.65 75.6314 118.65 75.0969V35.0528C118.65 34.0486 117.938 32.8168 117.07 32.3157Z" fill="#7CA6FF"/>
<path d="M115.878 74.243L62.7891 43.5919V4.17834L115.878 34.8294V74.243Z" fill="white"/>
<path d="M79.8776 98.1754C79.0091 98.6765 77.5852 98.6765 76.7167 98.1754L23.628 67.5244C22.7594 67.0233 22.7594 66.2007 23.628 65.6996L59.8138 44.807C60.6823 44.3059 62.1062 44.3059 62.9747 44.807L116.063 75.458C116.932 75.9591 116.932 76.7796 116.063 77.2828L79.8776 98.1754Z" fill="white"/>
<path d="M63.0292 49.1538L60.4341 47.6548L61.7327 46.9053L64.3278 48.4043L63.0292 49.1538Z" fill="#DAE0F5"/>
<path d="M67.4029 51.678L64.8057 50.179L66.1043 49.4294L68.6994 50.9285L67.4029 51.678Z" fill="#DAE0F5"/>
<path d="M71.7748 54.2022L69.1797 52.7031L70.4762 51.9536L73.0734 53.4547L71.7748 54.2022Z" fill="#DAE0F5"/>
<path d="M76.1469 56.7284L73.5518 55.2294L74.8504 54.4799L77.4455 55.9789L76.1469 56.7284Z" fill="#DAE0F5"/>
<path d="M80.5206 59.2525L77.9233 57.7534L79.222 57.0039L81.8192 58.5029L80.5206 59.2525Z" fill="#DAE0F5"/>
<path d="M84.8946 61.7766L82.2974 60.2776L83.596 59.5281L86.1911 61.0271L84.8946 61.7766Z" fill="#DAE0F5"/>
<path d="M89.2665 64.3029L86.6714 62.8039L87.9679 62.0522L90.5651 63.5513L89.2665 64.3029Z" fill="#DAE0F5"/>
<path d="M93.6407 66.8271L91.0435 65.328L92.3421 64.5785L94.9372 66.0775L93.6407 66.8271Z" fill="#DAE0F5"/>
<path d="M98.0123 69.3512L95.415 67.8522L96.7137 67.1027L99.3109 68.6017L98.0123 69.3512Z" fill="#DAE0F5"/>
<path d="M102.384 71.8754L99.7891 70.3764L101.088 69.6268L103.683 71.1259L102.384 71.8754Z" fill="#DAE0F5"/>
<path d="M106.758 74.3996L104.161 72.9005L105.46 72.151L108.057 73.6501L106.758 74.3996Z" fill="#DAE0F5"/>
<path d="M111.132 76.9258L108.535 75.4268L109.833 74.6772L112.428 76.1763L111.132 76.9258Z" fill="#DAE0F5"/>
<path d="M60.7284 52.8743L56.0601 50.179L58.6573 48.6799L63.3235 51.3753L60.7284 52.8743Z" fill="#DAE0F5"/>
<path d="M58.3126 56.3192L51.8696 52.5988L54.4669 51.0997L60.9098 54.8202L58.3126 56.3192Z" fill="#DAE0F5"/>
<path d="M55.7174 59.8705L47.4956 55.1228L50.0928 53.6259L58.3125 58.3714L55.7174 59.8705Z" fill="#DAE0F5"/>
<path d="M46.8713 60.8747L42.2051 58.1794L45.7189 56.15L50.3872 58.8433L46.8713 60.8747Z" fill="#DAE0F5"/>
<path d="M53.3168 64.5953L48.6484 61.9L52.1643 59.8706L56.8326 62.566L53.3168 64.5953Z" fill="#DAE0F5"/>
<path d="M59.7616 68.3158L55.0933 65.6204L58.6091 63.5911L63.2754 66.2864L59.7616 68.3158Z" fill="#DAE0F5"/>
<path d="M81.9802 81.1452L77.314 78.4478L80.8277 76.4205L85.4961 79.1138L81.9802 81.1452Z" fill="#DAE0F5"/>
<path d="M92.9011 87.4504L83.7461 82.1641L87.262 80.1348L96.417 85.4211L92.9011 87.4504Z" fill="#DAE0F5"/>
<path d="M75.5477 77.4289L61.5386 69.3407L65.0523 67.3114L79.0636 75.3996L75.5477 77.4289Z" fill="#DAE0F5"/>
<path d="M66.3256 56.1062L62.5049 53.8994L65.1 52.4004L68.9207 54.6072L66.3256 56.1062Z" fill="#DAE0F5"/>
<path d="M63.91 59.5512L60.0894 57.3465L62.6866 55.8453L66.5052 58.0521L63.91 59.5512Z" fill="#DAE0F5"/>
<path d="M61.434 63.0315L57.6133 60.8268L60.2105 59.3278L64.0291 61.5346L61.434 63.0315Z" fill="#DAE0F5"/>
<path d="M67.029 66.2635L63.2104 64.0587L65.8056 62.5597L69.6263 64.7644L67.029 66.2635Z" fill="#DAE0F5"/>
<path d="M72.6268 69.4953L68.8062 67.2885L71.4034 65.7894L75.222 67.9962L72.6268 69.4953Z" fill="#DAE0F5"/>
<path d="M78.2219 72.7251L74.4033 70.5204L76.9985 69.0214L80.8191 71.2261L78.2219 72.7251Z" fill="#DAE0F5"/>
<path d="M83.8192 75.9571L79.9985 73.7523L82.5958 72.2533L86.4144 74.458L83.8192 75.9571Z" fill="#DAE0F5"/>
<path d="M89.4148 79.189L85.5962 76.9822L88.1913 75.4832L92.012 77.69L89.4148 79.189Z" fill="#DAE0F5"/>
<path d="M98.3129 84.325L91.1914 80.2141L93.7886 78.7151L100.91 82.826L98.3129 84.325Z" fill="#DAE0F5"/>
<path d="M69.5077 62.7809L65.687 60.5762L68.2842 59.0771L72.1028 61.284L69.5077 62.7809Z" fill="#DAE0F5"/>
<path d="M75.1029 66.0128L71.2822 63.8081L73.8795 62.3091L77.7001 64.5138L75.1029 66.0128Z" fill="#DAE0F5"/>
<path d="M80.698 69.2448L76.8794 67.0401L79.4766 65.5389L83.2952 67.7458L80.698 69.2448Z" fill="#DAE0F5"/>
<path d="M86.2956 72.4767L82.4771 70.2699L85.0722 68.7709L88.8929 70.9756L86.2956 72.4767Z" fill="#DAE0F5"/>
<path d="M91.893 75.7066L88.0723 73.5019L90.6695 72.0028L94.4902 74.2075L91.893 75.7066Z" fill="#DAE0F5"/>
<path d="M102.566 81.8698L93.6699 76.7317L96.2651 75.2327L105.163 80.3708L102.566 81.8698Z" fill="#DAE0F5"/>
<path d="M71.9208 59.3361L68.1001 57.1314L70.6973 55.6323L74.518 57.8391L71.9208 59.3361Z" fill="#DAE0F5"/>
<path d="M77.5184 62.568L73.6978 60.3633L76.295 58.8643L80.1136 61.069L77.5184 62.568Z" fill="#DAE0F5"/>
<path d="M83.1135 65.7977L79.2949 63.593L81.8901 62.0961L85.7108 64.3008L83.1135 65.7977Z" fill="#DAE0F5"/>
<path d="M88.7113 69.0297L84.8906 66.825L87.4858 65.3259L91.3064 67.5306L88.7113 69.0297Z" fill="#DAE0F5"/>
<path d="M94.3064 72.2616L90.4878 70.0548L93.0829 68.5579L96.9036 70.7626L94.3064 72.2616Z" fill="#DAE0F5"/>
<path d="M99.9037 75.4915L96.083 73.2868L98.6802 71.7877L102.501 73.9945L99.9037 75.4915Z" fill="#DAE0F5"/>
<path d="M106.758 79.45L101.681 76.5187L104.276 75.0197L109.353 77.9509L106.758 79.45Z" fill="#DAE0F5"/>
<path d="M109.234 72.9715L67.2817 48.7488L68.5428 48.0222L110.495 72.2428L109.234 72.9715Z" fill="#BBC0E6"/>
<path d="M75.5452 80.5585L54.1389 68.1987L40.8354 75.8798L62.2438 88.2396L75.5452 80.5585Z" fill="#DAE0F5"/>
<path d="M116.063 77.2829L79.8776 98.1756C79.1865 98.5743 78.1489 98.6558 77.3158 98.4198C77.3096 98.4198 76.7981 98.2215 76.7187 98.1756L23.63 67.5245C23.5695 67.489 23.5152 67.4535 23.463 67.4138C23.4609 67.4138 23.4588 67.4097 23.4546 67.4076C23.44 67.3971 23.4296 67.3867 23.415 67.3762C23.3837 67.3512 23.3544 67.3282 23.3273 67.3032C23.3127 67.2906 23.3001 67.2781 23.2876 67.2656C23.2542 67.2322 23.225 67.2009 23.1958 67.1654C23.1916 67.1612 23.1874 67.157 23.1853 67.1529C23.1853 67.1508 23.1811 67.1466 23.1791 67.1445C23.1477 67.1048 23.1206 67.0631 23.0976 67.0234C23.0266 66.9002 22.987 66.7729 22.9828 66.6434H22.9807V67.4076H22.987C22.9828 67.7416 23.1937 68.0757 23.6321 68.3283L76.7208 98.9794C77.9881 99.6078 79.7982 99.4846 80.3369 99.3677C80.8756 99.2487 81.3599 99.1151 81.9236 98.9919L116.068 79.2788C116.508 79.0241 116.723 78.6901 116.719 78.3539V76.3789C116.715 76.7066 116.498 77.0323 116.068 77.2808L116.063 77.2829Z" fill="#023AC2"/>
<path style="mix-blend-mode:multiply" d="M62.9748 44.807C62.1063 44.3059 60.6824 44.3059 59.8139 44.807L34.303 59.5364H60.1897C61.6365 59.5364 63.313 59.2963 64.5448 58.9477V45.7131L62.9748 44.807Z" fill="url(#paint12_linear_2050_22169)"/>
<path d="M62.7891 4.17834V43.594L115.878 74.2451V34.8294L62.7891 4.17834ZM114.043 72.2408L91.0705 58.9791V41.5104L114.043 54.7721V72.2408Z" fill="#1D428F"/>
<path d="M114.042 54.77V72.2387L91.0703 58.977V41.5083L114.042 54.77Z" fill="#7CA6FF"/>
<path d="M86.4585 57.5134L63.4863 44.2516V26.783L86.4585 40.0447V57.5134Z" fill="#2165F9"/>
<path d="M86.4585 57.5134L87.4982 56.9142V39.4456L86.4585 40.0448V57.5134Z" fill="#5A89EC"/>
<path d="M86.4585 40.0447L87.4982 39.4455L64.5261 26.1816L63.4863 26.7829L86.4585 40.0447Z" fill="#7CA6FF"/>
<path d="M71.7935 41.2411L75.7812 43.5439L76.967 42.8591L72.9793 40.5583L71.7935 41.2411Z" fill="#F6F6FB"/>
<path d="M75.7814 43.5439V42.1764L75.0151 42.619V44.8738L76.9672 43.7464V42.8591L75.7814 43.5439Z" fill="#BBC0E6"/>
<path d="M71.0254 42.571L75.0152 44.8738V42.619L71.0254 40.3182V42.571Z" fill="#CED3F8"/>
<path d="M71.0254 40.3182L75.0152 42.619L75.7814 42.1764L71.7937 39.8735L71.0254 40.3182Z" fill="#F6F6FB"/>
<path style="mix-blend-mode:multiply" d="M95.0894 83.1809H105.846L116.063 77.2828C116.932 76.7818 116.932 75.9592 116.063 75.4581L102.526 67.6414H95.0894V83.1809Z" fill="url(#paint13_linear_2050_22169)"/>
<path d="M112.786 70.2929L94.4443 59.7036V47.8281L112.786 58.4175V70.2929Z" fill="#0D3281"/>
<path d="M93.8135 81.2455L75.4722 70.6561L94.4441 59.7035L112.785 70.2928L93.8135 81.2455Z" fill="#362E94"/>
<path d="M94.4443 81.6087L114.043 70.2928V58.4174L94.4443 69.7333V81.6087Z" fill="#1D428F"/>
<path d="M93.814 81.2456L94.4445 81.6088V69.7334L93.814 69.3701V81.2456Z" fill="#20196F"/>
<path d="M114.043 58.4175L113.414 58.0563L93.814 69.3701L94.4445 69.7334L114.043 58.4175Z" fill="#7CA6FF"/>
<path d="M75.4722 70.6562L94.4441 59.7036V47.8281L75.4722 58.7808V70.6562Z" fill="#1D428F"/>
<path d="M74.8438 70.2928L75.4722 70.6561V58.7806L74.8438 58.4174V70.2928Z" fill="#20196F"/>
<path d="M95.0725 47.4648L94.4441 47.1036L74.8438 58.4175L75.4722 58.7807L95.0725 47.4648Z" fill="#7CA6FF"/>
<path d="M94.4443 47.8281L95.0728 47.4648L113.414 58.0563L112.786 58.4175L94.4443 47.8281Z" fill="#7CA6FF"/>
<path d="M95.0893 83.1809L72.1172 69.9191V52.4504L95.0893 65.7122V83.1809Z" fill="#2165F9"/>
<path d="M95.0894 83.1809L96.1291 82.5817V65.113L95.0894 65.7122V83.1809Z" fill="#7CA6FF"/>
<path d="M95.0893 65.7123L96.129 65.1131L73.1569 51.8492L72.1172 52.4505L95.0893 65.7123Z" fill="#7CA6FF"/>
<path d="M80.4248 66.9085L84.4146 69.2114L85.5984 68.5287L81.6107 66.2258L80.4248 66.9085Z" fill="#F6F6FB"/>
<path d="M84.4143 69.2114V67.8439L83.646 68.2886V70.5413L85.5981 69.416V68.5287L84.4143 69.2114Z" fill="#BBC0E6"/>
<path d="M79.6582 68.2406L83.6459 70.5413V68.2886L79.6582 65.9857V68.2406Z" fill="#CED3F8"/>
<path d="M79.6582 65.9857L83.6459 68.2886L84.4142 67.8439L80.4244 65.541L79.6582 65.9857Z" fill="#F6F6FB"/>
<g style="mix-blend-mode:multiply">
<path d="M114.042 58.4174V70.2907L110.579 72.2908L116.063 75.458C116.74 75.8485 116.888 76.4309 116.512 76.907C117.068 76.9445 117.458 76.527 117.458 75.7837V65.113L114.042 58.4194V58.4174Z" fill="#C4CAE9"/>
</g>
<path d="M106.879 52.8284L110.109 54.6928C110.393 54.8556 110.622 55.2544 110.622 55.5822V69.9129L94.1914 60.428V47.6652C94.1914 47.3374 94.4211 47.2059 94.705 47.3688L105.52 53.6134L106.879 52.8284Z" fill="#FD9009"/>
<path d="M105.52 53.6135L94.7051 47.3688C94.5735 47.2937 94.4566 47.2832 94.3647 47.325V47.3208L94.5986 47.1851C94.6904 47.135 94.8157 47.1433 94.9556 47.2227L105.77 53.4673L105.52 53.6114V53.6135Z" fill="#FFD03E"/>
<path d="M110.623 69.915V55.5843C110.623 55.2565 110.393 54.8577 110.109 54.6949L106.879 52.8305L107.13 52.6864L110.36 54.5508C110.644 54.7137 110.873 55.1124 110.873 55.4402V69.7709L110.623 69.915Z" fill="url(#paint14_linear_2050_22169)"/>
<path d="M106.376 54.6865L109.606 56.5509C109.89 56.7137 110.12 57.1125 110.12 57.4403V70.203L93.6885 60.7181V47.9554C93.6885 47.6276 93.9181 47.4961 94.2021 47.6589L105.017 53.9035L106.376 54.6886V54.6865Z" fill="#FD9009"/>
<path d="M109.859 56.4068L105.27 53.7573L94.4548 47.5127C94.3149 47.4334 94.1896 47.425 94.0977 47.4751L93.8618 47.6108V47.615C93.9537 47.5753 94.0727 47.5837 94.2021 47.6589L105.017 53.9035L109.606 56.5529C109.89 56.7158 110.12 57.1145 110.12 57.4423V70.2051L110.37 70.061V57.2983C110.37 56.9705 110.14 56.5717 109.856 56.4089L109.859 56.4068Z" fill="url(#paint15_linear_2050_22169)"/>
<path d="M110.623 69.915V69.6248L110.372 69.7688V70.059L110.623 69.915Z" fill="#C85A2B"/>
<path d="M110.372 69.4786V69.7688L110.623 69.6248L110.372 69.4786Z" fill="#FFC16B"/>
<path d="M96.4275 48.5359L93.1977 46.6715C92.9137 46.5086 92.6841 46.6402 92.6841 46.968V61.0084L109.115 70.4954V58.0229C109.115 57.6951 108.885 57.2963 108.602 57.1335L97.7867 50.8889L96.4275 48.5359Z" fill="#CED3F8"/>
<path d="M96.4276 48.5358L93.1977 46.6714C93.0662 46.5963 92.9493 46.5858 92.8574 46.6276V46.6234L93.0913 46.4877C93.1831 46.4376 93.3084 46.446 93.4483 46.5253L96.6781 48.3897L96.4276 48.5338V48.5358Z" fill="white"/>
<path d="M109.115 70.7834V58.0206C109.115 57.6929 108.885 57.2941 108.601 57.1312L97.7866 50.8866L98.0372 50.7426L108.852 56.9851C109.136 57.1479 109.366 57.5467 109.366 57.8745V70.6373L109.113 70.7813L109.115 70.7834Z" fill="url(#paint16_linear_2050_22169)"/>
<path d="M104.869 55.5571L108.099 57.4215C108.383 57.5843 108.612 57.9831 108.612 58.3109V71.0736L92.1812 61.5887V48.826C92.1812 48.4982 92.4108 48.3667 92.6948 48.5295L103.51 54.7741L104.869 55.5592V55.5571Z" fill="#CED3F8"/>
<path d="M108.351 57.2775L103.762 54.6281L92.9474 48.3834C92.8075 48.3041 92.6823 48.2958 92.5904 48.3459L92.3545 48.4816C92.4464 48.444 92.5633 48.4544 92.6948 48.5296L103.51 54.7742L108.099 57.4236C108.383 57.5865 108.612 57.9853 108.612 58.313V71.0758L108.863 70.9317V58.169C108.863 57.8412 108.633 57.4424 108.349 57.2796L108.351 57.2775Z" fill="url(#paint17_linear_2050_22169)"/>
<path d="M109.115 70.7835V70.4954L108.863 70.6394V70.9296L109.115 70.7835Z" fill="#A5ABCC"/>
<path d="M108.863 70.3492L108.865 70.6394L109.115 70.4954L108.863 70.3492Z" fill="#F6F6FB"/>
<path d="M96.68 48.3966L96.4287 48.5417L97.7868 50.8941L98.0382 50.749L96.68 48.3966Z" fill="#E8ECF7"/>
<path d="M103.862 54.5696L107.092 56.434C107.376 56.5968 107.606 56.9956 107.606 57.3234V71.6541L91.1748 62.1692V49.4064C91.1748 49.0786 91.4045 48.9471 91.6884 49.11L102.503 55.3546L103.862 54.5696Z" fill="#FD9009"/>
<path d="M102.505 55.3525L91.6904 49.1078C91.5589 49.0327 91.442 49.0222 91.3501 49.064V49.0598L91.5839 48.9241C91.6758 48.874 91.8011 48.8824 91.9409 48.9617L102.756 55.2063L102.505 55.3504V55.3525Z" fill="#FFD03E"/>
<path d="M107.608 71.6541V57.3234C107.608 56.9956 107.378 56.5969 107.094 56.434L103.864 54.5696L104.115 54.4255L107.345 56.2899C107.629 56.4528 107.858 56.8516 107.858 57.1794V71.5101L107.608 71.6541Z" fill="url(#paint18_linear_2050_22169)"/>
<path d="M103.361 56.4278L106.591 58.2922C106.875 58.4551 107.105 58.8538 107.105 59.1816V71.9444L90.6738 62.4595V49.6967C90.6738 49.3689 90.9035 49.2374 91.1874 49.4002L102.002 55.6449L103.361 56.4299V56.4278Z" fill="#FD9009"/>
<path d="M106.841 58.1481L102.252 55.4987L91.4377 49.2541C91.2978 49.1747 91.1725 49.1664 91.0806 49.2165L90.8447 49.3522V49.3564C90.9366 49.3146 91.0556 49.325 91.185 49.4002L102 55.6448L106.589 58.2942C106.873 58.4571 107.102 58.8559 107.102 59.1837V71.9464L107.353 71.8023V59.0396C107.353 58.7118 107.123 58.313 106.839 58.1502L106.841 58.1481Z" fill="url(#paint19_linear_2050_22169)"/>
<path d="M107.608 71.6541V71.366L107.355 71.51V71.8002L107.608 71.6541Z" fill="#C85A2B"/>
<path d="M107.355 71.2198V71.5101L107.608 71.366L107.355 71.2198Z" fill="#FFC16B"/>
<path d="M93.4129 50.2771L90.183 48.4127C89.8991 48.2498 89.6694 48.3814 89.6694 48.7092V62.7497L106.1 72.2366V59.7641C106.1 59.4363 105.871 59.0375 105.587 58.8747L94.772 52.6301L93.4129 50.2771Z" fill="#CED3F8"/>
<path d="M93.4129 50.2771L90.1831 48.4126C90.0516 48.3375 89.9346 48.327 89.8428 48.3688V48.3646L90.0766 48.2289C90.1685 48.1788 90.2937 48.1872 90.4336 48.2665L93.6635 50.1309L93.4129 50.275V50.2771Z" fill="white"/>
<path d="M106.098 72.5247V59.762C106.098 59.4342 105.869 59.0354 105.585 58.8726L94.77 52.6279L95.0206 52.4839L105.835 58.7264C106.119 58.8893 106.349 59.288 106.349 59.6158V72.3786L106.096 72.5226L106.098 72.5247Z" fill="url(#paint20_linear_2050_22169)"/>
<path d="M101.852 57.2984L105.081 59.1628C105.365 59.3257 105.595 59.7244 105.595 60.0522V72.815L89.1641 63.3301V50.5673C89.1641 50.2395 89.3937 50.108 89.6777 50.2708L100.492 56.5155L101.852 57.3005V57.2984Z" fill="#CED3F8"/>
<path d="M105.334 59.0187L100.745 56.3693L89.9303 50.1247C89.7905 50.0453 89.6652 50.037 89.5733 50.0871L89.3374 50.2228V50.227C89.4293 50.1873 89.5483 50.1956 89.6777 50.2708L100.493 56.5154L105.082 59.1649C105.365 59.3277 105.595 59.7265 105.595 60.0543V72.817L105.846 72.673V59.9102C105.846 59.5824 105.616 59.1836 105.332 59.0208L105.334 59.0187Z" fill="url(#paint21_linear_2050_22169)"/>
<path d="M106.098 72.5247V72.2366L105.848 72.3806V72.6708L106.098 72.5247Z" fill="#A5ABCC"/>
<path d="M105.848 72.0905V72.3807L106.098 72.2366L105.848 72.0905Z" fill="#F6F6FB"/>
<path d="M93.6639 50.1383L93.4126 50.2834L94.7707 52.6358L95.022 52.4907L93.6639 50.1383Z" fill="#E8ECF7"/>
<path d="M100.848 56.3108L104.078 58.1752C104.362 58.338 104.591 58.7368 104.591 59.0646V73.3953L88.1602 63.9104V51.1476C88.1602 50.8199 88.3898 50.6883 88.6738 50.8512L99.4886 57.0958L100.848 56.3108Z" fill="#FD9009"/>
<path d="M99.4886 57.0937L88.6738 50.849C88.5423 50.7739 88.4254 50.7634 88.3335 50.8052V50.801L88.5673 50.6653C88.6592 50.6152 88.7845 50.6236 88.9243 50.7029L99.7392 56.9475L99.4886 57.0916V57.0937Z" fill="#FFD03E"/>
<path d="M104.591 73.3953V59.0646C104.591 58.7368 104.361 58.3381 104.077 58.1752L100.848 56.3108L101.098 56.1667L104.328 58.0312C104.612 58.194 104.842 58.5928 104.842 58.9206V73.2513L104.591 73.3953Z" fill="url(#paint22_linear_2050_22169)"/>
<path d="M100.344 58.1689L103.574 60.0333C103.858 60.1961 104.088 60.5949 104.088 60.9227V73.6855L87.6567 64.2006V51.4378C87.6567 51.11 87.8864 50.9785 88.1703 51.1413L98.9852 57.386L100.344 58.171V58.1689Z" fill="#FD9009"/>
<path d="M103.827 59.8893L99.2379 57.2399L88.423 50.9953C88.2831 50.9159 88.1579 50.9076 88.066 50.9577L87.8301 51.0934V51.0976C87.9219 51.0579 88.0409 51.0662 88.1704 51.1414L98.9852 57.386L103.574 60.0355C103.858 60.1983 104.088 60.5971 104.088 60.9249V73.6876L104.338 73.5436V60.7808C104.338 60.453 104.109 60.0542 103.825 59.8914L103.827 59.8893Z" fill="url(#paint23_linear_2050_22169)"/>
<path d="M104.591 73.3953V73.1051L104.34 73.2513V73.5415L104.591 73.3953Z" fill="#C85A2B"/>
<path d="M104.34 72.9611V73.2513L104.591 73.1051L104.34 72.9611Z" fill="#FFC16B"/>
<path d="M90.3982 52.0161L87.1684 50.1517C86.8844 49.9889 86.6548 50.1204 86.6548 50.4482V64.4887L103.086 73.9757V61.5031C103.086 61.1753 102.856 60.7766 102.572 60.6137L91.7574 54.3691L90.3982 52.0161Z" fill="#CED3F8"/>
<path d="M90.3983 52.0162L87.1684 50.1518C87.0369 50.0766 86.92 50.0662 86.8281 50.1079V50.1038L87.062 49.9681C87.1538 49.9179 87.2791 49.9263 87.419 50.0056L90.6488 51.87L90.3983 52.0141V52.0162Z" fill="white"/>
<path d="M103.084 74.2659V61.5032C103.084 61.1754 102.854 60.7766 102.57 60.6138L91.7554 54.3692L92.0059 54.2251L102.821 60.4676C103.105 60.6305 103.334 61.0293 103.334 61.357V74.1198L103.082 74.2639L103.084 74.2659Z" fill="url(#paint24_linear_2050_22169)"/>
<path d="M98.837 59.0396L102.067 60.904C102.351 61.0669 102.58 61.4656 102.58 61.7934V74.5562L86.1494 65.0713V52.3085C86.1494 51.9807 86.3791 51.8492 86.663 52.0121L97.4778 58.2567L98.837 59.0417V59.0396Z" fill="#CED3F8"/>
<path d="M102.32 60.7599L97.7305 58.1105L86.9157 51.8659C86.7758 51.7865 86.6505 51.7782 86.5587 51.8283L86.3228 51.964V51.9682C86.4146 51.9285 86.5336 51.9368 86.6631 52.012L97.4779 58.2566L102.067 60.9061C102.351 61.0689 102.58 61.4677 102.58 61.7955V74.5582L102.831 74.4142V61.6514C102.831 61.3236 102.601 60.9249 102.317 60.762L102.32 60.7599Z" fill="url(#paint25_linear_2050_22169)"/>
<path d="M103.084 74.2659V73.9757L102.833 74.1219V74.4121L103.084 74.2659Z" fill="#A5ABCC"/>
<path d="M102.833 73.8317V74.1219L103.084 73.9757L102.833 73.8317Z" fill="#F6F6FB"/>
<path d="M90.6502 51.876L90.3989 52.0211L91.757 54.3734L92.0084 54.2283L90.6502 51.876Z" fill="#E8ECF7"/>
<path style="mix-blend-mode:multiply" d="M86.1495 52.6174L92.5257 63.0314L86.1099 59.3276L86.1495 52.6174Z" fill="url(#paint26_linear_2050_22169)"/>
<path d="M113.003 53.0017L90.0308 39.7378V22.2692L113.003 35.533V53.0017Z" fill="#2165F9"/>
<path d="M113.003 53.0016L114.043 52.4003V34.9316L113.003 35.5329V53.0016Z" fill="#5A89EC"/>
<path d="M113.003 35.5331L114.043 34.9318L91.0705 21.67L90.0308 22.2692L113.003 35.5331Z" fill="#7CA6FF"/>
<path d="M98.3379 36.7294L102.328 39.0322L103.511 38.3474L99.5238 36.0446L98.3379 36.7294Z" fill="#F6F6FB"/>
<path d="M102.328 39.0321V37.6646L101.56 38.1072V40.362L103.512 39.2346V38.3473L102.328 39.0321Z" fill="#BBC0E6"/>
<path d="M97.5698 38.0593L101.56 40.3621V38.1073L97.5698 35.8044V38.0593Z" fill="#CED3F8"/>
<path d="M97.5698 35.8043L101.56 38.1072L102.328 37.6645L98.3381 35.3617L97.5698 35.8043Z" fill="#F6F6FB"/>
<path d="M86.4585 37.6751L63.4863 24.4134V6.9447L86.4585 20.2064V37.6751Z" fill="#2165F9"/>
<path d="M86.4585 37.675L87.4982 37.0758V19.6072L86.4585 20.2064V37.675Z" fill="#5A89EC"/>
<path d="M86.4585 20.2064L87.4982 19.6072L64.5261 6.34338L63.4863 6.94467L86.4585 20.2064Z" fill="#7CA6FF"/>
<path d="M71.7935 21.4027L75.7812 23.7055L76.967 23.0228L72.9793 20.72L71.7935 21.4027Z" fill="#F6F6FB"/>
<path d="M75.7814 23.7056V22.3381L75.0151 22.7828V25.0356L76.9672 23.9082V23.0229L75.7814 23.7056Z" fill="#BBC0E6"/>
<path d="M71.0254 22.7348L75.0152 25.0356V22.7828L71.0254 20.48V22.7348Z" fill="#CED3F8"/>
<path d="M71.0254 20.4799L75.0152 22.7827L75.7814 22.338L71.7937 20.0352L71.0254 20.4799Z" fill="#F6F6FB"/>
<path style="mix-blend-mode:multiply" d="M83.2077 84.7822H73.251V87.2271H83.2077V84.7822Z" fill="url(#paint27_linear_2050_22169)"/>
<path style="mix-blend-mode:multiply" d="M76.9003 81.2538H66.9331V83.6986H76.9003V81.2538Z" fill="url(#paint28_linear_2050_22169)"/>
<path d="M70.2404 50.7803C68.518 51.035 67.1401 52.3294 67.5096 55.2002C69.6287 54.9705 70.2404 50.7803 70.2404 50.7803Z" fill="#EF4E16"/>
<path d="M65.3589 82.945C65.3589 81.0242 66.5761 80.9678 66.5761 80.9678C66.5761 80.9678 67.2358 80.9678 68.3069 80.5252C69.3633 80.0867 70.8519 80.2559 70.021 81.7904C70.0126 81.8092 70.0043 81.828 69.9917 81.8468C69.9395 81.9282 69.8518 82.0075 69.7203 82.0848L67.0605 83.6444C66.6554 83.8761 65.3672 83.3416 65.3589 82.945Z" fill="url(#paint29_linear_2050_22169)"/>
<path d="M65.3674 82.7717C65.3903 83.1663 66.6618 83.6903 67.0627 83.4627L69.7225 81.9031C69.8102 81.853 69.9626 81.7507 70.0983 81.6296C70.0733 81.6818 70.0524 81.734 70.0211 81.7904C70.0127 81.8092 70.0044 81.828 69.9918 81.8468C69.9397 81.9282 69.852 82.0075 69.7204 82.0848L67.0606 83.6444C66.6806 83.8615 65.526 83.4064 65.3757 83.0222C65.3694 82.993 65.3632 82.9658 65.3632 82.945C65.359 82.8844 65.3632 82.8322 65.3632 82.7738L65.3674 82.7717Z" fill="#121047"/>
<path d="M65.8536 80.7152C66.1668 80.7152 67.2712 80.9971 67.2712 80.9971C67.2712 80.9971 67.2796 81.1495 67.3694 81.2831C67.3798 81.2956 67.3902 81.3081 67.4007 81.3207C67.6199 81.471 67.8412 81.7111 67.3234 82.0347C66.8996 82.2999 66.5572 82.1307 66.3944 81.97C66.3296 81.8468 66.2315 81.7069 66.0937 81.6276C65.9538 81.5482 65.8682 81.5107 65.8056 81.5065C65.8056 81.4981 65.8035 81.4814 65.8035 81.4814C65.8035 81.4814 65.7242 80.7173 65.8557 80.7173L65.8536 80.7152Z" fill="white"/>
<path d="M65.8351 62.6681C67.0376 62.689 70.0441 62.0084 71.2446 62.0313C70.7978 65.6453 69.8958 68.9315 69.2946 72.4307C68.6494 75.8338 67.9208 78.2243 67.2861 81.0575C67.0523 81.5857 65.9896 81.3853 65.7745 80.878C65.6054 78.2682 65.4133 75.0926 66.1858 72.0841C66.0564 68.8397 65.7578 65.9439 65.833 62.6702L65.8351 62.6681Z" fill="url(#paint30_linear_2050_22169)"/>
<path d="M71.4243 86.4755C71.4243 84.5547 72.6415 84.4983 72.6415 84.4983C72.6415 84.4983 73.3013 84.4983 74.3723 84.0536C75.4287 83.6152 76.9173 83.7843 76.0864 85.3188C76.0801 85.3376 76.0697 85.3564 76.0572 85.3752C76.0071 85.4566 75.9194 85.536 75.7878 85.6111L73.128 87.1707C72.7229 87.4046 71.4348 86.868 71.4243 86.4713V86.4755Z" fill="url(#paint31_linear_2050_22169)"/>
<path d="M71.4302 86.3022C71.4531 86.6968 72.7246 87.2229 73.1255 86.9932L75.7853 85.4337C75.873 85.3836 76.0233 85.2812 76.1611 85.1602C76.1361 85.2144 76.1152 85.2645 76.0839 85.3209C76.0776 85.3397 76.0672 85.3585 76.0547 85.3773C76.0045 85.4587 75.9169 85.538 75.7853 85.6132L73.1255 87.1728C72.7455 87.3899 71.5909 86.9348 71.4385 86.5506C71.4323 86.5214 71.4281 86.4943 71.4281 86.4713C71.4218 86.4128 71.4281 86.3586 71.4281 86.3001L71.4302 86.3022Z" fill="#121047"/>
<path d="M71.9187 84.2456C72.2319 84.2456 73.3363 84.5275 73.3363 84.5275C73.3363 84.5275 73.3447 84.6799 73.4344 84.8135C73.4449 84.8239 73.4553 84.8365 73.4658 84.8511C73.6829 85.0014 73.9063 85.2415 73.3885 85.5651C72.9647 85.8323 72.6223 85.6632 72.4573 85.5004C72.3905 85.3772 72.2924 85.2373 72.1567 85.1601C72.0168 85.0786 71.9312 85.0431 71.8686 85.039C71.8686 85.0306 71.8665 85.0118 71.8665 85.0118C71.8665 85.0118 71.7872 84.2456 71.9187 84.2456Z" fill="white"/>
<path d="M69.6515 70.5309C69.3216 68.9776 65.5343 68.7792 65.7848 62.6682C66.9749 62.4949 72.9711 65.3114 74.1611 65.1381C74.3094 68.7771 73.9586 72.1656 73.9356 75.717C73.8542 79.1807 73.5264 81.6568 73.3636 84.5547C73.2216 85.1142 72.138 85.0891 71.8437 84.6257C71.2507 82.0806 70.543 78.9761 70.8123 75.884C70.4574 74.1699 70.0356 72.3514 69.6515 70.533V70.5309Z" fill="url(#paint32_linear_2050_22169)"/>
<path d="M67.3172 65.4762C69.2568 66.6621 72.8917 67.8312 74.2654 66.374C74.7018 62.9103 75.6852 57.5843 75.7019 55.8994C75.7186 54.2146 75.5787 53.4275 75.3093 52.9201C75.0922 52.5109 73.8354 51.7447 73.0441 51.5255C71.9605 51.2248 70.6682 50.3897 69.6263 50.9722C68.4948 51.6675 66.599 56.8744 65.624 62.2318C65.624 64.0607 66.1522 64.7622 67.3172 65.4762Z" fill="url(#paint33_linear_2050_22169)"/>
<path d="M70.4009 50.9536C71.1441 50.3732 70.8414 50.1769 70.6994 49.4295C70.5387 49.0412 70.4364 48.6069 70.4196 48.1413C70.357 46.469 71.3675 44.9825 72.6766 45.0221C75.3156 45.1036 74.9001 46.5066 74.9627 48.1789C75.0212 49.7281 74.3593 50.8221 73.1902 51.0475C73.2006 51.3023 73.2946 51.5361 73.6286 51.747C72.7872 52.294 71.4072 52.1374 70.8414 51.9537C70.2902 51.7741 70.0564 51.3378 70.4009 50.9536Z" fill="#FCD1A9"/>
<path d="M70.6455 44.9908C71.086 44.5315 71.6351 44.9344 71.8982 44.7862C71.9441 44.7632 71.99 44.7381 72.0401 44.711C72.3805 44.4897 72.2072 44.3435 72.5245 44.1389C72.8356 43.9364 73.155 44.189 73.3617 44.1118C73.8482 43.9406 74.2866 43.8592 74.4871 44.0325C74.5852 44.116 74.6729 44.2266 74.7522 44.354C74.9276 44.6254 75.4871 44.2454 75.4725 44.8467C75.46 45.4104 75.2575 45.6046 75.2011 46.4668C75.2011 46.517 75.1969 46.5671 75.1927 46.6151C75.1927 46.6255 75.1927 46.6339 75.1927 46.6443C75.1468 47.2018 74.9735 47.3583 74.7021 47.6506C74.439 47.9346 74.439 47.6757 74.4202 47.5671C74.3868 47.3625 74.3221 47.183 74.201 47.1976C74.0778 47.2101 73.8357 47.2811 73.7292 47.826C73.654 48.2185 73.9129 48.1225 73.892 48.231C73.5997 49.8282 73.0047 49.7301 72.3387 49.9451C71.6727 50.1602 71.1466 50.0391 70.7478 49.847C70.562 49.2478 70.4847 48.8929 70.395 48.6131C70.3386 48.4356 70.2217 47.6444 70.3344 46.8928C70.3344 46.8907 70.3344 46.8928 70.3344 46.8907C70.4931 46.1453 70.2154 45.4459 70.6476 44.9949L70.6455 44.9908Z" fill="#131147"/>
<path d="M82.2975 57.3088C82.7046 57.1605 83.1431 56.5217 83.7402 56.8724C84.1598 57.1188 84.7528 58.1272 84.4124 58.3485C83.8132 58.3088 83.6295 58.8851 82.7192 58.7807L82.2954 57.3088H82.2975Z" fill="#FCD1A9"/>
<path d="M82.7297 58.8601C82.7297 58.8601 83.2997 57.6346 82.2286 57.1523C81.0386 57.5009 79.5708 57.8475 77.9298 57.503C76.0508 57.1084 76.3055 54.5154 75.4725 53.1875C75.0152 51.8012 71.5871 53.223 72.7416 55.7576C73.4139 57.2337 74.7731 59.8602 77.5415 60.0147C79.5249 60.1253 80.9801 59.6702 82.7297 58.8601Z" fill="url(#paint34_linear_2050_22169)"/>
<path style="mix-blend-mode:multiply" d="M37.7478 82.6192C35.2445 81.164 31.1691 81.164 28.6492 82.6192C26.1292 84.0744 26.1146 86.4337 28.6199 87.8889C29.2358 88.248 29.9499 88.5173 30.7098 88.6989V88.9766H33.0064C33.1087 88.9766 33.2131 88.9766 33.3154 88.9766H33.4678V88.9724C35.0107 88.9307 36.5348 88.5716 37.7165 87.8889C40.2365 86.4337 40.2511 84.0744 37.7478 82.6192Z" fill="url(#paint35_linear_2050_22169)"/>
<path d="M35.4512 87.8889C36.7185 87.1561 37.3531 86.1957 37.3511 85.2353L37.3448 83.3772C37.3469 84.3376 36.7143 85.298 35.4449 86.0308C32.9249 87.486 28.8516 87.486 26.3483 86.0308C25.104 85.3084 24.4818 84.3626 24.4797 83.4148L24.486 85.2729C24.4881 86.2208 25.1123 87.1666 26.3546 87.8889C28.8579 89.3441 32.9312 89.3441 35.4512 87.8889Z" fill="url(#paint36_linear_2050_22169)"/>
<path d="M35.445 86.0308C37.965 84.5756 37.9796 82.2164 35.4763 80.7612C32.973 79.306 28.8977 79.306 26.3777 80.7612C23.8577 82.2164 23.8431 84.5756 26.3484 86.0308C28.8517 87.486 32.925 87.486 35.445 86.0308Z" fill="white"/>
<path d="M33.2339 84.5484H29.6178L34.6077 81.6672L33.879 81.2455L28.8892 84.1267V82.0388H27.8557V85.1434H33.2339V84.5484Z" fill="#023AC2"/>
<path d="M98.3445 8.49173C98.3445 9.95528 97.8288 10.9846 96.9958 11.4627L95.384 12.3876C96.217 11.9095 96.7327 10.8802 96.7327 9.41663C96.7327 6.50623 94.6971 2.97784 92.1855 1.53725C90.937 0.821133 89.8075 0.754324 88.9849 1.22617L90.5966 0.30127C91.4192 -0.170574 92.5488 -0.103764 93.7973 0.612353C96.3089 2.05294 98.3445 5.57924 98.3445 8.49173Z" fill="url(#paint37_linear_2050_22169)"/>
<path d="M96.7323 9.41459C96.7323 12.325 94.6967 13.5171 92.1851 12.0765C89.6734 10.636 87.6357 7.10757 87.6357 4.19716C87.6357 1.28676 89.6714 0.0946264 92.1851 1.5373C94.6967 2.97789 96.7323 6.50419 96.7323 9.41668V9.41459Z" fill="#F6F6FB"/>
<path d="M94.342 8.24332L92.534 5.11161V10.874L91.8053 10.4522V4.68987L89.9973 5.73377L89.4795 4.8381L92.1686 3.28687L94.8598 7.94476L94.342 8.24332Z" fill="#2165F9"/>
<defs>
<linearGradient id="paint0_linear_2050_22169" x1="45.3077" y1="127.353" x2="120.621" y2="30.9419" gradientUnits="userSpaceOnUse">
<stop stop-color="#EFEFF3"/>
<stop offset="1" stop-color="white"/>
</linearGradient>
<linearGradient id="paint1_linear_2050_22169" x1="20.5484" y1="48.6779" x2="64.5427" y2="48.6779" gradientUnits="userSpaceOnUse">
<stop offset="0.01" stop-color="#C4CAE9"/>
<stop offset="0.6" stop-color="#E5E8F5"/>
<stop offset="1" stop-color="white"/>
</linearGradient>
<linearGradient id="paint2_linear_2050_22169" x1="14.9647" y1="51.3624" x2="44.7068" y2="36.5729" gradientUnits="userSpaceOnUse">
<stop stop-color="#FF7F7F"/>
<stop offset="0.3551" stop-color="#FF9D9D"/>
<stop offset="0.7868" stop-color="#FFC8C8"/>
<stop offset="1" stop-color="#FF9B9B"/>
</linearGradient>
<linearGradient id="paint3_linear_2050_22169" x1="24.1979" y1="26.4301" x2="39.8961" y2="26.4301" gradientUnits="userSpaceOnUse">
<stop offset="0.01" stop-color="#C4CAE9"/>
<stop offset="0.05" stop-color="#C7CDEA"/>
<stop offset="0.44" stop-color="#E5E8F5"/>
<stop offset="0.77" stop-color="#F8F9FC"/>
<stop offset="1" stop-color="white"/>
</linearGradient>
<linearGradient id="paint4_linear_2050_22169" x1="37.1799" y1="21.482" x2="43.22" y2="21.482" gradientUnits="userSpaceOnUse">
<stop offset="0.01" stop-color="#C4CAE9"/>
<stop offset="0.05" stop-color="#C7CDEA"/>
<stop offset="0.44" stop-color="#E5E8F5"/>
<stop offset="0.77" stop-color="#F8F9FC"/>
<stop offset="1" stop-color="white"/>
</linearGradient>
<linearGradient id="paint5_linear_2050_22169" x1="44.694" y1="35.1906" x2="46.8215" y2="31.5056" gradientUnits="userSpaceOnUse">
<stop offset="0.3" stop-color="#CED3F8"/>
<stop offset="0.93" stop-color="#F6F6FB"/>
</linearGradient>
<linearGradient id="paint6_linear_2050_22169" x1="25.1791" y1="46.2622" x2="27.3066" y2="42.5773" gradientUnits="userSpaceOnUse">
<stop offset="0.3" stop-color="#CED3F8"/>
<stop offset="0.93" stop-color="#F6F6FB"/>
</linearGradient>
<linearGradient id="paint7_linear_2050_22169" x1="25.4819" y1="72.9987" x2="141.299" y2="72.9987" gradientUnits="userSpaceOnUse">
<stop stop-color="#C4C9E4"/>
<stop offset="0.24" stop-color="#C9CEE6"/>
<stop offset="0.54" stop-color="#D9DCED"/>
<stop offset="0.88" stop-color="#F3F4F9"/>
<stop offset="1" stop-color="white"/>
</linearGradient>
<linearGradient id="paint8_linear_2050_22169" x1="105.518" y1="68.276" x2="173" y2="68.276" gradientUnits="userSpaceOnUse">
<stop offset="0.01" stop-color="#DFE4F4"/>
<stop offset="0.38" stop-color="#ECEFF8"/>
<stop offset="1" stop-color="white"/>
</linearGradient>
<linearGradient id="paint9_linear_2050_22169" x1="125.5" y1="19.2502" x2="122.308" y2="13.7238" gradientUnits="userSpaceOnUse">
<stop offset="0.17" stop-color="#BBC0E6"/>
<stop offset="0.26" stop-color="#D8DBF0"/>
<stop offset="0.34" stop-color="#F7F7FC"/>
</linearGradient>
<linearGradient id="paint10_linear_2050_22169" x1="124.74" y1="20.0519" x2="127.306" y2="20.0519" gradientUnits="userSpaceOnUse">
<stop offset="0.01" stop-color="#DFE4F4"/>
<stop offset="0.36" stop-color="#EBEEF8"/>
<stop offset="1" stop-color="white"/>
</linearGradient>
<linearGradient id="paint11_linear_2050_22169" x1="106.052" y1="51.3732" x2="138.115" y2="51.3732" gradientUnits="userSpaceOnUse">
<stop stop-color="#D1D7F3"/>
<stop offset="0.23" stop-color="#DCE1F5"/>
<stop offset="0.68" stop-color="#EFF0F9"/>
<stop offset="1" stop-color="#F6F6FB"/>
</linearGradient>
<linearGradient id="paint12_linear_2050_22169" x1="34.3009" y1="51.9827" x2="64.5428" y2="51.9827" gradientUnits="userSpaceOnUse">
<stop offset="0.01" stop-color="#DAE0F5"/>
<stop offset="0.33" stop-color="#E0E5F6"/>
<stop offset="0.79" stop-color="#F3F5FC"/>
<stop offset="1" stop-color="white"/>
</linearGradient>
<linearGradient id="paint13_linear_2050_22169" x1="95.0894" y1="75.4122" x2="116.715" y2="75.4122" gradientUnits="userSpaceOnUse">
<stop stop-color="#C4C9E4"/>
<stop offset="0.7" stop-color="#D2D8EF"/>
<stop offset="1" stop-color="#DAE0F5"/>
</linearGradient>
<linearGradient id="paint14_linear_2050_22169" x1="105.573" y1="53.5868" x2="113.908" y2="68.0226" gradientUnits="userSpaceOnUse">
<stop offset="0.19" stop-color="#FFD03E"/>
<stop offset="0.27" stop-color="#EF4E16"/>
</linearGradient>
<linearGradient id="paint15_linear_2050_22169" x1="98.0082" y1="45.2161" x2="111.857" y2="69.2008" gradientUnits="userSpaceOnUse">
<stop offset="0.56" stop-color="#FFD03E"/>
<stop offset="0.62" stop-color="#EF4E16"/>
</linearGradient>
<linearGradient id="paint16_linear_2050_22169" x1="100.614" y1="49.2608" x2="112.062" y2="69.0883" gradientUnits="userSpaceOnUse">
<stop offset="0.47" stop-color="white"/>
<stop offset="0.54" stop-color="#A5ABCC"/>
</linearGradient>
<linearGradient id="paint17_linear_2050_22169" x1="96.5009" y1="46.0869" x2="110.349" y2="70.0716" gradientUnits="userSpaceOnUse">
<stop offset="0.54" stop-color="#F6F6FB"/>
<stop offset="0.61" stop-color="#A5ABCC"/>
</linearGradient>
<linearGradient id="paint18_linear_2050_22169" x1="102.557" y1="55.328" x2="110.892" y2="69.7638" gradientUnits="userSpaceOnUse">
<stop offset="0.19" stop-color="#FFD03E"/>
<stop offset="0.27" stop-color="#EF4E16"/>
</linearGradient>
<linearGradient id="paint19_linear_2050_22169" x1="94.9932" y1="46.9575" x2="108.842" y2="70.9422" gradientUnits="userSpaceOnUse">
<stop offset="0.56" stop-color="#FFD03E"/>
<stop offset="0.62" stop-color="#EF4E16"/>
</linearGradient>
<linearGradient id="paint20_linear_2050_22169" x1="97.5985" y1="51.0021" x2="109.046" y2="70.8296" gradientUnits="userSpaceOnUse">
<stop offset="0.47" stop-color="white"/>
<stop offset="0.54" stop-color="#A5ABCC"/>
</linearGradient>
<linearGradient id="paint21_linear_2050_22169" x1="93.4859" y1="47.8281" x2="107.334" y2="71.8128" gradientUnits="userSpaceOnUse">
<stop offset="0.54" stop-color="#F6F6FB"/>
<stop offset="0.61" stop-color="#A5ABCC"/>
</linearGradient>
<linearGradient id="paint22_linear_2050_22169" x1="99.5434" y1="57.0682" x2="107.878" y2="71.504" gradientUnits="userSpaceOnUse">
<stop offset="0.19" stop-color="#FFD03E"/>
<stop offset="0.27" stop-color="#EF4E16"/>
</linearGradient>
<linearGradient id="paint23_linear_2050_22169" x1="91.9785" y1="48.6987" x2="105.825" y2="72.6834" gradientUnits="userSpaceOnUse">
<stop offset="0.56" stop-color="#FFD03E"/>
<stop offset="0.62" stop-color="#EF4E16"/>
</linearGradient>
<linearGradient id="paint24_linear_2050_22169" x1="94.5817" y1="52.7415" x2="106.03" y2="72.5709" gradientUnits="userSpaceOnUse">
<stop offset="0.47" stop-color="white"/>
<stop offset="0.54" stop-color="#A5ABCC"/>
</linearGradient>
<linearGradient id="paint25_linear_2050_22169" x1="90.4712" y1="49.5693" x2="104.318" y2="73.554" gradientUnits="userSpaceOnUse">
<stop offset="0.54" stop-color="#F6F6FB"/>
<stop offset="0.61" stop-color="#A5ABCC"/>
</linearGradient>
<linearGradient id="paint26_linear_2050_22169" x1="86.1015" y1="57.8244" x2="93.8911" y2="57.8244" gradientUnits="userSpaceOnUse">
<stop offset="0.01" stop-color="#DFE4F4"/>
<stop offset="0.36" stop-color="#EBEEF8"/>
<stop offset="1" stop-color="white"/>
</linearGradient>
<linearGradient id="paint27_linear_2050_22169" x1="73.251" y1="86.0057" x2="83.2077" y2="86.0057" gradientUnits="userSpaceOnUse">
<stop stop-color="#C4CAE8"/>
<stop offset="0.17" stop-color="#D4D8EE"/>
<stop offset="0.47" stop-color="#EBEDF7"/>
<stop offset="0.76" stop-color="#FAFAFD"/>
<stop offset="1" stop-color="white"/>
</linearGradient>
<linearGradient id="paint28_linear_2050_22169" x1="66.9331" y1="82.4772" x2="76.9003" y2="82.4772" gradientUnits="userSpaceOnUse">
<stop stop-color="#C4CAE8"/>
<stop offset="0.01" stop-color="#C5CBE8"/>
<stop offset="0.42" stop-color="#E4E7F4"/>
<stop offset="0.76" stop-color="#F8F8FC"/>
<stop offset="1" stop-color="white"/>
</linearGradient>
<linearGradient id="paint29_linear_2050_22169" x1="70.2652" y1="82.0075" x2="65.361" y2="82.0075" gradientUnits="userSpaceOnUse">
<stop stop-color="#423EAF"/>
<stop offset="0.3" stop-color="#39359F"/>
<stop offset="0.89" stop-color="#231D77"/>
<stop offset="1" stop-color="#1F196F"/>
</linearGradient>
<linearGradient id="paint30_linear_2050_22169" x1="65.6242" y1="71.7" x2="71.2446" y2="71.7" gradientUnits="userSpaceOnUse">
<stop stop-color="#20196F"/>
<stop offset="0.32" stop-color="#231C75"/>
<stop offset="0.77" stop-color="#2E2787"/>
<stop offset="1" stop-color="#362E93"/>
</linearGradient>
<linearGradient id="paint31_linear_2050_22169" x1="76.3286" y1="85.536" x2="71.4243" y2="85.536" gradientUnits="userSpaceOnUse">
<stop stop-color="#423EAF"/>
<stop offset="0.3" stop-color="#39359F"/>
<stop offset="0.89" stop-color="#231D77"/>
<stop offset="1" stop-color="#1F196F"/>
</linearGradient>
<linearGradient id="paint32_linear_2050_22169" x1="74.1987" y1="73.8171" x2="65.7744" y2="73.8171" gradientUnits="userSpaceOnUse">
<stop stop-color="#423EAF"/>
<stop offset="0.23" stop-color="#3E3AA9"/>
<stop offset="0.51" stop-color="#363199"/>
<stop offset="0.83" stop-color="#28227F"/>
<stop offset="1" stop-color="#1F196F"/>
</linearGradient>
<linearGradient id="paint33_linear_2050_22169" x1="75.9934" y1="60.3111" x2="66.6759" y2="57.6446" gradientUnits="userSpaceOnUse">
<stop stop-color="#EF4E16"/>
<stop offset="0.42" stop-color="#F56B10"/>
<stop offset="1" stop-color="#FD9009"/>
</linearGradient>
<linearGradient id="paint34_linear_2050_22169" x1="72.3123" y1="54.7212" x2="82.5029" y2="59.3353" gradientUnits="userSpaceOnUse">
<stop stop-color="#FFAD02"/>
<stop offset="1" stop-color="#FC780B"/>
</linearGradient>
<linearGradient id="paint35_linear_2050_22169" x1="26.7513" y1="85.252" x2="39.6164" y2="85.252" gradientUnits="userSpaceOnUse">
<stop offset="0.32" stop-color="#C4CAE9"/>
<stop offset="0.48" stop-color="#CBD0EB"/>
<stop offset="0.73" stop-color="#E0E3F3"/>
<stop offset="1" stop-color="white"/>
</linearGradient>
<linearGradient id="paint36_linear_2050_22169" x1="24.4986" y1="86.2738" x2="37.7674" y2="85.9862" gradientUnits="userSpaceOnUse">
<stop stop-color="#CED3F8"/>
<stop offset="1" stop-color="#BBC0E6"/>
</linearGradient>
<linearGradient id="paint37_linear_2050_22169" x1="91.4644" y1="-0.178422" x2="97.8478" y2="11.4554" gradientUnits="userSpaceOnUse">
<stop stop-color="#CED3F8"/>
<stop offset="1" stop-color="#BBC0E6"/>
</linearGradient>
</defs>
</svg>
