<svg width="39" height="46" viewBox="0 0 39 46" fill="none" xmlns="http://www.w3.org/2000/svg">
<path d="M26.7332 7.98087C27.7528 9.00563 27.7484 10.6632 26.7229 11.682C25.6982 12.7017 24.0406 12.6973 23.0218 11.6718L22.9784 11.6292C21.9588 10.6037 21.964 8.94691 22.9887 7.92729C24.0135 6.90767 25.671 6.9128 26.6899 7.93756L26.7332 7.98087ZM24.8701 27.5181C25.8956 28.5429 25.8956 30.2048 24.8701 31.2295C23.8454 32.255 22.1834 32.255 21.1587 31.2295L5.62508 15.6959C4.60032 14.6712 4.60032 13.0092 5.62508 11.9845C6.64984 10.959 8.31177 10.959 9.33653 11.9845L24.8701 27.5181ZM26.4557 39.8086C27.4805 40.8341 27.4805 42.496 26.4557 43.5208C25.431 44.5455 23.769 44.5455 22.7443 43.5208L2.59191 23.3691C1.56715 22.3444 1.56715 20.6825 2.59191 19.657C3.6174 18.6322 5.27933 18.6322 6.30409 19.657L26.4557 39.8086ZM16.7748 40.8334C17.8003 41.8581 17.8003 43.52 16.7748 44.5448C15.7501 45.5703 14.0882 45.5703 13.0634 44.5448L1.56789 33.05C0.543127 32.0245 0.543127 30.3626 1.56789 29.3379C2.59264 28.3131 4.25457 28.3131 5.28007 29.3379L16.7748 40.8334ZM34.1289 36.7762C35.1537 37.8009 35.1537 39.4629 34.1289 40.4883C33.1034 41.5131 31.4422 41.5131 30.4168 40.4883L26.2355 36.3064C25.2107 35.2816 25.2107 33.6197 26.2355 32.5949C27.2603 31.5694 28.9222 31.5694 29.9477 32.5949L34.1289 36.7762ZM37.1614 29.1037C38.1861 30.1284 38.1861 31.7904 37.1614 32.8151C36.1366 33.8406 34.4747 33.8406 33.4492 32.8151L13.2976 12.6635C12.2728 11.6387 12.2728 9.9768 13.2976 8.95205C14.3223 7.92655 15.9842 7.92655 17.0097 8.95205L37.1614 29.1037ZM38.1854 19.4228C39.2109 20.4476 39.2109 22.1095 38.1854 23.1342C37.1606 24.1597 35.4987 24.1597 34.474 23.1342L27.8402 16.5005C26.8147 15.4757 26.8147 13.8138 27.8402 12.789C28.8649 11.7635 30.5269 11.7635 31.5516 12.789L38.1854 19.4228Z" fill="url(#paint0_linear_2050_21966)"/>
<path d="M25.9339 7.18139C26.9535 8.20615 26.9491 9.86367 25.9243 10.8826C24.8989 11.9022 23.2421 11.8978 22.2224 10.873L22.1791 10.8297C21.1602 9.80421 21.1646 8.14742 22.1894 7.1278C23.2142 6.10891 24.8717 6.11332 25.8913 7.13808L25.9339 7.18139ZM19.0454 0C19.0454 1.57898 20.3374 2.87021 21.9156 2.87021C20.3374 2.87021 19.0454 4.16217 19.0454 5.74041C19.0454 4.16217 17.7542 2.87021 16.1759 2.87021C17.7542 2.87021 19.0454 1.57898 19.0454 0ZM24.0716 26.7186C25.0963 27.7434 25.0963 29.4053 24.0716 30.4301C23.0461 31.4556 21.3841 31.4556 20.3594 30.4301L4.82576 14.8964C3.801 13.8717 3.801 12.2098 4.82576 11.185C5.85052 10.1595 7.51245 10.1595 8.53721 11.185L24.0716 26.7186ZM25.6564 39.0091C26.6819 40.0346 26.6819 41.6965 25.6564 42.7213C24.6317 43.7461 22.9697 43.7461 21.945 42.7213L1.79333 22.5697C0.767835 21.5449 0.767835 19.883 1.79333 18.8575C2.81809 17.8327 4.48002 17.8327 5.50478 18.8575L25.6564 39.0091ZM15.9755 40.0339C17.001 41.0586 17.001 42.7206 15.9755 43.7453C14.9508 44.7708 13.2888 44.7708 12.2641 43.7453L0.768569 32.2505C-0.25619 31.2251 -0.25619 29.5631 0.768569 28.5384C1.79333 27.5136 3.45526 27.5136 4.48075 28.5384L15.9755 40.0339ZM33.3296 35.9767C34.3544 37.0014 34.3544 38.6634 33.3296 39.6889C32.3049 40.7136 30.6429 40.7136 29.6174 39.6889L25.4362 35.5069C24.4114 34.4821 24.4114 32.8202 25.4362 31.7954C26.461 30.7707 28.1229 30.7707 29.1484 31.7954L33.3296 35.9767ZM36.3621 28.3042C37.3868 29.329 37.3868 30.9909 36.3621 32.0156C35.3373 33.0411 33.6754 33.0411 32.6499 32.0156L12.4982 11.864C11.4735 10.8392 11.4735 9.17732 12.4982 8.15256C13.5237 7.12707 15.1849 7.12707 16.2104 8.15256L36.3621 28.3042ZM37.3861 18.6233C38.4116 19.6481 38.4116 21.31 37.3861 22.3355C36.3613 23.3602 34.6994 23.3602 33.6746 22.3355L27.0409 15.701C26.0154 14.6762 26.0154 13.0143 27.0409 11.9895C28.0656 10.964 29.7276 10.964 30.7523 11.9895L37.3861 18.6233Z" fill="url(#paint1_linear_2050_21966)"/>
<path d="M25.9339 7.18128C26.0844 7.3325 26.2128 7.49766 26.3185 7.67237C25.3143 7.06456 23.9893 7.19229 23.1187 8.05702C22.2452 8.92616 22.1131 10.2585 22.7245 11.2671C22.5454 11.1592 22.3766 11.0278 22.2224 10.8722L22.1791 10.8296C21.1602 9.80411 21.1646 8.14731 22.1894 7.12769C23.2142 6.10881 24.8717 6.11321 25.8913 7.13797L25.9339 7.18128ZM5.75509 15.8257L4.82576 14.8963C3.801 13.8716 3.801 12.2096 4.82576 11.1849C5.85052 10.1594 7.51245 10.1594 8.53795 11.1849L9.46728 12.1142C8.44178 11.0887 6.78059 11.0887 5.75509 12.1142C4.73033 13.139 4.73033 14.8009 5.75509 15.8257ZM2.72266 23.4989L1.79333 22.5695C0.767835 21.5448 0.767835 19.8821 1.79333 18.8574C2.81809 17.8326 4.48002 17.8326 5.50478 18.8574L6.43411 19.7867C5.40935 18.7619 3.74742 18.7619 2.72266 19.7867C1.69717 20.8122 1.69717 22.4741 2.72266 23.4989ZM1.6979 33.1798L0.768569 32.2504C-0.25619 31.2249 -0.25619 29.563 0.768569 28.5383C1.79333 27.5135 3.45526 27.5135 4.48075 28.5383L5.41008 29.4676C4.38532 28.4428 2.72339 28.4428 1.6979 29.4676C0.67314 30.4931 0.67314 32.155 1.6979 33.1798ZM26.3655 36.4368L25.4362 35.5068C24.4114 34.482 24.4114 32.8201 25.4362 31.7953C26.461 30.7698 28.1229 30.7698 29.1484 31.7953L30.0777 32.7246C29.0529 31.6999 27.391 31.6999 26.3655 32.7246C25.3408 33.7494 25.3408 35.4113 26.3655 36.4368ZM13.4276 12.7932L12.4982 11.8639C11.4735 10.8391 11.4735 9.17721 12.4982 8.15245C13.5237 7.12696 15.1849 7.12696 16.2104 8.15245L17.1398 9.08178C16.115 8.05629 14.4531 8.05629 13.4276 9.08178C12.4028 10.1065 12.4028 11.7685 13.4276 12.7932ZM27.9702 16.6302L27.0409 15.7009C26.0154 14.6761 26.0154 13.0142 27.0409 11.9894C28.0656 10.9639 29.7276 10.9639 30.7523 11.9894L31.6816 12.9188C30.6569 11.8933 28.995 11.8933 27.9702 12.9188C26.9454 13.9435 26.9454 15.6054 27.9702 16.6302Z" fill="#66E5FB"/>
<defs>
<linearGradient id="paint0_linear_2050_21966" x1="-4.35017" y1="50.5708" x2="69.9683" y2="-24.0759" gradientUnits="userSpaceOnUse">
<stop stop-color="#020C6A"/>
<stop offset="0.36" stop-color="#065DCF"/>
<stop offset="0.62" stop-color="#2DDAFF"/>
<stop offset="1" stop-color="#66FFCC"/>
</linearGradient>
<linearGradient id="paint1_linear_2050_21966" x1="0.212146" y1="44.3025" x2="44.4265" y2="0.0880892" gradientUnits="userSpaceOnUse">
<stop stop-color="#0038FF"/>
<stop offset="0.36" stop-color="#065DCF"/>
<stop offset="0.62" stop-color="#2DDAFF"/>
<stop offset="1" stop-color="#66FFCC"/>
</linearGradient>
</defs>
</svg>
